Merriweather-TextBlack.ufo
<glyph name="exclam" format="2">
  <advance width="585.8686131386861"/>
  <unicode hex="0021"/>
  <outline>
    <contour>
      <point x="472.6131386861313" y="1780.0" type="line"/>
      <point x="101.6058394160584" y="1780.0" type="line"/>
      <point x="204.35766423357663" y="505.9270072992701" type="line"/>
      <point x="370.02919708029196" y="505.9270072992701" type="line"/>
    </contour>
    <contour>
      <point x="110.95620437956204" y="146.8175182481752" type="curve" smooth="yes"/>
      <point x="110.95620437956204" y="50.32846715328467"/>
      <point x="192.77372262773721" y="-16.0"/>
      <point x="277.7664233576643" y="-16.0" type="curve" smooth="yes"/>
      <point x="396.9197080291971" y="-16.0"/>
      <point x="480.9051094890511" y="48.160583941605836"/>
      <point x="480.9051094890511" y="161.4817518248175" type="curve" smooth="yes"/>
      <point x="480.9051094890511" y="245.3065693430657"/>
      <point x="417.5839416058394" y="325.13138686131384"/>
      <point x="307.43065693430657" y="325.13138686131384" type="curve" smooth="yes"/>
      <point x="199.10948905109487" y="325.13138686131384"/>
      <point x="110.95620437956204" y="253.13868613138686"/>
    </contour>
  </outline>
</glyph>
<glyph name="quotedbl" format="2">
  <advance width="1255.6363636363635"/>
  <unicode hex="0022"/>
  <outline>
    <contour>
      <point x="504.4545454545454" y="1682.0" type="line"/>
      <point x="215.27272727272728" y="1682.0" type="line"/>
      <point x="274.8181818181818" y="862.909090909091" type="line"/>
      <point x="442.90909090909093" y="862.909090909091" type="line"/>
    </contour>
    <contour>
      <point x="1041.909090909091" y="1682.0" type="line"/>
      <point x="752.7272727272727" y="1682.0" type="line"/>
      <point x="812.2727272727273" y="862.909090909091" type="line"/>
      <point x="980.3636363636363" y="862.909090909091" type="line"/>
    </contour>
  </outline>
</glyph>
<glyph name="numbersign" format="2">
  <advance width="1423.272727272727"/>
  <unicode hex="0023"/>
  <outline>
    <contour>
      <point x="368.72727272727275" y="413.0" type="line"/>
      <point x="304.72727272727275" y="0.0" type="line"/>
      <point x="413.6363636363636" y="0.0" type="line"/>
      <point x="478.6363636363636" y="413.0" type="line"/>
      <point x="823.6363636363636" y="413.0" type="line"/>
      <point x="760.6363636363636" y="0.0" type="line"/>
      <point x="869.5454545454545" y="0.0" type="line"/>
      <point x="932.5454545454545" y="413.0" type="line"/>
      <point x="1200.5454545454543" y="413.0" type="line"/>
      <point x="1228.5454545454543" y="616.0" type="line"/>
      <point x="964.5454545454545" y="616.0" type="line"/>
      <point x="1014.5454545454545" y="907.0" type="line"/>
      <point x="1268.5454545454543" y="907.0" type="line"/>
      <point x="1296.5454545454543" y="1108.0" type="line"/>
      <point x="1043.5454545454543" y="1108.0" type="line"/>
      <point x="1113.5454545454543" y="1539.0" type="line"/>
      <point x="1003.6363636363636" y="1539.0" type="line"/>
      <point x="933.6363636363636" y="1108.0" type="line"/>
      <point x="589.6363636363636" y="1108.0" type="line"/>
      <point x="657.6363636363636" y="1539.0" type="line"/>
      <point x="548.7272727272727" y="1539.0" type="line"/>
      <point x="480.72727272727275" y="1108.0" type="line"/>
      <point x="221.72727272727272" y="1108.0" type="line"/>
      <point x="193.72727272727272" y="907.0" type="line"/>
      <point x="449.72727272727275" y="907.0" type="line"/>
      <point x="402.72727272727275" y="616.0" type="line"/>
      <point x="154.72727272727272" y="616.0" type="line"/>
      <point x="126.72727272727273" y="413.0" type="line"/>
    </contour>
    <contour>
      <point x="855.6363636363636" y="616.0" type="line"/>
      <point x="510.6363636363636" y="616.0" type="line"/>
      <point x="559.6363636363636" y="907.0" type="line"/>
      <point x="904.6363636363636" y="907.0" type="line"/>
    </contour>
  </outline>
</glyph>
<glyph name="dollar" format="2">
  <advance width="1341.160583941606"/>
  <unicode hex="0024"/>
  <outline>
    <contour>
      <point x="161.32116788321167" y="65.0" type="line"/>
      <point x="219.83211678832114" y="52.51094890510949"/>
      <point x="386.83941605839414" y="-9.678832116788321"/>
      <point x="592.7226277372263" y="-21.00729927007299" type="curve"/>
      <point x="591.0583941605839" y="-253.34306569343065" type="line"/>
      <point x="753.6350364963505" y="-253.34306569343065" type="line"/>
      <point x="755.2992700729928" y="-17.00729927007299" type="line"/>
      <point x="1077.5839416058395" y="20.16058394160584"/>
      <point x="1205.9999999999998" y="216.94160583941604"/>
      <point x="1205.9999999999998" y="420.6715328467153" type="curve" smooth="yes"/>
      <point x="1205.9999999999998" y="653.3649635036496"/>
      <point x="1016.9927007299269" y="763.3576642335767"/>
      <point x="827.0000000000001" y="866.6934306569343" type="curve" smooth="yes"/>
      <point x="662.2919708029198" y="955.5547445255474"/>
      <point x="500.3868613138686" y="1036.2335766423357"/>
      <point x="500.3868613138686" y="1190.2116788321168" type="curve" smooth="yes"/>
      <point x="500.3868613138686" y="1299.058394160584"/>
      <point x="574.1824817518249" y="1385.2554744525548"/>
      <point x="710.0" y="1385.2554744525548" type="curve" smooth="yes"/>
      <point x="781.8029197080292" y="1385.2554744525548"/>
      <point x="842.4671532846714" y="1361.5985401459855"/>
      <point x="875.0" y="1332.2554744525548" type="curve"/>
      <point x="919.8394160583941" y="1098.3211678832117" type="line"/>
      <point x="1104.0" y="1098.3211678832117" type="line"/>
      <point x="1117.6788321167885" y="1432.0" type="line"/>
      <point x="1066.0" y="1445.3211678832117"/>
      <point x="913.4306569343066" y="1493.1824817518248"/>
      <point x="762.7883211678833" y="1502.3357664233577" type="curve"/>
      <point x="762.7883211678833" y="1723.021897810219" type="line"/>
      <point x="598.5474452554744" y="1723.021897810219" type="line"/>
      <point x="598.5474452554744" y="1500.6715328467153" type="line"/>
      <point x="321.86131386861314" y="1469.1824817518248"/>
      <point x="171.0" y="1305.036496350365"/>
      <point x="171.0" y="1106.3065693430658" type="curve" smooth="yes"/>
      <point x="171.0" y="846.7810218978102"/>
      <point x="349.40145985401466" y="728.4452554744526"/>
      <point x="527.0" y="637.3065693430658" type="curve" smooth="yes"/>
      <point x="726.8248175182482" y="535.4671532846716"/>
      <point x="862.6131386861314" y="453.6131386861314"/>
      <point x="862.6131386861314" y="316.2773722627737" type="curve" smooth="yes"/>
      <point x="862.6131386861314" y="190.09489051094894"/>
      <point x="798.2700729927006" y="103.56934306569343"/>
      <point x="631.1459854014598" y="103.56934306569343" type="curve" smooth="yes"/>
      <point x="524.8759124087592" y="103.56934306569343"/>
      <point x="459.37226277372264" y="132.89051094890513"/>
      <point x="420.1678832116788" y="171.56934306569343" type="curve"/>
      <point x="368.16058394160586" y="429.6788321167883" type="line"/>
      <point x="180.0" y="429.6788321167883" type="line"/>
    </contour>
  </outline>
</glyph>
<glyph name="percent" format="2">
  <advance width="2126.727272727273"/>
  <unicode hex="0025"/>
  <outline>
    <contour>
      <point x="646.4545454545454" y="0.0" type="line"/>
      <point x="829.8181818181818" y="0.0" type="line"/>
      <point x="1473.181818181818" y="1502.0" type="line"/>
      <point x="1289.8181818181818" y="1502.0" type="line"/>
    </contour>
    <contour>
      <point x="473.0" y="624.0" type="curve" smooth="yes"/>
      <point x="704.8181818181818" y="624.0"/>
      <point x="895.0" y="779.1818181818181"/>
      <point x="895.0" y="1063.1818181818182" type="curve" smooth="yes"/>
      <point x="895.0" y="1303.9999999999998"/>
      <point x="794.6363636363637" y="1495.181818181818"/>
      <point x="509.18181818181824" y="1495.181818181818" type="curve" smooth="yes"/>
      <point x="272.99999999999994" y="1495.181818181818"/>
      <point x="89.0" y="1335.181818181818"/>
      <point x="89.0" y="1051.1818181818182" type="curve" smooth="yes"/>
      <point x="89.0" y="817.5454545454546"/>
      <point x="220.18181818181816" y="624.0"/>
    </contour>
    <contour>
      <point x="490.81818181818187" y="740.0909090909091" type="curve" smooth="yes"/>
      <point x="385.8181818181818" y="740.0909090909091"/>
      <point x="353.8181818181818" y="900.7272727272726"/>
      <point x="353.8181818181818" y="1063.3636363636363" type="curve" smooth="yes"/>
      <point x="353.8181818181818" y="1255.181818181818"/>
      <point x="389.45454545454544" y="1377.8181818181818"/>
      <point x="497.1818181818182" y="1377.8181818181818" type="curve" smooth="yes"/>
      <point x="602.6363636363636" y="1377.8181818181818"/>
      <point x="631.9999999999999" y="1230.909090909091"/>
      <point x="631.9999999999999" y="1055.1818181818182" type="curve" smooth="yes"/>
      <point x="631.9999999999999" y="862.7272727272727"/>
      <point x="599.0" y="740.0909090909091"/>
    </contour>
    <contour>
      <point x="1614.7272727272725" y="19.999999999999996" type="curve" smooth="yes"/>
      <point x="1846.7272727272725" y="19.999999999999996"/>
      <point x="2037.727272727273" y="176.0"/>
      <point x="2037.727272727273" y="460.0" type="curve" smooth="yes"/>
      <point x="2037.727272727273" y="700.0"/>
      <point x="1935.727272727273" y="892.0"/>
      <point x="1651.7272727272727" y="892.0" type="curve" smooth="yes"/>
      <point x="1414.727272727273" y="892.0"/>
      <point x="1230.7272727272727" y="732.0"/>
      <point x="1230.7272727272727" y="448.0" type="curve" smooth="yes"/>
      <point x="1230.7272727272727" y="217.0"/>
      <point x="1362.7272727272727" y="19.999999999999996"/>
    </contour>
    <contour>
      <point x="1631.7272727272727" y="137.72727272727272" type="curve" smooth="yes"/>
      <point x="1527.5454545454545" y="137.72727272727272"/>
      <point x="1494.7272727272727" y="297.5454545454545"/>
      <point x="1494.7272727272727" y="461.0" type="curve" smooth="yes"/>
      <point x="1494.7272727272727" y="652.0"/>
      <point x="1531.1818181818185" y="774.6363636363636"/>
      <point x="1639.727272727273" y="774.6363636363636" type="curve" smooth="yes"/>
      <point x="1743.5454545454545" y="774.6363636363636"/>
      <point x="1773.7272727272727" y="626.909090909091"/>
      <point x="1773.7272727272727" y="452.0" type="curve" smooth="yes"/>
      <point x="1774.5454545454545" y="261.1818181818182"/>
      <point x="1739.909090909091" y="137.72727272727272"/>
    </contour>
  </outline>
</glyph>
<glyph name="ampersand" format="2">
  <advance width="1535.4545454545453"/>
  <unicode hex="0026"/>
  <outline>
    <contour>
      <point x="1513.4545454545455" y="828.0" type="line"/>
      <point x="1048.9090909090905" y="828.0" type="line"/>
      <point x="1048.9090909090905" y="695.7272727272727" type="line"/>
      <point x="1181.6363636363635" y="665.2727272727273" type="line"/>
      <point x="1185.7272727272725" y="564.6363636363636"/>
      <point x="1162.2727272727273" y="455.3636363636363"/>
      <point x="1096.7272727272725" y="373.72727272727275" type="curve"/>
      <point x="993.9090909090909" y="469.6363636363636"/>
      <point x="887.1818181818182" y="601.1818181818182"/>
      <point x="740.4545454545455" y="786.5454545454546" type="curve"/>
      <point x="963.2727272727273" y="895.3636363636364"/>
      <point x="1082.4545454545455" y="1002.9090909090908"/>
      <point x="1082.4545454545455" y="1207.6363636363637" type="curve" smooth="yes"/>
      <point x="1082.4545454545455" y="1364.909090909091"/>
      <point x="957.5454545454546" y="1505.0"/>
      <point x="688.5454545454545" y="1505.0" type="curve" smooth="yes"/>
      <point x="404.45454545454544" y="1505.0"/>
      <point x="221.63636363636363" y="1335.0"/>
      <point x="221.63636363636363" y="1124.4545454545455" type="curve" smooth="yes"/>
      <point x="221.63636363636363" y="968.6363636363635"/>
      <point x="309.72727272727275" y="844.9090909090909"/>
      <point x="400.9090909090909" y="726.1818181818182" type="curve"/>
      <point x="212.45454545454544" y="668.8181818181819"/>
      <point x="57.090909090909086" y="535.8181818181818"/>
      <point x="57.090909090909086" y="359.6363636363636" type="curve" smooth="yes"/>
      <point x="57.090909090909086" y="124.27272727272728"/>
      <point x="256.36363636363643" y="-22.0"/>
      <point x="585.5454545454546" y="-22.0" type="curve" smooth="yes"/>
      <point x="762.0000000000001" y="-22.0"/>
      <point x="891.6363636363637" y="19.090909090909093"/>
      <point x="978.5454545454546" y="90.27272727272727" type="curve"/>
      <point x="1066.3636363636363" y="26.090909090909093"/>
      <point x="1167.4545454545453" y="-14.818181818181818"/>
      <point x="1278.4545454545455" y="-14.818181818181818" type="curve" smooth="yes"/>
      <point x="1324.5454545454545" y="-14.818181818181818"/>
      <point x="1447.1818181818182" y="-3.7272727272727275"/>
      <point x="1475.909090909091" y="19.0" type="curve"/>
      <point x="1475.909090909091" y="129.9090909090909" type="line"/>
      <point x="1380.4545454545457" y="137.9090909090909"/>
      <point x="1262.181818181818" y="221.54545454545453"/>
      <point x="1192.3636363636363" y="285.3636363636364" type="curve"/>
      <point x="1274.8181818181818" y="349.27272727272725"/>
      <point x="1366.6363636363637" y="494.72727272727275"/>
      <point x="1376.4545454545457" y="665.2727272727273" type="curve"/>
      <point x="1513.4545454545455" y="695.7272727272727" type="line"/>
    </contour>
    <contour>
      <point x="529.8181818181818" y="1188.1818181818182" type="curve" smooth="yes"/>
      <point x="529.8181818181818" y="1331.2727272727273"/>
      <point x="582.4545454545454" y="1406.0909090909092"/>
      <point x="683.4545454545455" y="1406.0909090909092" type="curve" smooth="yes"/>
      <point x="786.3636363636365" y="1406.0909090909092"/>
      <point x="815.5454545454546" y="1290.6363636363635"/>
      <point x="815.5454545454546" y="1208.090909090909" type="curve" smooth="yes"/>
      <point x="815.5454545454546" y="1080.6363636363637"/>
      <point x="783.0" y="966.4545454545455"/>
      <point x="673.9999999999999" y="869.5454545454546" type="curve"/>
      <point x="610.2727272727273" y="948.0909090909091"/>
      <point x="529.8181818181818" y="1061.3636363636365"/>
    </contour>
    <contour>
      <point x="680.6363636363637" y="116.0909090909091" type="curve" smooth="yes"/>
      <point x="462.6363636363636" y="116.0909090909091"/>
      <point x="347.8181818181818" y="246.27272727272728"/>
      <point x="347.8181818181818" y="400.81818181818187" type="curve" smooth="yes"/>
      <point x="347.8181818181818" y="516.3636363636364"/>
      <point x="403.72727272727275" y="589.1818181818182"/>
      <point x="468.09090909090907" y="637.9090909090909" type="curve"/>
      <point x="595.6363636363636" y="475.00000000000006"/>
      <point x="733.3636363636364" y="286.90909090909093"/>
      <point x="873.0" y="169.1818181818182" type="curve"/>
      <point x="823.9090909090909" y="140.45454545454547"/>
      <point x="757.3636363636364" y="116.0909090909091"/>
    </contour>
  </outline>
</glyph>
<glyph name="quotesingle" format="2">
  <advance width="720.8978102189781"/>
  <unicode hex="0027"/>
  <outline>
    <contour>
      <point x="505.2627737226278" y="1682.0" type="line"/>
      <point x="215.63503649635035" y="1682.0" type="line"/>
      <point x="274.37226277372264" y="861.6131386861315" type="line"/>
      <point x="444.5255474452555" y="861.6131386861315" type="line"/>
    </contour>
  </outline>
</glyph>
<glyph name="parenleft" format="2">
  <advance width="890.7956204379564"/>
  <unicode hex="0028"/>
  <outline>
    <contour>
      <point x="100.81751824817518" y="668.0" type="curve" smooth="yes"/>
      <point x="100.81751824817518" y="-56.64233576642336"/>
      <point x="557.3649635036495" y="-327.3284671532847"/>
      <point x="652.905109489051" y="-382.0" type="curve"/>
      <point x="751.8175182481751" y="-304.4014598540146" type="line"/>
      <point x="644.4379562043795" y="-228.68613138686132"/>
      <point x="387.6934306569343" y="91.64233576642336"/>
      <point x="403.5255474452554" y="695.0" type="curve"/>
      <point x="416.6934306569343" y="1253.3576642335765"/>
      <point x="658.4379562043795" y="1529.85401459854"/>
      <point x="753.8175182481751" y="1590.5693430656934" type="curve"/>
      <point x="653.5766423357663" y="1670.0" type="line"/>
      <point x="542.0364963503649" y="1606.978102189781"/>
      <point x="100.81751824817518" y="1288.6423357664235"/>
    </contour>
  </outline>
</glyph>
<glyph name="parenright" format="2">
  <advance width="890.3636363636364"/>
  <unicode hex="0029"/>
  <outline>
    <contour>
      <point x="789.7272727272727" y="621.6363636363636" type="curve" smooth="yes"/>
      <point x="789.7272727272727" y="1346.0"/>
      <point x="332.6363636363637" y="1616.909090909091"/>
      <point x="236.6363636363636" y="1671.6363636363637" type="curve"/>
      <point x="138.72727272727275" y="1594.818181818182" type="line"/>
      <point x="246.63636363636363" y="1518.5454545454547"/>
      <point x="502.36363636363643" y="1198.2727272727275"/>
      <point x="487.36363636363643" y="594.6363636363636" type="curve"/>
      <point x="474.1818181818182" y="36.0"/>
      <point x="232.63636363636363" y="-240.45454545454547"/>
      <point x="136.72727272727272" y="-301.72727272727275" type="curve"/>
      <point x="235.9090909090909" y="-380.3636363636364" type="line"/>
      <point x="347.90909090909093" y="-317.0909090909091"/>
      <point x="789.7272727272727" y="1.272727272727273"/>
    </contour>
  </outline>
</glyph>
<glyph name="plus" format="2">
  <advance width="1271.5454545454547"/>
  <unicode hex="002B"/>
  <outline>
    <contour>
      <point x="353.2727272727273" y="719.909090909091" type="line"/>
      <point x="175.27272727272725" y="719.909090909091" type="line"/>
      <point x="175.27272727272725" y="530.8181818181819" type="line"/>
      <point x="353.2727272727273" y="530.8181818181819" type="line"/>
      <point x="546.4545454545455" y="537.3636363636364" type="line"/>
      <point x="541.5454545454545" y="376.45454545454544" type="line"/>
      <point x="541.5454545454545" y="155.8181818181818" type="line"/>
      <point x="729.0" y="155.8181818181818" type="line"/>
      <point x="729.0" y="376.45454545454544" type="line"/>
      <point x="721.6363636363637" y="537.3636363636364" type="line"/>
      <point x="888.2727272727273" y="530.8181818181819" type="line"/>
      <point x="1096.2727272727273" y="530.8181818181819" type="line"/>
      <point x="1096.2727272727273" y="719.909090909091" type="line"/>
      <point x="888.2727272727273" y="719.909090909091" type="line"/>
      <point x="721.6363636363637" y="710.0909090909091" type="line"/>
      <point x="729.0" y="874.0909090909091" type="line"/>
      <point x="729.0" y="1098.8181818181818" type="line"/>
      <point x="541.5454545454545" y="1098.8181818181818" type="line"/>
      <point x="541.5454545454545" y="874.0909090909091" type="line"/>
      <point x="546.4545454545455" y="710.0909090909091" type="line"/>
    </contour>
  </outline>
</glyph>
<glyph name="comma" format="2">
  <advance width="648.0145985401459"/>
  <unicode hex="002C"/>
  <outline>
    <contour>
      <point x="330.06569343065695" y="351.45255474452557" type="curve"/>
      <point x="318.2335766423358" y="351.45255474452557" type="line" smooth="yes"/>
      <point x="221.4087591240876" y="351.45255474452557"/>
      <point x="153.9270072992701" y="292.45985401459853"/>
      <point x="153.9270072992701" y="199.8029197080292" type="curve" smooth="yes"/>
      <point x="153.9270072992701" y="50.81021897810219"/>
      <point x="282.3211678832117" y="51.649635036496356"/>
      <point x="282.3211678832117" y="-54.37226277372263" type="curve" smooth="yes"/>
      <point x="282.3211678832117" y="-174.029197080292"/>
      <point x="226.81751824817516" y="-339.4525547445255"/>
      <point x="157.78832116788323" y="-400.4963503649635" type="curve"/>
      <point x="157.78832116788323" y="-429.2992700729927" type="line"/>
      <point x="243.87591240875912" y="-486.9124087591241" type="line"/>
      <point x="245.87591240875915" y="-486.7445255474452" type="line"/>
      <point x="361.2554744525547" y="-427.37956204379566"/>
      <point x="524.2189781021897" y="-176.63503649635032"/>
      <point x="524.2189781021897" y="79.64963503649635" type="curve" smooth="yes"/>
      <point x="524.2189781021897" y="233.29927007299273"/>
      <point x="434.06569343065695" y="351.45255474452557"/>
    </contour>
  </outline>
</glyph>
<glyph name="hyphen" format="2">
  <advance width="1130.8832116788321"/>
  <unicode hex="002D"/>
  <outline>
    <contour>
      <point x="955.2481751824818" y="724.992700729927" type="line"/>
      <point x="175.63503649635035" y="724.992700729927" type="line"/>
      <point x="175.63503649635035" y="534.1459854014598" type="line"/>
      <point x="955.2481751824818" y="534.1459854014598" type="line"/>
    </contour>
  </outline>
</glyph>
<glyph name="period" format="2">
  <advance width="599.6861313868612"/>
  <unicode hex="002E"/>
  <outline>
    <contour>
      <point x="282.9270072992701" y="-16.0" type="curve" smooth="yes"/>
      <point x="401.24817518248176" y="-16.0"/>
      <point x="485.2335766423358" y="48.99270072992701"/>
      <point x="485.2335766423358" y="162.3138686131387" type="curve" smooth="yes"/>
      <point x="485.2335766423358" y="246.97080291970804"/>
      <point x="421.91240875912405" y="327.62773722627736"/>
      <point x="312.5912408759124" y="327.62773722627736" type="curve" smooth="yes"/>
      <point x="204.27007299270073" y="327.62773722627736"/>
      <point x="115.28467153284672" y="254.8029197080292"/>
      <point x="115.28467153284672" y="148.4817518248175" type="curve" smooth="yes"/>
      <point x="115.28467153284672" y="51.992700729927"/>
      <point x="196.27007299270073" y="-16.0"/>
    </contour>
  </outline>
</glyph>
<glyph name="slash" format="2">
  <advance width="801.9635036496351"/>
  <unicode hex="002F"/>
  <outline>
    <contour>
      <point x="741.6569343065694" y="1562.0" type="line"/>
      <point x="540.978102189781" y="1562.0" type="line"/>
      <point x="60.306569343065696" y="-354.0" type="line"/>
      <point x="262.985401459854" y="-354.0" type="line"/>
    </contour>
  </outline>
</glyph>
<glyph name="zero" format="2">
  <advance width="1341.090909090909"/>
  <unicode hex="0030"/>
  <outline>
    <contour>
      <point x="641.3636363636363" y="-21.0" type="curve" smooth="yes"/>
      <point x="1017.0" y="-21.0"/>
      <point x="1256.1818181818182" y="231.9090909090909"/>
      <point x="1256.1818181818182" y="764.0" type="curve" smooth="yes"/>
      <point x="1256.1818181818182" y="1253.727272727273"/>
      <point x="1037.8181818181818" y="1505.0"/>
      <point x="700.5454545454546" y="1505.0" type="curve" smooth="yes"/>
      <point x="342.00000000000006" y="1505.0"/>
      <point x="85.9090909090909" y="1255.7272727272727"/>
      <point x="84.9090909090909" y="720.6363636363636" type="curve" smooth="yes"/>
      <point x="83.90909090909089" y="236.1818181818182"/>
      <point x="298.81818181818176" y="-21.0"/>
    </contour>
    <contour>
      <point x="673.5454545454545" y="97.36363636363636" type="curve" smooth="yes"/>
      <point x="537.5454545454546" y="97.36363636363636"/>
      <point x="467.0" y="246.45454545454547"/>
      <point x="467.0" y="741.6363636363636" type="curve" smooth="yes"/>
      <point x="467.0" y="1281.4545454545457"/>
      <point x="548.909090909091" y="1387.3636363636365"/>
      <point x="670.3636363636364" y="1387.3636363636365" type="curve" smooth="yes"/>
      <point x="801.5454545454545" y="1387.3636363636365"/>
      <point x="874.090909090909" y="1275.2727272727273"/>
      <point x="874.090909090909" y="725.6363636363636" type="curve" smooth="yes"/>
      <point x="874.090909090909" y="231.0"/>
      <point x="815.5454545454545" y="97.36363636363636"/>
    </contour>
  </outline>
</glyph>
<glyph name="one" format="2">
  <advance width="931.6363636363635"/>
  <unicode hex="0031"/>
  <outline>
    <contour>
      <point x="330.8181818181818" y="137.45454545454544" type="line"/>
      <point x="101.27272727272728" y="113.27272727272727" type="line"/>
      <point x="101.27272727272728" y="0.0" type="line"/>
      <point x="895.090909090909" y="0.0" type="line"/>
      <point x="895.090909090909" y="113.27272727272727" type="line"/>
      <point x="681.4545454545454" y="139.09090909090907" type="line"/>
      <point x="681.4545454545454" y="1486.0" type="line"/>
      <point x="508.81818181818187" y="1506.0" type="line"/>
      <point x="504.2727272727273" y="1506.0" type="line"/>
      <point x="412.45454545454544" y="1423.4545454545455"/>
      <point x="219.0909090909091" y="1331.090909090909"/>
      <point x="52.54545454545455" y="1299.2727272727273" type="curve"/>
      <point x="79.09090909090911" y="1152.5454545454545" type="line"/>
      <point x="141.27272727272725" y="1157.090909090909"/>
      <point x="285.9090909090909" y="1187.8181818181815"/>
      <point x="331.0" y="1202.1818181818182" type="curve"/>
    </contour>
  </outline>
</glyph>
<glyph name="two" format="2">
  <advance width="1167.9999999999998"/>
  <unicode hex="0032"/>
  <outline>
    <contour>
      <point x="25.636363636363637" y="128.0" type="curve"/>
      <point x="77.63636363636364" y="0.0" type="line"/>
      <point x="1056.181818181818" y="0.0" type="line"/>
      <point x="1117.272727272727" y="374.3636363636364" type="line"/>
      <point x="992.7272727272727" y="401.6363636363636" type="line"/>
      <point x="913.4545454545455" y="246.54545454545453" type="line"/>
      <point x="314.54545454545456" y="183.27272727272728" type="line"/>
      <point x="691.0909090909091" y="392.0"/>
      <point x="1034.1818181818182" y="770.7272727272727"/>
      <point x="1034.1818181818182" y="1074.181818181818" type="curve" smooth="yes"/>
      <point x="1034.1818181818182" y="1336.0"/>
      <point x="851.8181818181819" y="1504.0"/>
      <point x="555.8181818181818" y="1504.0" type="curve" smooth="yes"/>
      <point x="295.45454545454544" y="1504.0"/>
      <point x="121.27272727272728" y="1364.0"/>
      <point x="33.27272727272727" y="1245.0909090909092" type="curve"/>
      <point x="124.54545454545453" y="1139.2727272727273" type="line"/>
      <point x="195.27272727272725" y="1206.5454545454543"/>
      <point x="298.0" y="1288.0"/>
      <point x="444.0" y="1288.0" type="curve" smooth="yes"/>
      <point x="582.1818181818181" y="1288.0"/>
      <point x="675.8181818181818" y="1201.090909090909"/>
      <point x="675.8181818181818" y="1020.0" type="curve" smooth="yes"/>
      <point x="675.8181818181818" y="703.8181818181819"/>
      <point x="357.09090909090907" y="330.36363636363643"/>
    </contour>
  </outline>
</glyph>
<glyph name="three" format="2">
  <advance width="1135.0909090909092"/>
  <unicode hex="0033"/>
  <outline>
    <contour>
      <point x="343.18181818181813" y="-34.90909090909091" type="curve" smooth="yes"/>
      <point x="770.5454545454546" y="-34.90909090909091"/>
      <point x="1050.0909090909092" y="178.8181818181818"/>
      <point x="1049.272727272727" y="463.0" type="curve" smooth="yes"/>
      <point x="1048.4545454545455" y="676.1818181818182"/>
      <point x="838.090909090909" y="799.1818181818181"/>
      <point x="557.5454545454546" y="765.9090909090909" type="curve"/>
      <point x="772.0" y="833.909090909091"/>
      <point x="971.5454545454545" y="967.2727272727271"/>
      <point x="971.5454545454545" y="1180.818181818182" type="curve" smooth="yes"/>
      <point x="971.5454545454545" y="1406.0"/>
      <point x="775.3636363636364" y="1503.1818181818182"/>
      <point x="532.7272727272727" y="1503.1818181818182" type="curve" smooth="yes"/>
      <point x="328.0909090909091" y="1503.1818181818182"/>
      <point x="121.45454545454545" y="1405.4545454545455"/>
      <point x="42.90909090909091" y="1329.2727272727273" type="curve"/>
      <point x="115.90909090909092" y="1205.090909090909" type="line"/>
      <point x="177.45454545454544" y="1252.6363636363637"/>
      <point x="282.7272727272727" y="1307.7272727272727"/>
      <point x="414.4545454545454" y="1307.7272727272725" type="curve" smooth="yes"/>
      <point x="516.8181818181819" y="1307.7272727272727"/>
      <point x="615.1818181818181" y="1257.909090909091"/>
      <point x="615.1818181818181" y="1124.4545454545455" type="curve" smooth="yes"/>
      <point x="615.1818181818181" y="1006.909090909091"/>
      <point x="539.5454545454546" y="907.9090909090909"/>
      <point x="394.6363636363636" y="843.6363636363635" type="curve" smooth="yes"/>
      <point x="347.45454545454544" y="822.3636363636364"/>
      <point x="289.7272727272727" y="801.8181818181819"/>
      <point x="235.9090909090909" y="792.6363636363636" type="curve"/>
      <point x="274.1818181818182" y="669.4545454545455" type="line"/>
      <point x="305.5454545454546" y="676.8181818181818"/>
      <point x="362.27272727272725" y="692.4545454545456"/>
      <point x="394.72727272727275" y="700.8181818181819" type="curve"/>
      <point x="574.090909090909" y="693.4545454545456"/>
      <point x="667.9090909090909" y="604.1818181818181"/>
      <point x="667.9090909090909" y="436.0909090909091" type="curve" smooth="yes"/>
      <point x="667.9090909090909" y="252.54545454545456"/>
      <point x="524.7272727272726" y="125.18181818181819"/>
      <point x="267.09090909090907" y="125.18181818181819" type="curve" smooth="yes"/>
      <point x="187.54545454545456" y="125.18181818181819"/>
      <point x="124.72727272727273" y="134.81818181818184"/>
      <point x="63.45454545454546" y="155.72727272727272" type="curve"/>
      <point x="60.90909090909091" y="7.545454545454546" type="line"/>
      <point x="119.27272727272728" y="-14.818181818181818"/>
      <point x="242.27272727272728" y="-34.909090909090914"/>
    </contour>
  </outline>
</glyph>
<glyph name="four" format="2">
  <advance width="1288.2727272727275"/>
  <unicode hex="0034"/>
  <outline>
    <contour>
      <point x="736.5454545454546" y="0.0" type="line"/>
      <point x="1038.0" y="0.0" type="line"/>
      <point x="1038.0" y="268.27272727272725" type="line"/>
      <point x="1254.4545454545455" y="268.27272727272725" type="line"/>
      <point x="1254.4545454545455" y="482.1818181818182" type="line"/>
      <point x="1037.818181818182" y="468.9090909090909" type="line"/>
      <point x="1037.818181818182" y="853.909090909091" type="line"/>
      <point x="765.8181818181819" y="833.0" type="line"/>
      <point x="738.5454545454546" y="446.09090909090907" type="line"/>
      <point x="310.8181818181818" y="406.6363636363636" type="line"/>
      <point x="434.81818181818187" y="572.0909090909091" type="line"/>
      <point x="870.2727272727273" y="1368.0" type="line"/>
      <point x="593.0909090909091" y="1501.0" type="line"/>
      <point x="508.9090909090909" y="1501.0" type="line"/>
      <point x="395.09090909090907" y="1192.4545454545455"/>
      <point x="195.63636363636365" y="672.0909090909091"/>
      <point x="42.63636363636363" y="390.8181818181818" type="curve"/>
      <point x="117.45454545454545" y="268.27272727272725" type="line"/>
      <point x="736.5454545454546" y="268.27272727272725" type="line"/>
    </contour>
  </outline>
</glyph>
<glyph name="five" format="2">
  <advance width="1158.0"/>
  <unicode hex="0035"/>
  <outline>
    <contour>
      <point x="104.81818181818183" y="118.09090909090908" type="curve"/>
      <point x="105.0" y="-14.272727272727275" type="line"/>
      <point x="157.36363636363635" y="-29.454545454545453"/>
      <point x="227.0" y="-33.72727272727273"/>
      <point x="277.3636363636364" y="-33.18181818181819" type="curve" smooth="yes"/>
      <point x="725.1818181818181" y="-30.818181818181817"/>
      <point x="1073.0909090909092" y="184.63636363636363"/>
      <point x="1073.0909090909092" y="554.7272727272727" type="curve" smooth="yes"/>
      <point x="1073.0909090909092" y="795.0"/>
      <point x="933.4545454545455" y="942.3636363636363"/>
      <point x="645.8181818181818" y="942.3636363636363" type="curve" smooth="yes"/>
      <point x="491.4545454545455" y="942.3636363636363"/>
      <point x="361.0909090909091" y="866.7272727272727"/>
      <point x="296.54545454545456" y="823.0909090909091" type="curve"/>
      <point x="385.4545454545455" y="1236.1818181818182" type="line"/>
      <point x="974.0909090909091" y="1236.1818181818182" type="line"/>
      <point x="1019.9090909090909" y="1524.0" type="line"/>
      <point x="885.3636363636363" y="1524.0" type="line"/>
      <point x="863.909090909091" y="1486.0" type="line"/>
      <point x="190.9090909090909" y="1486.0" type="line"/>
      <point x="94.0" y="734.7272727272726" type="line"/>
      <point x="169.45454545454544" y="683.9999999999999" type="line"/>
      <point x="237.8181818181818" y="718.909090909091"/>
      <point x="350.9090909090909" y="742.8181818181819"/>
      <point x="445.18181818181824" y="742.8181818181819" type="curve" smooth="yes"/>
      <point x="613.0909090909091" y="742.8181818181819"/>
      <point x="709.0" y="665.8181818181819"/>
      <point x="709.0" y="490.0" type="curve" smooth="yes"/>
      <point x="709.0" y="271.2727272727273"/>
      <point x="508.00000000000006" y="112.72727272727272"/>
      <point x="242.8181818181818" y="111.09090909090908" type="curve" smooth="yes"/>
      <point x="196.27272727272725" y="110.36363636363636"/>
      <point x="146.63636363636365" y="113.27272727272728"/>
    </contour>
  </outline>
</glyph>
<glyph name="six" format="2">
  <advance width="1248.5474452554745"/>
  <unicode hex="0036"/>
  <outline>
    <contour>
      <point x="630.6861313868613" y="-34.167883211678834" type="curve" smooth="yes"/>
      <point x="980.6277372262773" y="-34.167883211678834"/>
      <point x="1184.890510948905" y="176.44525547445255"/>
      <point x="1184.890510948905" y="484.04379562043795" type="curve" smooth="yes"/>
      <point x="1184.890510948905" y="772.3941605839416"/>
      <point x="1015.8613138686131" y="943.007299270073"/>
      <point x="764.5912408759124" y="943.007299270073" type="curve" smooth="yes"/>
      <point x="626.7591240875913" y="943.007299270073"/>
      <point x="532.0291970802921" y="892.3211678832116"/>
      <point x="468.5036496350365" y="828.5547445255473" type="curve"/>
      <point x="535.4525547445255" y="1087.5912408759123"/>
      <point x="683.9124087591241" y="1325.2335766423357"/>
      <point x="984.8540145985402" y="1411.2335766423357" type="curve"/>
      <point x="925.065693430657" y="1521.1605839416059" type="line"/>
      <point x="509.4087591240877" y="1479.861313868613"/>
      <point x="85.46715328467154" y="1090.6569343065694"/>
      <point x="85.46715328467154" y="568.8832116788321" type="curve" smooth="yes"/>
      <point x="85.46715328467154" y="225.32846715328466"/>
      <point x="273.83211678832123" y="-34.16788321167883"/>
    </contour>
    <contour>
      <point x="643.8394160583941" y="778.3503649635038" type="curve" smooth="yes"/>
      <point x="768.1897810218979" y="778.3503649635037"/>
      <point x="830.6642335766425" y="661.7445255474453"/>
      <point x="830.6642335766425" y="415.81751824817513" type="curve" smooth="yes"/>
      <point x="830.6642335766425" y="207.98540145985402"/>
      <point x="777.8321167883212" y="88.24817518248176"/>
      <point x="640.8394160583941" y="88.24817518248176" type="curve" smooth="yes"/>
      <point x="497.7080291970803" y="88.24817518248176"/>
      <point x="433.8759124087591" y="245.04379562043798"/>
      <point x="433.8759124087591" y="528.3065693430656" type="curve" smooth="yes"/>
      <point x="433.8759124087591" y="594.8248175182482"/>
      <point x="437.8759124087591" y="643.6788321167884"/>
      <point x="441.8759124087591" y="686.1824817518249" type="curve"/>
      <point x="477.2043795620438" y="725.6788321167884"/>
      <point x="540.043795620438" y="778.3503649635037"/>
    </contour>
  </outline>
</glyph>
<glyph name="seven" format="2">
  <advance width="1212.3430656934306"/>
  <unicode hex="0037"/>
  <outline>
    <contour>
      <point x="685.9416058394161" y="0.0" type="line"/>
      <point x="1162.7518248175181" y="1414.197080291971" type="line"/>
      <point x="1104.5985401459855" y="1486.0" type="line"/>
      <point x="136.27007299270073" y="1486.0" type="line"/>
      <point x="80.08759124087592" y="1010.4890510948904" type="line"/>
      <point x="245.95620437956205" y="976.1824817518248" type="line"/>
      <point x="358.7445255474452" y="1271.197080291971" type="line"/>
      <point x="889.1021897810218" y="1282.846715328467" type="line"/>
      <point x="732.5109489051094" y="908.8759124087592"/>
      <point x="521.8394160583942" y="470.13868613138686"/>
      <point x="286.0875912408759" y="0.0" type="curve"/>
    </contour>
  </outline>
</glyph>
<glyph name="eight" format="2">
  <advance width="1275.6363636363637"/>
  <unicode hex="0038"/>
  <outline>
    <contour>
      <point x="84.36363636363636" y="358.27272727272725" type="curve" smooth="yes"/>
      <point x="84.36363636363636" y="98.45454545454545"/>
      <point x="347.27272727272725" y="-22.0"/>
      <point x="624.0" y="-22.0" type="curve" smooth="yes"/>
      <point x="954.3636363636363" y="-22.0"/>
      <point x="1191.272727272727" y="146.63636363636365"/>
      <point x="1191.272727272727" y="391.0" type="curve" smooth="yes"/>
      <point x="1191.272727272727" y="607.9090909090909"/>
      <point x="1034.2727272727273" y="725.909090909091"/>
      <point x="848.090909090909" y="830.2727272727273" type="curve"/>
      <point x="1021.909090909091" y="903.7272727272727"/>
      <point x="1115.090909090909" y="1022.4545454545454"/>
      <point x="1115.090909090909" y="1170.0909090909092" type="curve" smooth="yes"/>
      <point x="1115.090909090909" y="1367.909090909091"/>
      <point x="943.0909090909091" y="1506.0"/>
      <point x="652.7272727272729" y="1506.0" type="curve" smooth="yes"/>
      <point x="383.1818181818182" y="1506.0"/>
      <point x="147.1818181818182" y="1360.8181818181818"/>
      <point x="147.1818181818182" y="1107.0" type="curve" smooth="yes"/>
      <point x="147.1818181818182" y="927.1818181818181"/>
      <point x="249.18181818181816" y="799.7272727272729"/>
      <point x="387.90909090909093" y="710.4545454545455" type="curve"/>
      <point x="193.7272727272727" y="644.090909090909"/>
      <point x="84.36363636363636" y="504.99999999999994"/>
    </contour>
    <contour>
      <point x="444.18181818181813" y="1191.1818181818182" type="curve" smooth="yes"/>
      <point x="444.18181818181813" y="1319.9090909090908"/>
      <point x="543.8181818181819" y="1392.0"/>
      <point x="652.3636363636364" y="1392.0" type="curve" smooth="yes"/>
      <point x="796.0" y="1392.0"/>
      <point x="870.5454545454546" y="1291.3636363636365"/>
      <point x="870.5454545454546" y="1133.5454545454545" type="curve" smooth="yes"/>
      <point x="870.5454545454546" y="1038.0909090909092"/>
      <point x="825.0" y="945.0"/>
      <point x="746.4545454545454" y="886.2727272727271" type="curve"/>
      <point x="587.9090909090909" y="972.2727272727274"/>
      <point x="444.18181818181813" y="1047.181818181818"/>
    </contour>
    <contour>
      <point x="860.7272727272726" y="313.5454545454546" type="curve" smooth="yes"/>
      <point x="860.7272727272726" y="176.27272727272728"/>
      <point x="746.7272727272727" y="98.36363636363635"/>
      <point x="629.6363636363636" y="98.36363636363635" type="curve" smooth="yes"/>
      <point x="452.7272727272727" y="98.36363636363635"/>
      <point x="353.81818181818187" y="225.72727272727272"/>
      <point x="353.81818181818187" y="403.54545454545456" type="curve" smooth="yes"/>
      <point x="353.81818181818187" y="512.6363636363636"/>
      <point x="403.54545454545456" y="600.2727272727273"/>
      <point x="478.6363636363636" y="653.7272727272727" type="curve"/>
      <point x="670.4545454545454" y="552.090909090909"/>
      <point x="860.7272727272726" y="479.54545454545456"/>
    </contour>
  </outline>
</glyph>
<glyph name="nine" format="2">
  <advance width="1255.1818181818182"/>
  <unicode hex="0039"/>
  <outline>
    <contour>
      <point x="622.4545454545455" y="1506.0" type="curve" smooth="yes"/>
      <point x="270.8181818181818" y="1505.8181818181818"/>
      <point x="63.54545454545454" y="1265.2727272727273"/>
      <point x="63.54545454545454" y="963.8181818181818" type="curve" smooth="yes"/>
      <point x="63.54545454545454" y="667.090909090909"/>
      <point x="256.81818181818176" y="486.7272727272727"/>
      <point x="503.72727272727275" y="486.7272727272727" type="curve" smooth="yes"/>
      <point x="629.0" y="486.7272727272727"/>
      <point x="718.7272727272727" y="536.2727272727273"/>
      <point x="775.6363636363636" y="602.6363636363636" type="curve"/>
      <point x="715.8181818181819" y="338.0909090909091"/>
      <point x="573.1818181818182" y="105.81818181818183"/>
      <point x="277.1818181818182" y="21.454545454545453" type="curve"/>
      <point x="334.4545454545455" y="-87.27272727272728" type="line"/>
      <point x="754.6363636363636" y="-52.18181818181818"/>
      <point x="1170.090909090909" y="339.6363636363636"/>
      <point x="1170.090909090909" y="881.4545454545455" type="curve" smooth="yes"/>
      <point x="1170.090909090909" y="1245.090909090909"/>
      <point x="987.5454545454545" y="1506.1818181818182"/>
    </contour>
    <contour>
      <point x="606.6363636363636" y="653.4545454545455" type="curve" smooth="yes"/>
      <point x="482.8181818181818" y="653.4545454545455"/>
      <point x="416.81818181818176" y="775.6363636363636"/>
      <point x="416.81818181818176" y="1027.0909090909092" type="curve" smooth="yes"/>
      <point x="416.81818181818176" y="1221.6363636363635"/>
      <point x="469.9090909090909" y="1384.909090909091"/>
      <point x="607.0" y="1384.727272727273" type="curve" smooth="yes"/>
      <point x="761.6363636363635" y="1384.5454545454547"/>
      <point x="813.2727272727274" y="1201.0909090909092"/>
      <point x="813.2727272727273" y="907.0909090909092" type="curve" smooth="yes"/>
      <point x="813.2727272727273" y="852.5454545454546"/>
      <point x="807.6363636363637" y="791.5454545454546"/>
      <point x="803.4545454545455" y="742.6363636363635" type="curve"/>
      <point x="766.1818181818182" y="698.090909090909"/>
      <point x="690.3636363636364" y="653.4545454545455"/>
    </contour>
  </outline>
</glyph>
<glyph name="colon" format="2">
  <advance width="691.1532846715329"/>
  <unicode hex="003A"/>
  <outline>
    <contour>
      <point x="327.7445255474453" y="780.2335766423357" type="curve" smooth="yes"/>
      <point x="446.89781021897807" y="780.2335766423357"/>
      <point x="530.051094890511" y="845.2262773722628"/>
      <point x="530.051094890511" y="958.5474452554745" type="curve" smooth="yes"/>
      <point x="530.051094890511" y="1043.2043795620436"/>
      <point x="467.5620437956204" y="1123.861313868613"/>
      <point x="357.40875912408757" y="1123.861313868613" type="curve" smooth="yes"/>
      <point x="249.0875912408759" y="1123.861313868613"/>
      <point x="160.1021897810219" y="1051.0364963503648"/>
      <point x="160.1021897810219" y="943.8832116788321" type="curve" smooth="yes"/>
      <point x="160.1021897810219" y="848.2262773722628"/>
      <point x="241.0875912408759" y="780.2335766423357"/>
    </contour>
    <contour>
      <point x="327.9124087591241" y="-16.0" type="curve" smooth="yes"/>
      <point x="447.0656934306569" y="-16.0"/>
      <point x="530.2189781021898" y="48.99270072992701"/>
      <point x="530.2189781021898" y="162.3138686131387" type="curve" smooth="yes"/>
      <point x="530.2189781021898" y="246.97080291970804"/>
      <point x="467.72992700729924" y="327.62773722627736"/>
      <point x="357.5766423357664" y="327.62773722627736" type="curve" smooth="yes"/>
      <point x="249.25547445255472" y="327.62773722627736"/>
      <point x="160.27007299270073" y="254.8029197080292"/>
      <point x="160.27007299270073" y="148.4817518248175" type="curve" smooth="yes"/>
      <point x="160.27007299270073" y="51.992700729927"/>
      <point x="241.25547445255475" y="-16.0"/>
    </contour>
  </outline>
</glyph>
<glyph name="semicolon" format="2">
  <advance width="610.2627737226277"/>
  <unicode hex="003B"/>
  <outline>
    <contour>
      <point x="311.7591240875913" y="780.2335766423357" type="curve" smooth="yes"/>
      <point x="430.0802919708029" y="780.2335766423357"/>
      <point x="514.0656934306569" y="845.2262773722628"/>
      <point x="514.0656934306569" y="958.5474452554745" type="curve" smooth="yes"/>
      <point x="514.0656934306569" y="1043.2043795620436"/>
      <point x="451.57664233576645" y="1123.861313868613"/>
      <point x="341.4233576642336" y="1123.861313868613" type="curve" smooth="yes"/>
      <point x="233.10218978102193" y="1123.861313868613"/>
      <point x="144.11678832116786" y="1051.0364963503648"/>
      <point x="144.11678832116786" y="943.8832116788321" type="curve" smooth="yes"/>
      <point x="144.11678832116786" y="848.2262773722628"/>
      <point x="225.10218978102188" y="780.2335766423357"/>
    </contour>
    <contour>
      <point x="333.08759124087595" y="351.45255474452557" type="curve"/>
      <point x="321.2554744525548" y="351.45255474452557" type="line" smooth="yes"/>
      <point x="224.43065693430657" y="351.45255474452557"/>
      <point x="156.94890510948906" y="292.45985401459853"/>
      <point x="156.94890510948906" y="199.8029197080292" type="curve" smooth="yes"/>
      <point x="156.94890510948906" y="50.81021897810219"/>
      <point x="285.3430656934307" y="51.649635036496356"/>
      <point x="285.3430656934307" y="-54.37226277372263" type="curve" smooth="yes"/>
      <point x="285.3430656934307" y="-174.029197080292"/>
      <point x="229.83941605839414" y="-339.4525547445255"/>
      <point x="160.8102189781022" y="-400.4963503649635" type="curve"/>
      <point x="160.8102189781022" y="-429.2992700729927" type="line"/>
      <point x="246.8978102189781" y="-486.9124087591241" type="line"/>
      <point x="248.89781021897812" y="-486.7445255474452" type="line"/>
      <point x="364.2773722627737" y="-427.37956204379566"/>
      <point x="527.2408759124087" y="-176.63503649635032"/>
      <point x="527.2408759124087" y="79.64963503649635" type="curve" smooth="yes"/>
      <point x="527.2408759124087" y="233.29927007299273"/>
      <point x="437.0875912408759" y="351.45255474452557"/>
    </contour>
  </outline>
</glyph>
<glyph name="less" format="2">
  <advance width="1334.6423357664235"/>
  <unicode hex="003C"/>
  <outline>
    <contour>
      <point x="1108.3211678832117" y="1101.7591240875913" type="line"/>
      <point x="162.32116788321167" y="620.2992700729927" type="line"/>
      <point x="162.32116788321167" y="505.1970802919708" type="line"/>
      <point x="1108.3211678832117" y="26.24087591240876" type="line"/>
      <point x="1108.3211678832117" y="233.24087591240874" type="line"/>
      <point x="427.59124087591243" y="563.6642335766423" type="line"/>
      <point x="1108.3211678832117" y="890.1021897810219" type="line"/>
    </contour>
  </outline>
</glyph>
<glyph name="equal" format="2">
  <advance width="1267.727272727273"/>
  <unicode hex="003D"/>
  <outline>
    <contour>
      <point x="1092.4545454545455" y="985.0" type="line"/>
      <point x="175.27272727272725" y="985.0" type="line"/>
      <point x="175.27272727272725" y="807.3636363636364" type="line"/>
      <point x="1092.4545454545455" y="807.3636363636364" type="line"/>
    </contour>
    <contour>
      <point x="1092.4545454545455" y="448.6363636363636" type="line"/>
      <point x="175.27272727272725" y="448.6363636363636" type="line"/>
      <point x="175.27272727272725" y="270.99999999999994" type="line"/>
      <point x="1092.4545454545455" y="270.99999999999994" type="line"/>
    </contour>
  </outline>
</glyph>
<glyph name="greater" format="2">
  <advance width="1334.3636363636363"/>
  <unicode hex="003E"/>
  <outline>
    <contour>
      <point x="1172.1818181818182" y="536.4545454545455" type="line"/>
      <point x="1172.1818181818182" y="650.8181818181819" type="line"/>
      <point x="226.1818181818182" y="1131.8181818181818" type="line"/>
      <point x="226.1818181818182" y="922.1818181818182" type="line"/>
      <point x="909.5454545454545" y="594.5454545454545" type="line"/>
      <point x="226.1818181818182" y="263.09090909090907" type="line"/>
      <point x="226.1818181818182" y="58.0" type="line"/>
    </contour>
  </outline>
</glyph>
<glyph name="question" format="2">
  <advance width="975.5454545454546"/>
  <unicode hex="003F"/>
  <outline>
    <contour>
      <point x="327.6363636363637" y="510.81818181818187" type="curve"/>
      <point x="496.6363636363636" y="510.81818181818187" type="line"/>
      <point x="480.6363636363636" y="598.8181818181819"/>
      <point x="475.18181818181813" y="692.9090909090909"/>
      <point x="475.18181818181813" y="768.2727272727273" type="curve" smooth="yes"/>
      <point x="473.5454545454545" y="799.3636363636364"/>
      <point x="482.18181818181813" y="825.8181818181818"/>
      <point x="490.6363636363636" y="839.3636363636364" type="curve"/>
      <point x="581.1818181818181" y="967.8181818181819"/>
      <point x="934.909090909091" y="1018.5454545454546"/>
      <point x="934.9090909090909" y="1344.0909090909088" type="curve" smooth="yes"/>
      <point x="934.909090909091" y="1582.6363636363637"/>
      <point x="771.9090909090909" y="1808.7272727272727"/>
      <point x="366.72727272727275" y="1808.7272727272727" type="curve" smooth="yes"/>
      <point x="204.72727272727272" y="1808.7272727272727"/>
      <point x="100.27272727272728" y="1775.3636363636365"/>
      <point x="50.18181818181819" y="1748.3636363636363" type="curve"/>
      <point x="91.81818181818181" y="1588.9090909090908" type="line"/>
      <point x="126.18181818181817" y="1606.7272727272725"/>
      <point x="188.63636363636363" y="1625.6363636363637"/>
      <point x="269.27272727272725" y="1625.6363636363637" type="curve" smooth="yes"/>
      <point x="505.09090909090907" y="1625.6363636363637"/>
      <point x="608.090909090909" y="1467.090909090909"/>
      <point x="608.090909090909" y="1306.8181818181818" type="curve" smooth="yes"/>
      <point x="608.090909090909" y="1197.5454545454547"/>
      <point x="554.3636363636364" y="1099.6363636363637"/>
      <point x="490.45454545454544" y="1063.2727272727275" type="curve" smooth="yes"/>
      <point x="282.00000000000006" y="949.6363636363636"/>
      <point x="228.63636363636363" y="884.0909090909091"/>
      <point x="228.8181818181818" y="785.2727272727273" type="curve"/>
      <point x="233.9090909090909" y="683.6363636363636"/>
      <point x="291.09090909090907" y="569.8181818181819"/>
    </contour>
    <contour>
      <point x="390.8181818181818" y="-16.0" type="curve" smooth="yes"/>
      <point x="509.8181818181818" y="-16.0"/>
      <point x="593.6363636363635" y="48.09090909090909"/>
      <point x="593.6363636363635" y="161.27272727272728" type="curve" smooth="yes"/>
      <point x="593.6363636363635" y="245.0"/>
      <point x="530.4545454545454" y="324.72727272727275"/>
      <point x="420.45454545454544" y="324.72727272727275" type="curve" smooth="yes"/>
      <point x="312.27272727272725" y="324.72727272727275"/>
      <point x="224.27272727272728" y="252.8181818181818"/>
      <point x="224.27272727272728" y="146.63636363636363" type="curve" smooth="yes"/>
      <point x="224.27272727272728" y="50.27272727272727"/>
      <point x="305.090909090909" y="-16.0"/>
    </contour>
  </outline>
</glyph>
<glyph name="at" format="2">
  <advance width="2149.909090909091"/>
  <unicode hex="0040"/>
  <outline>
    <contour>
      <point x="150.1818181818182" y="326.0" type="curve" smooth="yes"/>
      <point x="150.1818181818182" y="-197.45454545454544"/>
      <point x="505.3636363636363" y="-522.0"/>
      <point x="939.1818181818182" y="-522.0" type="curve" smooth="yes"/>
      <point x="1134.6363636363637" y="-522.0"/>
      <point x="1329.0" y="-467.6363636363636"/>
      <point x="1438.909090909091" y="-373.0" type="curve"/>
      <point x="1403.3636363636363" y="-289.54545454545456" type="line"/>
      <point x="1318.3636363636363" y="-345.27272727272725"/>
      <point x="1148.5454545454547" y="-384.81818181818187"/>
      <point x="995.1818181818182" y="-384.81818181818187" type="curve" smooth="yes"/>
      <point x="649.090909090909" y="-384.81818181818187"/>
      <point x="346.2727272727273" y="-129.0"/>
      <point x="346.2727272727273" y="368.90909090909093" type="curve" smooth="yes"/>
      <point x="346.2727272727273" y="954.4545454545455"/>
      <point x="678.090909090909" y="1402.3636363636365"/>
      <point x="1185.6363636363637" y="1402.3636363636365" type="curve" smooth="yes"/>
      <point x="1523.7272727272725" y="1402.3636363636365"/>
      <point x="1867.5454545454545" y="1239.909090909091"/>
      <point x="1867.5454545454545" y="727.3636363636363" type="curve" smooth="yes"/>
      <point x="1867.5454545454545" y="382.81818181818187"/>
      <point x="1690.3636363636365" y="161.81818181818184"/>
      <point x="1519.0" y="161.81818181818184" type="curve" smooth="yes"/>
      <point x="1496.0" y="161.81818181818184"/>
      <point x="1468.909090909091" y="222.27272727272728"/>
      <point x="1473.8181818181818" y="323.27272727272725" type="curve" smooth="yes"/>
      <point x="1482.8181818181818" y="524.5454545454545"/>
      <point x="1552.181818181818" y="841.0909090909091"/>
      <point x="1584.909090909091" y="979.9090909090909" type="curve"/>
      <point x="1511.2727272727275" y="1003.1818181818181"/>
      <point x="1460.2727272727273" y="1025.181818181818"/>
      <point x="1419.2727272727273" y="1034.1818181818182" type="curve" smooth="yes"/>
      <point x="1391.6363636363637" y="1039.909090909091"/>
      <point x="1364.8181818181818" y="1014.5454545454545"/>
      <point x="1355.0" y="986.3636363636364" type="curve"/>
      <point x="1285.2727272727275" y="1022.4545454545455"/>
      <point x="1201.3636363636363" y="1040.0909090909092"/>
      <point x="1131.090909090909" y="1040.0909090909092" type="curve" smooth="yes"/>
      <point x="805.6363636363636" y="1040.0909090909092"/>
      <point x="600.2727272727273" y="699.7272727272727"/>
      <point x="600.2727272727273" y="376.18181818181824" type="curve" smooth="yes"/>
      <point x="600.2727272727273" y="121.9090909090909"/>
      <point x="745.1818181818181" y="-27.363636363636367"/>
      <point x="885.7272727272727" y="-27.363636363636367" type="curve" smooth="yes"/>
      <point x="1062.181818181818" y="-27.363636363636367"/>
      <point x="1194.181818181818" y="194.0"/>
      <point x="1277.7272727272727" y="434.3636363636364" type="curve"/>
      <point x="1253.7272727272727" y="298.3636363636364"/>
      <point x="1242.1818181818182" y="210.36363636363637"/>
      <point x="1245.1818181818182" y="156.36363636363635" type="curve" smooth="yes"/>
      <point x="1251.1818181818182" y="44.36363636363637"/>
      <point x="1314.5454545454545" y="-8.0"/>
      <point x="1388.1818181818182" y="-8.0" type="curve" smooth="yes"/>
      <point x="1624.1818181818182" y="-8.0"/>
      <point x="2031.5454545454547" y="264.90909090909093"/>
      <point x="2031.5454545454547" y="802.2727272727273" type="curve" smooth="yes"/>
      <point x="2031.5454545454547" y="1266.1818181818182"/>
      <point x="1715.6363636363637" y="1556.7272727272727"/>
      <point x="1273.181818181818" y="1556.7272727272727" type="curve" smooth="yes"/>
      <point x="604.2727272727271" y="1556.7272727272727"/>
      <point x="150.1818181818182" y="1007.2727272727273"/>
    </contour>
    <contour>
      <point x="857.9090909090909" y="453.72727272727275" type="curve" smooth="yes"/>
      <point x="857.9090909090909" y="682.3636363636363"/>
      <point x="944.7272727272726" y="896.0"/>
      <point x="1100.4545454545455" y="896.0" type="curve" smooth="yes"/>
      <point x="1149.5454545454545" y="896.0"/>
      <point x="1256.6363636363637" y="854.1818181818181"/>
      <point x="1290.1818181818182" y="815.8181818181818" type="curve"/>
      <point x="1283.6363636363637" y="762.4545454545455"/>
      <point x="1256.1818181818182" y="662.8181818181819"/>
      <point x="1235.3636363636365" y="596.8181818181819" type="curve" smooth="yes"/>
      <point x="1171.2727272727273" y="393.9090909090909"/>
      <point x="1048.9090909090908" y="206.09090909090907"/>
      <point x="964.9090909090909" y="206.09090909090907" type="curve" smooth="yes"/>
      <point x="889.5454545454546" y="206.09090909090907"/>
      <point x="857.9090909090909" y="354.72727272727275"/>
    </contour>
  </outline>
</glyph>
<glyph name="A" format="2">
  <advance width="1381.8181818181818"/>
  <unicode hex="0041"/>
  <anchor x="662.2727272727273" y="0.0" name="bottom"/>
  <anchor x="1234.1818181818182" y="20.0" name="ogonek"/>
  <anchor x="698.7272727272726" y="1486.0" name="top"/>
  <outline>
    <contour>
      <point x="68.27272727272728" y="139.8181818181818" type="line"/>
      <point x="-54.27272727272728" y="114.9090909090909" type="line"/>
      <point x="-52.63636363636364" y="0.0" type="line"/>
      <point x="456.1818181818182" y="0.0" type="line"/>
      <point x="456.1818181818182" y="114.9090909090909" type="line"/>
      <point x="302.90909090909093" y="135.81818181818184" type="line"/>
      <point x="375.90909090909093" y="399.81818181818187" type="line"/>
      <point x="851.5454545454545" y="399.81818181818187" type="line"/>
      <point x="927.090909090909" y="138.27272727272728" type="line"/>
      <point x="785.090909090909" y="114.9090909090909" type="line"/>
      <point x="785.090909090909" y="0.0" type="line"/>
      <point x="1426.0000000000002" y="0.0" type="line"/>
      <point x="1426.0000000000002" y="114.9090909090909" type="line"/>
      <point x="1314.4545454545455" y="137.72727272727275" type="line"/>
      <point x="876.6363636363636" y="1491.909090909091" type="line"/>
      <point x="530.4545454545454" y="1491.909090909091" type="line"/>
    </contour>
    <contour>
      <point x="813.0" y="536.6363636363636" type="line"/>
      <point x="412.6363636363636" y="536.6363636363636" type="line"/>
      <point x="591.2727272727271" y="1132.3636363636365" type="line"/>
      <point x="622.0909090909091" y="1268.909090909091" type="line"/>
      <point x="651.9090909090909" y="1133.181818181818" type="line"/>
    </contour>
  </outline>
</glyph>
<glyph name="B" format="2">
  <advance width="1418.3941605839416"/>
  <unicode hex="0042"/>
  <anchor x="718.7591240875913" y="0.0" name="bottom"/>
  <anchor x="718.7591240875913" y="1486.0" name="top"/>
  <outline>
    <contour>
      <point x="219.40145985401458" y="140.4014598540146" type="line"/>
      <point x="68.75912408759123" y="116.05109489051095" type="line"/>
      <point x="68.75912408759123" y="0.0" type="line"/>
      <point x="392.7591240875913" y="0.0" type="line" smooth="yes"/>
      <point x="522.7591240875912" y="0.0"/>
      <point x="580.7591240875913" y="-12.0"/>
      <point x="730.7591240875912" y="-12.0" type="curve" smooth="yes"/>
      <point x="1232.7591240875915" y="-12.0"/>
      <point x="1376.7591240875913" y="192.0"/>
      <point x="1376.7591240875915" y="450.0" type="curve" smooth="yes"/>
      <point x="1376.7591240875915" y="672.0"/>
      <point x="1207.080291970803" y="794.0"/>
      <point x="946.7591240875913" y="794.0" type="curve"/>
      <point x="1132.7591240875913" y="820.0"/>
      <point x="1276.2554744525548" y="954.0000000000001"/>
      <point x="1276.2554744525548" y="1160.0" type="curve" smooth="yes"/>
      <point x="1276.2554744525548" y="1364.8102189781023"/>
      <point x="1162.7591240875913" y="1500.0"/>
      <point x="716.7883211678833" y="1500.0" type="curve" smooth="yes"/>
      <point x="610.7591240875913" y="1500.0"/>
      <point x="514.7591240875912" y="1486.0"/>
      <point x="388.7591240875912" y="1486.0" type="curve" smooth="yes"/>
      <point x="72.25547445255475" y="1486.0" type="line"/>
      <point x="72.25547445255475" y="1363.4598540145985" type="line"/>
      <point x="219.40145985401458" y="1333.7810218978102" type="line"/>
    </contour>
    <contour>
      <point x="564.116788321168" y="836.6131386861314" type="curve"/>
      <point x="564.116788321168" y="1370.2554744525546" type="line"/>
      <point x="589.7810218978102" y="1374.2554744525548"/>
      <point x="668.4233576642335" y="1380.4233576642337"/>
      <point x="698.087591240876" y="1380.4233576642337" type="curve" smooth="yes"/>
      <point x="866.07299270073" y="1380.4233576642337"/>
      <point x="932.0583941605839" y="1299.3868613138686"/>
      <point x="932.0583941605839" y="1128.182481751825" type="curve" smooth="yes"/>
      <point x="932.058394160584" y="953.3430656934307"/>
      <point x="872.0729927007299" y="832.6131386861314"/>
      <point x="717.2189781021898" y="832.6131386861314" type="curve" smooth="yes"/>
      <point x="670.8978102189782" y="832.6131386861314"/>
      <point x="599.6131386861313" y="832.6131386861314"/>
    </contour>
    <contour>
      <point x="564.116788321168" y="129.57664233576642" type="curve"/>
      <point x="564.116788321168" y="694.2262773722628" type="line"/>
      <point x="599.6131386861314" y="696.2262773722628"/>
      <point x="678.5620437956205" y="698.3941605839416"/>
      <point x="736.883211678832" y="698.3941605839416" type="curve" smooth="yes"/>
      <point x="913.5693430656934" y="698.3941605839416"/>
      <point x="995.3868613138686" y="626.3649635036497"/>
      <point x="995.3868613138687" y="428.4890510948905" type="curve" smooth="yes"/>
      <point x="995.3868613138686" y="234.61313868613138"/>
      <point x="921.4014598540147" y="113.07299270072993"/>
      <point x="717.7518248175182" y="113.07299270072993" type="curve" smooth="yes"/>
      <point x="664.4233576642335" y="113.07299270072993"/>
      <point x="593.7810218978102" y="117.4087591240876"/>
    </contour>
  </outline>
</glyph>
<glyph name="C" format="2">
  <advance width="1323.9124087591242"/>
  <unicode hex="0043"/>
  <anchor x="725.3211678832117" y="0.0" name="bottom"/>
  <anchor x="755.3211678832116" y="1486.0" name="top"/>
  <outline>
    <contour>
      <point x="733.021897810219" y="-22.0" type="curve" smooth="yes"/>
      <point x="986.5401459854014" y="-22.0"/>
      <point x="1062.8394160583941" y="44.846715328467155"/>
      <point x="1192.6350364963503" y="54.0" type="curve"/>
      <point x="1231.9635036496352" y="414.73722627737226" type="line"/>
      <point x="1047.846715328467" y="431.3941605839416" type="line"/>
      <point x="955.0218978102191" y="183.16788321167883" type="line"/>
      <point x="923.7080291970804" y="145.8029197080292"/>
      <point x="870.1751824817518" y="106.72992700729927"/>
      <point x="757.0437956204379" y="106.72992700729927" type="curve" smooth="yes"/>
      <point x="523.8540145985401" y="106.72992700729927"/>
      <point x="417.56204379562047" y="386.0"/>
      <point x="417.56204379562047" y="758.0" type="curve" smooth="yes"/>
      <point x="417.56204379562047" y="1176.7664233576643"/>
      <point x="547.021897810219" y="1374.6058394160584"/>
      <point x="746.6934306569343" y="1374.6058394160584" type="curve" smooth="yes"/>
      <point x="850.2116788321167" y="1374.6058394160584"/>
      <point x="907.3576642335767" y="1343.5547445255474"/>
      <point x="928.1751824817519" y="1313.5036496350365" type="curve"/>
      <point x="992.6569343065694" y="1006.0" type="line"/>
      <point x="1194.985401459854" y="1006.0" type="line"/>
      <point x="1224.85401459854" y="1457.8029197080293" type="line"/>
      <point x="1074.7956204379561" y="1461.131386861314"/>
      <point x="967.2043795620438" y="1502.8394160583941"/>
      <point x="760.970802919708" y="1502.8394160583941" type="curve" smooth="yes"/>
      <point x="334.2992700729927" y="1502.8394160583941"/>
      <point x="24.175182481751825" y="1210.5036496350365"/>
      <point x="24.175182481751825" y="727.3430656934306" type="curve" smooth="yes"/>
      <point x="24.175182481751825" y="274.8540145985402"/>
      <point x="255.82481751824818" y="-22.0"/>
    </contour>
  </outline>
</glyph>
<glyph name="D" format="2">
  <advance width="1517.3576642335768"/>
  <unicode hex="0044"/>
  <anchor x="762.7591240875913" y="0.0" name="bottom"/>
  <anchor x="803.6934306569343" y="764.0" name="center"/>
  <anchor x="388.0948905109489" y="763.0" name="lstem"/>
  <anchor x="762.7591240875913" y="1486.0" name="top"/>
  <outline>
    <contour>
      <point x="218.5693430656934" y="141.2408759124088" type="line"/>
      <point x="68.75912408759123" y="116.05109489051095" type="line"/>
      <point x="68.75912408759123" y="0.0" type="line"/>
      <point x="381.3576642335766" y="0.0" type="line" smooth="yes"/>
      <point x="459.3576642335766" y="0.0"/>
      <point x="601.2408759124088" y="-13.167883211678832"/>
      <point x="704.3941605839417" y="-16.0" type="curve" smooth="yes"/>
      <point x="1187.6131386861314" y="-26.000000000000004"/>
      <point x="1468.226277372263" y="321.992700729927"/>
      <point x="1468.226277372263" y="794.6642335766423" type="curve" smooth="yes"/>
      <point x="1468.226277372263" y="1234.116788321168"/>
      <point x="1243.153284671533" y="1499.0"/>
      <point x="737.0802919708028" y="1499.0" type="curve" smooth="yes"/>
      <point x="612.7591240875913" y="1499.0"/>
      <point x="506.5182481751825" y="1486.0"/>
      <point x="377.51824817518246" y="1486.0" type="curve" smooth="yes"/>
      <point x="73.9197080291971" y="1486.0" type="line"/>
      <point x="73.9197080291971" y="1364.2919708029196" type="line"/>
      <point x="218.5693430656934" y="1334.6131386861314" type="line"/>
    </contour>
    <contour>
      <point x="563.4525547445255" y="133.89781021897812" type="curve"/>
      <point x="563.4525547445255" y="1358.2627737226278" type="line"/>
      <point x="586.6131386861314" y="1360.2627737226278"/>
      <point x="630.948905109489" y="1373.2627737226278"/>
      <point x="694.9197080291972" y="1373.2627737226278" type="curve" smooth="yes"/>
      <point x="980.8832116788321" y="1373.2627737226278"/>
      <point x="1087.0072992700732" y="1116.043795620438"/>
      <point x="1087.0072992700732" y="746.6715328467152" type="curve" smooth="yes"/>
      <point x="1087.0072992700732" y="308.28467153284674"/>
      <point x="942.1970802919708" y="118.4014598540146"/>
      <point x="714.0437956204379" y="114.8978102189781" type="curve" smooth="yes"/>
      <point x="658.5766423357663" y="114.72992700729928"/>
      <point x="607.7737226277371" y="118.8978102189781"/>
    </contour>
  </outline>
</glyph>
<glyph name="E" format="2">
  <advance width="1316.818181818182"/>
  <unicode hex="0045"/>
  <anchor x="684.909090909091" y="0.0" name="bottom"/>
  <anchor x="1105.7272727272727" y="20.0" name="ogonek"/>
  <anchor x="691.0" y="1486.0" name="top"/>
  <anchor x="49.90909090909091" y="1486.0" name="topleft"/>
  <outline>
    <contour>
      <point x="219.9090909090909" y="139.36363636363637" type="line"/>
      <point x="70.36363636363636" y="114.72727272727272" type="line"/>
      <point x="70.36363636363636" y="0.0" type="line"/>
      <point x="1245.3636363636363" y="0.0" type="line"/>
      <point x="1301.090909090909" y="387.27272727272725" type="line"/>
      <point x="1130.7272727272727" y="429.8181818181818" type="line"/>
      <point x="1001.0" y="156.8181818181818" type="line"/>
      <point x="572.2727272727273" y="123.63636363636364" type="line"/>
      <point x="572.2727272727273" y="698.9999999999999" type="line"/>
      <point x="809.3636363636363" y="693.6363636363636" type="line"/>
      <point x="851.9999999999999" y="502.09090909090907" type="line"/>
      <point x="974.4545454545455" y="502.09090909090907" type="line"/>
      <point x="974.4545454545455" y="1017.6363636363636" type="line"/>
      <point x="851.9999999999999" y="1017.6363636363636" type="line"/>
      <point x="807.7272727272727" y="839.0000000000001" type="line"/>
      <point x="572.2727272727273" y="832.818181818182" type="line"/>
      <point x="572.2727272727273" y="1367.2727272727273" type="line"/>
      <point x="959.6363636363636" y="1344.0" type="line"/>
      <point x="1040.1818181818182" y="1128.4545454545453" type="line"/>
      <point x="1195.1818181818185" y="1128.4545454545453" type="line"/>
      <point x="1166.9090909090912" y="1486.0" type="line"/>
      <point x="68.0909090909091" y="1486.0" type="line"/>
      <point x="68.0909090909091" y="1365.727272727273" type="line"/>
      <point x="219.9090909090909" y="1335.9090909090908" type="line"/>
    </contour>
  </outline>
</glyph>
<glyph name="F" format="2">
  <advance width="1248.5547445255474"/>
  <unicode hex="0046"/>
  <anchor x="590.6350364963505" y="0.0" name="bottom"/>
  <anchor x="683.1459854014599" y="1486.0" name="top"/>
  <outline>
    <contour>
      <point x="224.3941605839416" y="140.23357664233578" type="line"/>
      <point x="76.24817518248173" y="116.21897810218978" type="line"/>
      <point x="76.24817518248173" y="0.0" type="line"/>
      <point x="864.0" y="0.0" type="line"/>
      <point x="864.0" y="116.21897810218978" type="line"/>
      <point x="573.7737226277372" y="140.23357664233578" type="line"/>
      <point x="573.7737226277372" y="656.0802919708029" type="line"/>
      <point x="827.5547445255474" y="648.2481751824818" type="line"/>
      <point x="875.6058394160584" y="450.4817518248175" type="line"/>
      <point x="999.3284671532847" y="450.4817518248175" type="line"/>
      <point x="999.3284671532847" y="991.5401459854015" type="line"/>
      <point x="874.9416058394161" y="991.5401459854015" type="line"/>
      <point x="827.5547445255474" y="800.7883211678832" type="line"/>
      <point x="573.7737226277372" y="794.6204379562045" type="line"/>
      <point x="573.7737226277372" y="1366.087591240876" type="line"/>
      <point x="946.5328467153284" y="1339.07299270073" type="line"/>
      <point x="1036.094890510949" y="1107.9708029197081" type="line"/>
      <point x="1208.5474452554745" y="1107.9708029197081" type="line"/>
      <point x="1186.2043795620439" y="1486.0" type="line"/>
      <point x="68.92700729927007" y="1486.0" type="line"/>
      <point x="68.92700729927007" y="1364.2919708029196" type="line"/>
      <point x="224.3941605839416" y="1334.6131386861314" type="line"/>
    </contour>
  </outline>
</glyph>
<glyph name="G" format="2">
  <advance width="1454.9090909090908"/>
  <unicode hex="0047"/>
  <anchor x="737.8181818181819" y="0.0" name="bottom"/>
  <anchor x="1245.5454545454545" y="348.27272727272725" name="rstem"/>
  <anchor x="797.8181818181819" y="1486.0" name="top"/>
  <outline>
    <contour>
      <point x="750.4545454545454" y="-22.0" type="curve" smooth="yes"/>
      <point x="1038.0000000000002" y="-22.0"/>
      <point x="1218.7272727272727" y="76.72727272727273"/>
      <point x="1340.3636363636363" y="80.0" type="curve"/>
      <point x="1340.3636363636363" y="608.7272727272726" type="line"/>
      <point x="1437.4545454545455" y="626.2727272727273" type="line"/>
      <point x="1437.4545454545455" y="753.7272727272726" type="line"/>
      <point x="819.0909090909091" y="753.7272727272726" type="line"/>
      <point x="819.0909090909091" y="626.2727272727273" type="line"/>
      <point x="1003.2727272727273" y="604.6363636363636" type="line"/>
      <point x="1003.2727272727273" y="184.0" type="line"/>
      <point x="965.0909090909091" y="134.63636363636363"/>
      <point x="878.7272727272729" y="102.27272727272727"/>
      <point x="781.0909090909091" y="102.27272727272727" type="curve" smooth="yes"/>
      <point x="539.4545454545454" y="102.27272727272727"/>
      <point x="450.18181818181824" y="385.0"/>
      <point x="450.54545454545456" y="758.0" type="curve" smooth="yes"/>
      <point x="450.90909090909093" y="1174.6363636363635"/>
      <point x="576.0" y="1384.8181818181815"/>
      <point x="801.6363636363636" y="1384.8181818181815" type="curve" smooth="yes"/>
      <point x="934.2727272727274" y="1384.8181818181815"/>
      <point x="988.0909090909091" y="1347.4545454545455"/>
      <point x="1004.6363636363635" y="1319.272727272727" type="curve"/>
      <point x="1059.9090909090908" y="1046.909090909091" type="line"/>
      <point x="1298.1818181818182" y="1046.9090909090908" type="line"/>
      <point x="1326.8181818181818" y="1441.909090909091" type="line"/>
      <point x="1234.181818181818" y="1455.0"/>
      <point x="1038.3636363636363" y="1505.3636363636363"/>
      <point x="812.5454545454545" y="1505.3636363636363" type="curve" smooth="yes"/>
      <point x="337.2727272727273" y="1505.3636363636363"/>
      <point x="46.36363636363636" y="1228.5454545454547"/>
      <point x="46.36363636363636" y="730.7272727272727" type="curve" smooth="yes"/>
      <point x="46.36363636363636" y="302.0909090909091"/>
      <point x="288.7272727272727" y="-22.0"/>
    </contour>
  </outline>
</glyph>
<glyph name="H" format="2">
  <advance width="1650.3065693430658"/>
  <unicode hex="0048"/>
  <anchor x="833.2408759124088" y="0.0" name="bottom"/>
  <anchor x="1583.2116788321166" y="0.0" name="bottomright"/>
  <anchor x="825.4014598540145" y="746.5255474452555" name="center"/>
  <anchor x="821.4014598540147" y="1486.0" name="top"/>
  <anchor x="18.656934306569344" y="1486.0" name="topleft"/>
  <outline>
    <contour>
      <point x="211.08029197080293" y="139.4014598540146" type="line"/>
      <point x="68.75912408759123" y="116.21897810218978" type="line"/>
      <point x="68.75912408759123" y="0.0" type="line"/>
      <point x="718.941605839416" y="0.0" type="line"/>
      <point x="718.941605839416" y="116.21897810218978" type="line"/>
      <point x="559.963503649635" y="139.4014598540146" type="line"/>
      <point x="559.963503649635" y="682.07299270073" type="line"/>
      <point x="1091.175182481752" y="682.07299270073" type="line"/>
      <point x="1091.175182481752" y="140.23357664233578" type="line"/>
      <point x="939.1897810218978" y="116.21897810218978" type="line"/>
      <point x="939.1897810218978" y="0.0" type="line"/>
      <point x="1581.5474452554745" y="0.0" type="line"/>
      <point x="1581.5474452554745" y="116.21897810218978" type="line"/>
      <point x="1439.2262773722628" y="139.4014598540146" type="line"/>
      <point x="1439.2262773722628" y="1335.4452554744526" type="line"/>
      <point x="1579.5474452554745" y="1364.2919708029196" type="line"/>
      <point x="1579.5474452554745" y="1486.0" type="line"/>
      <point x="939.1897810218978" y="1486.0" type="line"/>
      <point x="939.1897810218978" y="1364.2919708029196" type="line"/>
      <point x="1091.175182481752" y="1334.6131386861314" type="line"/>
      <point x="1091.175182481752" y="833.7810218978102" type="line"/>
      <point x="559.963503649635" y="833.7810218978102" type="line"/>
      <point x="559.963503649635" y="1335.4452554744526" type="line"/>
      <point x="717.941605839416" y="1364.2919708029196" type="line"/>
      <point x="717.941605839416" y="1486.0" type="line"/>
      <point x="69.75912408759125" y="1486.0" type="line"/>
      <point x="69.75912408759125" y="1364.2919708029196" type="line"/>
      <point x="211.08029197080293" y="1335.4452554744526" type="line"/>
    </contour>
  </outline>
</glyph>
<glyph name="I" format="2">
  <advance width="812.5255474452555"/>
  <unicode hex="0049"/>
  <anchor x="405.2554744525548" y="2.842170943040401e-14" name="bottom"/>
  <anchor x="476.8394160583942" y="20.0" name="ogonek"/>
  <anchor x="405.2554744525548" y="1486.0" name="top"/>
  <anchor x="37.33576642335766" y="1486.0" name="topleft"/>
  <outline>
    <contour>
      <point x="229.24087591240874" y="140.23357664233578" type="line"/>
      <point x="71.0948905109489" y="116.2189781021898" type="line"/>
      <point x="71.0948905109489" y="0.0" type="line"/>
      <point x="743.0948905109489" y="0.0" type="line"/>
      <point x="743.0948905109489" y="114.55474452554746" type="line"/>
      <point x="579.1240875912408" y="139.4014598540146" type="line"/>
      <point x="579.1240875912408" y="1334.6131386861314" type="line"/>
      <point x="742.92700729927" y="1364.2919708029196" type="line"/>
      <point x="742.92700729927" y="1486.0" type="line"/>
      <point x="69.59854014598541" y="1486.0" type="line"/>
      <point x="69.59854014598541" y="1364.2919708029196" type="line"/>
      <point x="229.24087591240874" y="1334.6131386861314" type="line"/>
    </contour>
  </outline>
</glyph>
<glyph name="J" format="2">
  <advance width="810.9090909090909"/>
  <unicode hex="004A"/>
  <anchor x="400.0909090909091" y="1486.0" name="top"/>
  <outline>
    <contour>
      <point x="-45.18181818181819" y="-281.72727272727275" type="curve"/>
      <point x="23.636363636363633" y="-387.0" type="line"/>
      <point x="304.909090909091" y="-344.72727272727275"/>
      <point x="488.90909090909093" y="-186.0"/>
      <point x="549.818181818182" y="29.0" type="curve" smooth="yes"/>
      <point x="576.0000000000001" y="122.0"/>
      <point x="578.8181818181819" y="298.0"/>
      <point x="578.8181818181819" y="550.0" type="curve" smooth="yes"/>
      <point x="578.8181818181819" y="1336.7272727272727" type="line"/>
      <point x="734.5454545454545" y="1365.7272727272727" type="line"/>
      <point x="734.5454545454545" y="1486.0" type="line"/>
      <point x="64.27272727272728" y="1486.0" type="line"/>
      <point x="64.27272727272728" y="1365.7272727272727" type="line"/>
      <point x="230.18181818181816" y="1335.090909090909" type="line"/>
      <point x="230.18181818181816" y="370.3636363636364" type="line" smooth="yes"/>
      <point x="230.18181818181816" y="159.36363636363637"/>
      <point x="215.1818181818182" y="52.18181818181819"/>
      <point x="188.18181818181816" y="-27.81818181818182" type="curve" smooth="yes"/>
      <point x="140.1818181818182" y="-170.8181818181818"/>
      <point x="48.90909090909091" y="-247.54545454545453"/>
    </contour>
  </outline>
</glyph>
<glyph name="K" format="2">
  <advance width="1512.4545454545453"/>
  <unicode hex="004B"/>
  <anchor x="839.1818181818182" y="0.0" name="bottom"/>
  <anchor x="820.1818181818182" y="1483.0" name="top"/>
  <outline>
    <contour>
      <point x="1105.0909090909092" y="0.0" type="curve"/>
      <point x="1521.6363636363635" y="0.18181818181818182" type="line"/>
      <point x="1521.6363636363635" y="114.27272727272728" type="line"/>
      <point x="1432.8181818181818" y="137.1818181818182" type="line"/>
      <point x="1340.090909090909" y="208.1818181818182"/>
      <point x="1050.2727272727275" y="881.6363636363635"/>
      <point x="874.4545454545455" y="961.4545454545455" type="curve"/>
      <point x="823.4545454545456" y="809.6363636363636" type="line"/>
      <point x="1278.9090909090908" y="1336.1818181818182" type="line"/>
      <point x="1454.3636363636365" y="1366.0" type="line"/>
      <point x="1454.3636363636365" y="1486.1818181818182" type="line"/>
      <point x="902.8181818181818" y="1486.0" type="line"/>
      <point x="902.8181818181818" y="1365.5454545454545" type="line"/>
      <point x="1069.636363636364" y="1335.909090909091" type="line"/>
      <point x="476.2727272727273" y="567.2727272727273" type="line"/>
      <point x="566.9090909090909" y="558.0" type="line"/>
      <point x="566.9090909090909" y="1335.909090909091" type="line"/>
      <point x="714.0" y="1365.7272727272727" type="line"/>
      <point x="714.0" y="1486.0" type="line"/>
      <point x="68.90909090909092" y="1486.0" type="line"/>
      <point x="68.90909090909092" y="1365.7272727272727" type="line"/>
      <point x="218.27272727272728" y="1335.909090909091" type="line"/>
      <point x="218.27272727272728" y="138.9090909090909" type="line"/>
      <point x="67.90909090909092" y="114.90909090909092" type="line"/>
      <point x="67.90909090909092" y="0.0" type="line"/>
      <point x="728.7272727272727" y="0.0" type="line"/>
      <point x="728.7272727272727" y="114.0909090909091" type="line"/>
      <point x="566.9090909090909" y="138.0909090909091" type="line"/>
      <point x="566.9090909090909" y="626.5454545454546" type="line"/>
      <point x="471.27272727272725" y="385.09090909090907" type="line"/>
      <point x="813.5454545454546" y="792.8181818181818" type="line"/>
      <point x="672.7272727272727" y="728.0909090909091" type="line"/>
      <point x="811.2727272727273" y="616.090909090909"/>
      <point x="1017.9090909090909" y="0.0"/>
    </contour>
  </outline>
</glyph>
<glyph name="L" format="2">
  <advance width="1274.2262773722628"/>
  <unicode hex="004C"/>
  <anchor x="676.3211678832117" y="0.0" name="bottom"/>
  <anchor x="647.3211678832117" y="744.0" name="center"/>
  <anchor x="414.3211678832117" y="1486.0" name="top"/>
  <anchor x="968.6058394160584" y="1111.8321167883212" name="topright"/>
  <outline>
    <contour>
      <point x="217.7372262773723" y="140.40875912408762" type="line"/>
      <point x="68.75912408759123" y="116.05109489051095" type="line"/>
      <point x="68.75912408759123" y="0.0" type="line"/>
      <point x="1195.5620437956204" y="0.0" type="line"/>
      <point x="1255.0729927007299" y="529.029197080292" type="line"/>
      <point x="1070.094890510949" y="551.8540145985401" type="line"/>
      <point x="935.4014598540147" y="166.5985401459854" type="line"/>
      <point x="567.116788321168" y="139.71532846715328" type="line"/>
      <point x="567.1167883211679" y="1334.6131386861314" type="line"/>
      <point x="752.2481751824818" y="1364.2919708029196" type="line"/>
      <point x="752.2481751824818" y="1486.0" type="line"/>
      <point x="70.5912408759124" y="1486.0" type="line"/>
      <point x="70.5912408759124" y="1364.2919708029196" type="line"/>
      <point x="217.7372262773723" y="1334.6131386861314" type="line"/>
    </contour>
  </outline>
</glyph>
<glyph name="M" format="2">
  <advance width="2032.2481751824816"/>
  <unicode hex="004D"/>
  <anchor x="1011.8175182481751" y="0.0" name="bottom"/>
  <anchor x="2039.3065693430656" y="0.0" name="bottomright"/>
  <anchor x="1018.3649635036497" y="1486.0" name="top"/>
  <outline>
    <contour>
      <point x="154.1021897810219" y="139.23357664233575" type="line"/>
      <point x="-4.226277372262773" y="115.88321167883211" type="line"/>
      <point x="-4.226277372262773" y="0.0" type="line"/>
      <point x="536.2627737226277" y="0.0" type="line"/>
      <point x="536.2627737226277" y="115.88321167883211" type="line"/>
      <point x="343.4671532846715" y="140.06569343065692" type="line"/>
      <point x="433.30656934306563" y="1021.0364963503649" type="line"/>
      <point x="468.8029197080292" y="1368.3211678832117" type="line"/>
      <point x="551.4598540145986" y="1025.3649635036495" type="line"/>
      <point x="810.2481751824818" y="57.0" type="line"/>
      <point x="1085.6788321167883" y="57.0" type="line"/>
      <point x="1339.9124087591242" y="1047.6642335766423" type="line"/>
      <point x="1408.7372262773722" y="1367.4890510948906" type="line"/>
      <point x="1444.2408759124087" y="1020.7007299270073" type="line"/>
      <point x="1526.094890510949" y="140.23357664233575" type="line"/>
      <point x="1360.2919708029196" y="116.21897810218978" type="line"/>
      <point x="1360.2919708029196" y="0.0" type="line"/>
      <point x="2036.4744525547444" y="0.0" type="line"/>
      <point x="2036.4744525547444" y="115.88321167883211" type="line"/>
      <point x="1884.4890510948906" y="141.06569343065692" type="line"/>
      <point x="1727.0" y="1334.7810218978102" type="line"/>
      <point x="1937.5912408759125" y="1364.4598540145985" type="line"/>
      <point x="1937.5912408759125" y="1486.0" type="line"/>
      <point x="1276.6934306569344" y="1486.0" type="line"/>
      <point x="1068.2262773722625" y="627.3430656934306" type="line"/>
      <point x="1026.3941605839416" y="403.4890510948905" type="line"/>
      <point x="981.065693430657" y="626.6715328467153" type="line"/>
      <point x="784.051094890511" y="1486.0" type="line"/>
      <point x="109.67883211678831" y="1486.0" type="line"/>
      <point x="109.67883211678831" y="1364.4598540145985" type="line"/>
      <point x="316.10218978102193" y="1334.7810218978102" type="line"/>
    </contour>
  </outline>
</glyph>
<glyph name="N" format="2">
  <advance width="1552.7272727272727"/>
  <unicode hex="004E"/>
  <anchor x="793.9090909090909" y="0.0" name="bottom"/>
  <anchor x="794.0" y="1486.0" name="top"/>
  <outline>
    <contour>
      <point x="211.45454545454544" y="142.45454545454544" type="line"/>
      <point x="52.45454545454545" y="114.54545454545455" type="line"/>
      <point x="52.45454545454545" y="0.0" type="line"/>
      <point x="584.7272727272727" y="0.0" type="line"/>
      <point x="584.7272727272727" y="114.54545454545455" type="line"/>
      <point x="379.3636363636364" y="143.27272727272728" type="line"/>
      <point x="379.7272727272727" y="1174.909090909091" type="line"/>
      <point x="503.45454545454544" y="930.0909090909092" type="line"/>
      <point x="1098.1818181818182" y="0.0" type="line"/>
      <point x="1382.2727272727275" y="0.0" type="line"/>
      <point x="1382.2727272727275" y="1333.090909090909" type="line"/>
      <point x="1536.0909090909092" y="1365.727272727273" type="line"/>
      <point x="1536.0909090909092" y="1486.0" type="line"/>
      <point x="1042.272727272727" y="1486.0" type="line"/>
      <point x="1042.272727272727" y="1365.727272727273" type="line"/>
      <point x="1213.5454545454545" y="1333.090909090909" type="line"/>
      <point x="1213.7272727272727" y="395.45454545454544" type="line"/>
      <point x="1101.2727272727277" y="627.6363636363636" type="line"/>
      <point x="559.3636363636364" y="1486.0" type="line"/>
      <point x="53.0" y="1486.0" type="line"/>
      <point x="53.0" y="1362.4545454545455" type="line"/>
      <point x="106.8181818181818" y="1355.090909090909"/>
      <point x="168.00000000000003" y="1324.4545454545455"/>
      <point x="211.8181818181818" y="1305.6363636363635" type="curve"/>
    </contour>
  </outline>
</glyph>
<glyph name="O" format="2">
  <advance width="1452.5454545454545"/>
  <unicode hex="004F"/>
  <anchor x="732.9090909090909" y="1.7763568394002505e-15" name="bottom"/>
  <anchor x="728.0909090909091" y="741.0" name="center"/>
  <anchor x="812.909090909091" y="20.0" name="ogonek"/>
  <anchor x="877.0522727272728" y="0.0" name="qq"/>
  <anchor x="736.7272727272727" y="1486.0" name="top"/>
  <anchor x="40.90909090909091" y="1486.0" name="topleft"/>
  <anchor x="1140.909090909091" y="1486.0" name="topright"/>
  <outline>
    <contour>
      <point x="716.9090909090909" y="-22.727272727272727" type="curve" smooth="yes"/>
      <point x="1145.090909090909" y="-20.272727272727273"/>
      <point x="1404.4545454545455" y="305.3636363636363"/>
      <point x="1404.4545454545455" y="768.3636363636364" type="curve" smooth="yes"/>
      <point x="1404.4545454545455" y="1214.7272727272727"/>
      <point x="1209.9090909090908" y="1503.5454545454545"/>
      <point x="739.1818181818181" y="1505.1818181818182" type="curve" smooth="yes"/>
      <point x="308.6363636363636" y="1506.0"/>
      <point x="48.090909090909086" y="1198.0909090909092"/>
      <point x="48.090909090909086" y="737.0000000000001" type="curve" smooth="yes"/>
      <point x="48.090909090909086" y="284.45454545454544"/>
      <point x="244.45454545454547" y="-26.0"/>
    </contour>
    <contour>
      <point x="727.6363636363636" y="1387.0" type="curve" smooth="yes"/>
      <point x="914.3636363636364" y="1387.0"/>
      <point x="1019.5454545454546" y="1200.4545454545455"/>
      <point x="1019.5454545454546" y="766.7272727272727" type="curve" smooth="yes"/>
      <point x="1019.5454545454546" y="327.5454545454545"/>
      <point x="909.1818181818182" y="97.0909090909091"/>
      <point x="724.8181818181818" y="97.0909090909091" type="curve" smooth="yes"/>
      <point x="538.0000000000001" y="97.0909090909091"/>
      <point x="432.1818181818182" y="305.0909090909091"/>
      <point x="432.1818181818182" y="737.8181818181819" type="curve" smooth="yes"/>
      <point x="432.1818181818182" y="1176.0"/>
      <point x="542.1818181818182" y="1387.0"/>
    </contour>
  </outline>
</glyph>
<glyph name="P" format="2">
  <advance width="1339.7272727272727"/>
  <unicode hex="0050"/>
  <anchor x="475.90909090909093" y="0.0" name="bottom"/>
  <anchor x="741.9090909090909" y="1486.0" name="top"/>
  <outline>
    <contour>
      <point x="216.63636363636363" y="138.45454545454547" type="line"/>
      <point x="67.90909090909092" y="114.72727272727272" type="line"/>
      <point x="67.90909090909092" y="0.0" type="line"/>
      <point x="812.4545454545455" y="0.0" type="line"/>
      <point x="812.4545454545455" y="114.9090909090909" type="line"/>
      <point x="566.0000000000001" y="138.27272727272728" type="line"/>
      <point x="566.1818181818182" y="517.6363636363636" type="line"/>
      <point x="583.1818181818181" y="515.6363636363636"/>
      <point x="647.3636363636364" y="511.4545454545454"/>
      <point x="704.3636363636363" y="511.45454545454544" type="curve" smooth="yes"/>
      <point x="1088.7272727272727" y="511.4545454545454"/>
      <point x="1301.4545454545457" y="706.090909090909"/>
      <point x="1301.4545454545457" y="1046.9090909090908" type="curve" smooth="yes"/>
      <point x="1301.4545454545457" y="1335.3636363636363"/>
      <point x="1169.2727272727273" y="1496.7272727272727"/>
      <point x="737.5454545454545" y="1497.0" type="curve" smooth="yes"/>
      <point x="583.5454545454546" y="1498.4545454545455"/>
      <point x="489.2727272727273" y="1486.0"/>
      <point x="398.2727272727273" y="1486.0" type="curve" smooth="yes"/>
      <point x="73.0" y="1486.0" type="line"/>
      <point x="73.0" y="1365.7272727272727" type="line"/>
      <point x="216.63636363636363" y="1335.909090909091" type="line"/>
    </contour>
    <contour>
      <point x="565.1818181818182" y="643.0909090909091" type="curve"/>
      <point x="565.1818181818182" y="1366.1818181818182" type="line"/>
      <point x="596.1818181818181" y="1371.181818181818"/>
      <point x="622.1818181818182" y="1378.1818181818182"/>
      <point x="691.5454545454546" y="1378.1818181818182" type="curve" smooth="yes"/>
      <point x="862.3636363636364" y="1378.1818181818182"/>
      <point x="941.4545454545454" y="1263.909090909091"/>
      <point x="941.4545454545454" y="1039.9090909090908" type="curve" smooth="yes"/>
      <point x="941.4545454545454" y="734.7272727272726"/>
      <point x="832.2727272727271" y="634.090909090909"/>
      <point x="690.9090909090909" y="634.090909090909" type="curve" smooth="yes"/>
      <point x="629.2727272727273" y="634.090909090909"/>
      <point x="588.1818181818181" y="637.090909090909"/>
    </contour>
  </outline>
</glyph>
<glyph name="R" format="2">
  <advance width="1460.2727272727273"/>
  <unicode hex="0052"/>
  <anchor x="814.9090909090909" y="0.0" name="bottom"/>
  <anchor x="730.9090909090909" y="1486.0" name="top"/>
  <outline>
    <contour>
      <point x="67.90909090909092" y="0.0" type="line"/>
      <point x="730.1818181818181" y="0.0" type="line"/>
      <point x="730.1818181818181" y="114.9090909090909" type="line"/>
      <point x="559.0" y="138.27272727272728" type="line"/>
      <point x="559.0" y="632.0" type="line"/>
      <point x="604.0000000000001" y="632.0"/>
      <point x="680.2727272727273" y="632.0"/>
      <point x="732.2727272727271" y="632.0" type="curve"/>
      <point x="883.2727272727274" y="577.0"/>
      <point x="976.4545454545454" y="0.0"/>
      <point x="1075.4545454545455" y="0.0" type="curve" smooth="yes"/>
      <point x="1462.2727272727273" y="0.0" type="line"/>
      <point x="1462.2727272727273" y="114.0909090909091" type="line"/>
      <point x="1406.0909090909092" y="133.0909090909091" type="line"/>
      <point x="1315.2727272727273" y="158.1818181818182"/>
      <point x="1243.7272727272727" y="605.909090909091"/>
      <point x="1003.4545454545454" y="687.0" type="curve"/>
      <point x="1202.4545454545455" y="748.0000000000001"/>
      <point x="1289.2727272727273" y="938.0"/>
      <point x="1289.2727272727273" y="1101.0" type="curve" smooth="yes"/>
      <point x="1289.2727272727273" y="1376.818181818182"/>
      <point x="1137.2727272727273" y="1499.0"/>
      <point x="713.4545454545455" y="1499.0" type="curve" smooth="yes"/>
      <point x="580.1818181818182" y="1499.0"/>
      <point x="501.09090909090907" y="1486.0"/>
      <point x="375.09090909090907" y="1486.0" type="curve" smooth="yes"/>
      <point x="70.54545454545453" y="1486.0" type="line"/>
      <point x="70.54545454545453" y="1366.5454545454545" type="line"/>
      <point x="210.9090909090909" y="1335.909090909091" type="line"/>
      <point x="210.9090909090909" y="138.45454545454547" type="line"/>
      <point x="67.90909090909092" y="114.72727272727272" type="line"/>
    </contour>
    <contour>
      <point x="707.2727272727273" y="749.6363636363636" type="curve" smooth="yes"/>
      <point x="677.4545454545455" y="749.6363636363636"/>
      <point x="588.8181818181819" y="747.6363636363636"/>
      <point x="559.0" y="754.6363636363636" type="curve"/>
      <point x="559.0" y="1370.2727272727273" type="line"/>
      <point x="586.8181818181819" y="1374.2727272727273"/>
      <point x="620.8181818181818" y="1379.8181818181818"/>
      <point x="677.7272727272726" y="1379.8181818181818" type="curve" smooth="yes"/>
      <point x="858.2727272727273" y="1379.8181818181818"/>
      <point x="924.909090909091" y="1280.4545454545455"/>
      <point x="924.909090909091" y="1089.0" type="curve" smooth="yes"/>
      <point x="924.909090909091" y="864.0"/>
      <point x="842.3636363636364" y="749.6363636363636"/>
    </contour>
  </outline>
</glyph>
<glyph name="S" format="2">
  <advance width="1213.7272727272727"/>
  <unicode hex="0053"/>
  <anchor x="594.4545454545455" y="0.0" name="bottom"/>
  <anchor x="659.7272727272727" y="1486.0" name="top"/>
  <outline>
    <contour>
      <point x="580.6363636363636" y="-22.0" type="curve" smooth="yes"/>
      <point x="1026.6363636363637" y="-22.0"/>
      <point x="1168.090909090909" y="216.36363636363637"/>
      <point x="1168.2727272727273" y="426.0" type="curve" smooth="yes"/>
      <point x="1168.4545454545455" y="668.1818181818181"/>
      <point x="949.6363636363636" y="789.7272727272726"/>
      <point x="787.8181818181816" y="869.0" type="curve" smooth="yes"/>
      <point x="602.090909090909" y="963.1818181818181"/>
      <point x="431.0909090909091" y="1036.1818181818182"/>
      <point x="431.0909090909091" y="1200.0000000000002" type="curve" smooth="yes"/>
      <point x="431.0909090909091" y="1298.6363636363637"/>
      <point x="494.0909090909091" y="1385.181818181818"/>
      <point x="652.0909090909091" y="1385.5454545454545" type="curve" smooth="yes"/>
      <point x="743.6363636363636" y="1385.7272727272727"/>
      <point x="812.6363636363636" y="1356.0"/>
      <point x="828.6363636363636" y="1333.3636363636363" type="curve"/>
      <point x="873.6363636363636" y="1078.0" type="line"/>
      <point x="1055.6363636363637" y="1078.0" type="line"/>
      <point x="1073.4545454545453" y="1434.0" type="line"/>
      <point x="1013.8181818181819" y="1439.0000000000002"/>
      <point x="884.5454545454545" y="1505.909090909091"/>
      <point x="653.5454545454545" y="1505.909090909091" type="curve" smooth="yes"/>
      <point x="286.2727272727272" y="1505.909090909091"/>
      <point x="107.45454545454545" y="1308.5454545454545"/>
      <point x="107.45454545454545" y="1095.4545454545453" type="curve" smooth="yes"/>
      <point x="107.45454545454545" y="817.5454545454546"/>
      <point x="331.45454545454544" y="692.4545454545454"/>
      <point x="486.27272727272725" y="617.8181818181819" type="curve" smooth="yes"/>
      <point x="690.0" y="519.9090909090909"/>
      <point x="829.909090909091" y="445.6363636363636"/>
      <point x="829.909090909091" y="306.18181818181813" type="curve" smooth="yes"/>
      <point x="829.909090909091" y="186.45454545454544"/>
      <point x="754.7272727272726" y="100.09090909090908"/>
      <point x="577.5454545454545" y="100.45454545454544" type="curve" smooth="yes"/>
      <point x="461.6363636363637" y="100.63636363636363"/>
      <point x="382.72727272727275" y="141.36363636363637"/>
      <point x="355.72727272727275" y="175.54545454545456" type="curve"/>
      <point x="306.72727272727275" y="439.0" type="line"/>
      <point x="119.54545454545455" y="439.0" type="line"/>
      <point x="97.45454545454545" y="65.99999999999999" type="line"/>
      <point x="167.54545454545456" y="61.0"/>
      <point x="336.8181818181818" y="-22.0"/>
    </contour>
  </outline>
</glyph>
<glyph name="T" format="2">
  <advance width="1453.8181818181818"/>
  <unicode hex="0054"/>
  <anchor x="729.6363636363636" y="0.0" name="bottom"/>
  <anchor x="1163.2727272727273" y="0.0" name="bottomright"/>
  <anchor x="728.5454545454545" y="651.2727272727274" name="center"/>
  <anchor x="728.4545454545454" y="1486.0" name="top"/>
  <outline>
    <contour>
      <point x="550.6363636363636" y="139.27272727272728" type="line"/>
      <point x="292.3636363636363" y="114.9090909090909" type="line"/>
      <point x="292.3636363636363" y="0.0" type="line"/>
      <point x="1161.4545454545453" y="0.0" type="line"/>
      <point x="1161.4545454545453" y="114.9090909090909" type="line"/>
      <point x="903.1818181818181" y="139.27272727272728" type="line"/>
      <point x="903.1818181818181" y="1356.0" type="line"/>
      <point x="1133.2727272727273" y="1344.5454545454545" type="line"/>
      <point x="1238.0000000000002" y="889.6363636363636" type="line"/>
      <point x="1413.0909090909092" y="889.6363636363636" type="line"/>
      <point x="1381.090909090909" y="1486.0" type="line"/>
      <point x="72.72727272727272" y="1486.0" type="line"/>
      <point x="40.72727272727273" y="889.6363636363636" type="line"/>
      <point x="215.45454545454547" y="889.6363636363636" type="line"/>
      <point x="322.3636363636363" y="1344.5454545454545" type="line"/>
      <point x="550.6363636363636" y="1356.0" type="line"/>
    </contour>
  </outline>
</glyph>
<glyph name="U" format="2">
  <advance width="1466.8394160583941"/>
  <unicode hex="0055"/>
  <anchor x="799.963503649635" y="0.0" name="bottom"/>
  <anchor x="861.2846715328467" y="20.0" name="ogonek"/>
  <anchor x="804.6058394160583" y="1486.0" name="top"/>
  <anchor x="1449.0" y="1486.0" name="topright"/>
  <outline>
    <contour>
      <point x="771.1459854014598" y="-16.0" type="curve" smooth="yes"/>
      <point x="1082.85401459854" y="-16.0"/>
      <point x="1320.8394160583944" y="151.2919708029197"/>
      <point x="1320.8394160583941" y="584.7883211678832" type="curve" smooth="yes"/>
      <point x="1320.8394160583941" y="1334.6131386861314" type="line"/>
      <point x="1451.8394160583944" y="1364.2919708029196" type="line"/>
      <point x="1451.8394160583944" y="1486.0" type="line"/>
      <point x="960.051094890511" y="1486.0" type="line"/>
      <point x="960.051094890511" y="1364.2919708029196" type="line"/>
      <point x="1129.3503649635036" y="1333.7810218978102" type="line"/>
      <point x="1129.3503649635036" y="568.978102189781" type="line" smooth="yes"/>
      <point x="1129.3503649635036" y="290.7080291970803"/>
      <point x="1031.2554744525546" y="108.22627737226277"/>
      <point x="817.7883211678833" y="108.22627737226277" type="curve" smooth="yes"/>
      <point x="612.1970802919707" y="108.22627737226277"/>
      <point x="515.5328467153284" y="260.66423357664235"/>
      <point x="515.5328467153284" y="553.6642335766423" type="curve" smooth="yes"/>
      <point x="515.5328467153284" y="1332.1167883211679" type="line"/>
      <point x="678.6715328467153" y="1364.2919708029196" type="line"/>
      <point x="678.6715328467153" y="1486.0" type="line"/>
      <point x="29.985401459854014" y="1486.0" type="line"/>
      <point x="29.985401459854014" y="1364.2919708029196" type="line"/>
      <point x="156.32846715328466" y="1334.6131386861314" type="line"/>
      <point x="156.32846715328466" y="590.8978102189781" type="line" smooth="yes"/>
      <point x="156.32846715328466" y="164.2919708029197"/>
      <point x="365.3284671532847" y="-16.0"/>
    </contour>
  </outline>
</glyph>
<glyph name="V" format="2">
  <advance width="1377.2727272727273"/>
  <unicode hex="0056"/>
  <outline>
    <contour>
      <point x="-39.54545454545454" y="1366.090909090909" type="line"/>
      <point x="75.72727272727273" y="1336.8181818181818" type="line"/>
      <point x="571.909090909091" y="-12.272727272727273" type="line"/>
      <point x="844.090909090909" y="-12.272727272727273" type="line"/>
      <point x="1298.8181818181818" y="1336.8181818181818" type="line"/>
      <point x="1428.1818181818182" y="1366.090909090909" type="line"/>
      <point x="1428.1818181818182" y="1486.0" type="line"/>
      <point x="943.5454545454545" y="1486.0" type="line"/>
      <point x="943.5454545454545" y="1366.090909090909" type="line"/>
      <point x="1097.4545454545455" y="1336.8181818181818" type="line"/>
      <point x="824.2727272727271" y="443.09090909090907" type="line"/>
      <point x="784.7272727272727" y="277.90909090909093" type="line"/>
      <point x="739.8181818181818" y="443.0" type="line"/>
      <point x="457.0909090909091" y="1337.6363636363635" type="line"/>
      <point x="619.0909090909091" y="1366.090909090909" type="line"/>
      <point x="619.0909090909091" y="1486.0" type="line"/>
      <point x="-39.54545454545454" y="1486.0" type="line"/>
    </contour>
  </outline>
</glyph>
<glyph name="W" format="2">
  <advance width="2014.2727272727273"/>
  <unicode hex="0057"/>
  <anchor x="1023.8181818181818" y="0.0" name="bottom"/>
  <anchor x="1046.6363636363637" y="1486.0" name="top"/>
  <outline>
    <contour>
      <point x="-39.45454545454546" y="1366.0909090909092" type="line"/>
      <point x="76.27272727272728" y="1336.0" type="line"/>
      <point x="475.27272727272725" y="-8.18181818181818" type="line"/>
      <point x="771.909090909091" y="-8.18181818181818" type="line"/>
      <point x="1014.0909090909091" y="877.3636363636363" type="line"/>
      <point x="1264.727272727273" y="-8.18181818181818" type="line"/>
      <point x="1565.3636363636365" y="-8.18181818181818" type="line"/>
      <point x="1929.5454545454545" y="1337.0" type="line"/>
      <point x="2052.9090909090905" y="1366.090909090909" type="line"/>
      <point x="2052.9090909090905" y="1486.0" type="line"/>
      <point x="1591.7272727272725" y="1486.0" type="line"/>
      <point x="1591.7272727272725" y="1366.090909090909" type="line"/>
      <point x="1757.1818181818182" y="1337.0" type="line"/>
      <point x="1542.0" y="437.7272727272727" type="line"/>
      <point x="1507.5454545454545" y="236.90909090909093" type="line"/>
      <point x="1463.7272727272725" y="437.72727272727275" type="line"/>
      <point x="1230.5454545454545" y="1337.0" type="line"/>
      <point x="1406.727272727273" y="1366.090909090909" type="line"/>
      <point x="1406.727272727273" y="1486.0" type="line"/>
      <point x="752.4545454545455" y="1486.0" type="line"/>
      <point x="752.4545454545455" y="1366.090909090909" type="line"/>
      <point x="871.8181818181818" y="1337.0" type="line"/>
      <point x="938.8181818181818" y="1120.7272727272727" type="line"/>
      <point x="746.0" y="437.7272727272727" type="line"/>
      <point x="709.5454545454546" y="250.8181818181818" type="line"/>
      <point x="671.3636363636364" y="437.72727272727275" type="line"/>
      <point x="436.54545454545456" y="1337.0" type="line"/>
      <point x="592.6363636363636" y="1366.0909090909092" type="line"/>
      <point x="592.6363636363636" y="1486.0" type="line"/>
      <point x="-39.45454545454546" y="1486.0" type="line"/>
    </contour>
  </outline>
</glyph>
<glyph name="X" format="2">
  <advance width="1462.6363636363635"/>
  <unicode hex="0058"/>
  <anchor x="1451.6363636363635" y="0.0" name="bottomright"/>
  <outline>
    <contour>
      <point x="187.63636363636365" y="138.0909090909091" type="line"/>
      <point x="12.818181818181818" y="114.9090909090909" type="line"/>
      <point x="12.818181818181818" y="0.0" type="line"/>
      <point x="565.8181818181818" y="0.0" type="line"/>
      <point x="565.8181818181818" y="114.9090909090909" type="line"/>
      <point x="375.2727272727273" y="138.0909090909091" type="line"/>
      <point x="640.8181818181819" y="605.2727272727273" type="line"/>
      <point x="914.3636363636364" y="139.0909090909091" type="line"/>
      <point x="758.3636363636363" y="114.9090909090909" type="line"/>
      <point x="758.3636363636363" y="0.0" type="line"/>
      <point x="1449.8181818181818" y="0.0" type="line"/>
      <point x="1449.818181818182" y="114.9090909090909" type="line"/>
      <point x="1317.818181818182" y="139.0909090909091" type="line"/>
      <point x="887.4545454545455" y="805.9090909090909" type="line"/>
      <point x="1260.3636363636365" y="1335.090909090909" type="line"/>
      <point x="1428.8181818181818" y="1365.7272727272727" type="line"/>
      <point x="1428.8181818181818" y="1486.0" type="line"/>
      <point x="901.8181818181819" y="1486.0" type="line"/>
      <point x="901.8181818181819" y="1365.7272727272727" type="line"/>
      <point x="1077.8181818181818" y="1336.090909090909" type="line"/>
      <point x="815.4545454545455" y="898.4545454545455" type="line"/>
      <point x="562.2727272727271" y="1334.090909090909" type="line"/>
      <point x="719.2727272727273" y="1365.7272727272727" type="line"/>
      <point x="719.2727272727273" y="1486.0" type="line"/>
      <point x="24.818181818181817" y="1486.0" type="line"/>
      <point x="24.818181818181817" y="1365.7272727272727" type="line"/>
      <point x="156.8181818181818" y="1335.090909090909" type="line"/>
      <point x="564.7272727272726" y="703.0" type="line"/>
    </contour>
  </outline>
</glyph>
<glyph name="Y" format="2">
  <advance width="1303.181818181818"/>
  <unicode hex="0059"/>
  <anchor x="652.5454545454545" y="0.0" name="bottom"/>
  <anchor x="655.5319090909092" y="547.0" name="center"/>
  <anchor x="689.090909090909" y="1486.0" name="top"/>
  <anchor x="35.09090909090908" y="1486.0" name="topleft"/>
  <outline>
    <contour>
      <point x="466.1818181818182" y="139.0909090909091" type="line"/>
      <point x="265.2727272727273" y="114.9090909090909" type="line"/>
      <point x="265.2727272727273" y="0.0" type="line"/>
      <point x="1042.0" y="0.0" type="line"/>
      <point x="1042.0" y="114.9090909090909" type="line"/>
      <point x="832.6363636363635" y="138.0909090909091" type="line"/>
      <point x="832.6363636363635" y="601.0909090909091" type="line"/>
      <point x="1221.2727272727273" y="1339.9090909090908" type="line"/>
      <point x="1354.9090909090908" y="1365.7272727272727" type="line"/>
      <point x="1354.9090909090908" y="1486.0" type="line"/>
      <point x="843.909090909091" y="1486.0" type="line"/>
      <point x="843.909090909091" y="1365.7272727272727" type="line"/>
      <point x="1010.2727272727274" y="1335.909090909091" type="line"/>
      <point x="796.4545454545454" y="844.8181818181818" type="line"/>
      <point x="745.4545454545455" y="718.0" type="line"/>
      <point x="695.4545454545456" y="844.6363636363636" type="line"/>
      <point x="460.54545454545456" y="1335.909090909091" type="line"/>
      <point x="589.9090909090909" y="1365.7272727272727" type="line"/>
      <point x="589.9090909090909" y="1486.0" type="line"/>
      <point x="-43.909090909090914" y="1486.0" type="line"/>
      <point x="-43.909090909090914" y="1365.7272727272727" type="line"/>
      <point x="67.0909090909091" y="1336.909090909091" type="line"/>
      <point x="466.1818181818182" y="592.9090909090909" type="line"/>
    </contour>
  </outline>
</glyph>
<glyph name="Z" format="2">
  <advance width="1305.090909090909"/>
  <unicode hex="005A"/>
  <anchor x="651.3636363636364" y="0.0" name="bottom"/>
  <anchor x="674.3636363636364" y="1486.0" name="top"/>
  <outline>
    <contour>
      <point x="751.3636363636364" y="1235.4545454545455" type="line"/>
      <point x="28.818181818181817" y="100.9090909090909" type="line"/>
      <point x="87.36363636363635" y="0.0" type="line"/>
      <point x="1215.7272727272727" y="0.0" type="line"/>
      <point x="1262.0000000000002" y="448.8181818181818" type="line"/>
      <point x="1089.0" y="483.27272727272725" type="line"/>
      <point x="966.4545454545455" y="161.9090909090909" type="line"/>
      <point x="409.54545454545456" y="119.81818181818183" type="line"/>
      <point x="536.5454545454545" y="256.72727272727275" type="line"/>
      <point x="1248.9090909090908" y="1387.2727272727273" type="line"/>
      <point x="1204.3636363636363" y="1490.0909090909092" type="line"/>
      <point x="151.72727272727272" y="1490.0909090909092" type="line"/>
      <point x="108.18181818181819" y="1084.0" type="line"/>
      <point x="279.09090909090907" y="1059.0" type="line"/>
      <point x="390.09090909090907" y="1346.3636363636363" type="line"/>
      <point x="873.3636363636364" y="1375.3636363636365" type="line"/>
    </contour>
  </outline>
</glyph>
<glyph name="bracketleft" format="2">
  <advance width="911.3211678832117"/>
  <unicode hex="005B"/>
  <outline>
    <contour>
      <point x="193.15328467153282" y="1390.992700729927" type="curve"/>
      <point x="193.15328467153282" y="-56.992700729927" type="line" smooth="yes"/>
      <point x="193.15328467153282" y="-241.992700729927"/>
      <point x="286.8102189781022" y="-274.0"/>
      <point x="441.81021897810217" y="-274.0" type="curve" smooth="yes"/>
      <point x="547.8102189781021" y="-274.0"/>
      <point x="638.8102189781021" y="-255.0"/>
      <point x="720.4744525547446" y="-234.0" type="curve"/>
      <point x="720.4744525547446" y="-133.75912408759123" type="line"/>
      <point x="484.1970802919708" y="-133.75912408759123" type="line"/>
      <point x="484.1970802919708" y="1469.7591240875913" type="line"/>
      <point x="720.4744525547446" y="1469.7591240875913" type="line"/>
      <point x="720.4744525547446" y="1568.0" type="line"/>
      <point x="639.4744525547444" y="1587.0"/>
      <point x="548.8102189781021" y="1608.0"/>
      <point x="441.81021897810217" y="1608.0" type="curve" smooth="yes"/>
      <point x="286.8102189781022" y="1608.0"/>
      <point x="193.15328467153282" y="1575.992700729927"/>
    </contour>
  </outline>
</glyph>
<glyph name="backslash" format="2">
  <advance width="829.4545454545454"/>
  <unicode hex="005C"/>
  <outline>
    <contour>
      <point x="740.1818181818182" y="-354.0" type="line"/>
      <point x="231.27272727272725" y="1562.0" type="line"/>
      <point x="32.36363636363637" y="1562.0" type="line"/>
      <point x="539.2727272727273" y="-354.0" type="line"/>
    </contour>
  </outline>
</glyph>
<glyph name="bracketright" format="2">
  <advance width="891.3211678832116"/>
  <unicode hex="005D"/>
  <outline>
    <contour>
      <point x="698.1678832116788" y="1390.992700729927" type="line"/>
      <point x="698.1678832116788" y="1575.992700729927"/>
      <point x="624.5109489051094" y="1608.0"/>
      <point x="469.51094890510944" y="1608.0" type="curve" smooth="yes"/>
      <point x="362.5109489051095" y="1608.0"/>
      <point x="271.8467153284672" y="1587.0"/>
      <point x="190.84671532846716" y="1568.0" type="curve"/>
      <point x="190.84671532846716" y="1469.7591240875913" type="line"/>
      <point x="427.1240875912409" y="1469.7591240875913" type="line"/>
      <point x="427.1240875912409" y="-133.75912408759123" type="line"/>
      <point x="190.84671532846716" y="-133.75912408759123" type="line"/>
      <point x="190.84671532846716" y="-234.0" type="line"/>
      <point x="272.51094890510944" y="-255.0"/>
      <point x="363.51094890510944" y="-274.0"/>
      <point x="469.51094890510944" y="-274.0" type="curve" smooth="yes"/>
      <point x="624.5109489051094" y="-274.0"/>
      <point x="698.1678832116788" y="-241.992700729927"/>
      <point x="698.1678832116788" y="-56.992700729927" type="curve" smooth="yes"/>
    </contour>
  </outline>
</glyph>
<glyph name="asciicircum" format="2">
  <advance width="1308.3636363636365"/>
  <unicode hex="005E"/>
  <outline>
    <contour>
      <point x="749.8181818181818" y="1496.0" type="line"/>
      <point x="552.9090909090909" y="1496.0" type="line"/>
      <point x="154.99999999999997" y="267.0" type="line"/>
      <point x="356.45454545454544" y="267.0" type="line"/>
      <point x="652.7272727272727" y="1174.6363636363637" type="line"/>
      <point x="936.5454545454546" y="267.0" type="line"/>
      <point x="1153.3636363636363" y="267.0" type="line"/>
    </contour>
  </outline>
</glyph>
<glyph name="a" format="2">
  <advance width="1113.3636363636365"/>
  <unicode hex="0061"/>
  <anchor x="542.6363636363637" y="-2.842170943040401e-14" name="bottom"/>
  <anchor x="775.7272727272727" y="20.0" name="ogonek"/>
  <anchor x="538.0909090909091" y="1110.8181818181818" name="top"/>
  <outline>
    <contour>
      <point x="34.272727272727266" y="309.27272727272725" type="curve" smooth="yes"/>
      <point x="34.272727272727266" y="100.18181818181819"/>
      <point x="180.00000000000003" y="-22.181818181818183"/>
      <point x="361.3636363636363" y="-22.181818181818183" type="curve" smooth="yes"/>
      <point x="522.2727272727273" y="-22.181818181818183"/>
      <point x="633.6363636363636" y="67.81818181818181"/>
      <point x="681.1818181818182" y="136.45454545454544" type="curve"/>
      <point x="681.1818181818182" y="83.72727272727272" type="line" smooth="yes"/>
      <point x="681.1818181818182" y="-1.9999999999999998"/>
      <point x="710.7272727272727" y="-23.09090909090909"/>
      <point x="811.9090909090909" y="-23.09090909090909" type="curve" smooth="yes"/>
      <point x="901.1818181818182" y="-23.09090909090909"/>
      <point x="1030.090909090909" y="-2.7272727272727266"/>
      <point x="1076.3636363636363" y="7.090909090909091" type="curve"/>
      <point x="1076.3636363636363" y="116.72727272727272" type="line"/>
      <point x="978.8181818181819" y="120.36363636363636" type="line"/>
      <point x="978.8181818181819" y="718.090909090909" type="line" smooth="yes"/>
      <point x="978.8181818181819" y="1004.7272727272727"/>
      <point x="869.1818181818181" y="1119.2727272727273"/>
      <point x="567.6363636363637" y="1119.2727272727273" type="curve" smooth="yes"/>
      <point x="326.27272727272725" y="1119.2727272727273"/>
      <point x="139.0909090909091" y="1011.2727272727273"/>
      <point x="85.0" y="965.1818181818184" type="curve"/>
      <point x="146.8181818181818" y="836.9090909090909" type="line"/>
      <point x="208.8181818181818" y="864.0909090909091"/>
      <point x="323.45454545454544" y="915.4545454545455"/>
      <point x="471.9090909090909" y="915.4545454545455" type="curve" smooth="yes"/>
      <point x="628.6363636363636" y="915.4545454545455"/>
      <point x="666.5454545454545" y="852.8181818181818"/>
      <point x="666.5454545454546" y="725.0909090909092" type="curve" smooth="yes"/>
      <point x="666.5454545454545" y="671.1818181818182" type="line"/>
      <point x="316.00000000000006" y="668.7272727272727"/>
      <point x="34.272727272727266" y="554.8181818181819"/>
    </contour>
    <contour>
      <point x="520.5454545454546" y="156.27272727272725" type="curve" smooth="yes"/>
      <point x="433.1818181818182" y="156.27272727272725"/>
      <point x="377.0" y="227.63636363636365"/>
      <point x="377.0" y="344.3636363636364" type="curve" smooth="yes"/>
      <point x="377.0" y="455.4545454545455"/>
      <point x="455.0" y="550.1818181818182"/>
      <point x="666.5454545454545" y="551.181818181818" type="curve"/>
      <point x="666.5454545454545" y="224.9090909090909" type="line"/>
      <point x="629.5454545454546" y="185.63636363636365"/>
      <point x="566.4545454545454" y="156.27272727272725"/>
    </contour>
  </outline>
</glyph>
<glyph name="b" format="2">
  <advance width="1231.6861313868615"/>
  <unicode hex="0062"/>
  <anchor x="575.2700729927006" y="-3.0" name="bottom"/>
  <anchor x="825.2700729927006" y="1111.0" name="top"/>
  <outline>
    <contour>
      <point x="0.8175182481751828" y="1477.5036496350365" type="line"/>
      <point x="137.61313868613138" y="1447.14598540146" type="line"/>
      <point x="137.61313868613138" y="54.0" type="line"/>
      <point x="165.6131386861314" y="34.99999999999999"/>
      <point x="314.948905109489" y="-22.0"/>
      <point x="587.1824817518248" y="-22.0" type="curve" smooth="yes"/>
      <point x="940.5328467153284" y="-22.0"/>
      <point x="1169.3795620437954" y="233.91970802919704"/>
      <point x="1169.3795620437957" y="588.978102189781" type="curve" smooth="yes"/>
      <point x="1169.3795620437957" y="963.1824817518249"/>
      <point x="989.4598540145986" y="1123.8832116788321"/>
      <point x="746.9343065693431" y="1123.8832116788321" type="curve" smooth="yes"/>
      <point x="620.9270072992701" y="1123.8832116788321"/>
      <point x="514.2408759124088" y="1058.0072992700732"/>
      <point x="460.2919708029197" y="996.1824817518249" type="curve"/>
      <point x="460.2919708029197" y="1598.3211678832117" type="line"/>
      <point x="397.13868613138686" y="1638.1605839416059" type="line"/>
      <point x="387.43065693430657" y="1638.1605839416059" type="line"/>
      <point x="0.8175182481751828" y="1579.7445255474452" type="line"/>
    </contour>
    <contour>
      <point x="619.0729927007299" y="938.1240875912408" type="curve" smooth="yes"/>
      <point x="735.5328467153286" y="938.1240875912408"/>
      <point x="822.5255474452555" y="834.8175182481752"/>
      <point x="820.029197080292" y="551.956204379562" type="curve" smooth="yes"/>
      <point x="817.5328467153286" y="239.94160583941604"/>
      <point x="728.2700729927008" y="91.08759124087591"/>
      <point x="590.6350364963503" y="91.08759124087592" type="curve" smooth="yes"/>
      <point x="529.8175182481752" y="91.08759124087591"/>
      <point x="474.13868613138686" y="110.43065693430657"/>
      <point x="460.2919708029197" y="140.45985401459853" type="curve"/>
      <point x="460.2919708029197" y="863.6277372262774" type="line"/>
      <point x="488.4379562043796" y="896.4379562043796"/>
      <point x="544.2262773722628" y="938.1240875912408"/>
    </contour>
  </outline>
</glyph>
<glyph name="c" format="2">
  <advance width="1007.3576642335767"/>
  <unicode hex="0063"/>
  <anchor x="527.9270072992699" y="0.0" name="bottom"/>
  <anchor x="569.2992700729926" y="1110.8321167883212" name="top"/>
  <outline>
    <contour>
      <point x="48.474452554744516" y="537.92700729927" type="curve" smooth="yes"/>
      <point x="48.47445255474453" y="214.45985401459853"/>
      <point x="204.30656934306572" y="-22.0"/>
      <point x="562.0729927007301" y="-22.0" type="curve" smooth="yes"/>
      <point x="755.029197080292" y="-22.0"/>
      <point x="909.5474452554745" y="76.98540145985402"/>
      <point x="959.0510948905111" y="132.16058394160584" type="curve"/>
      <point x="911.5839416058394" y="239.75182481751827" type="line"/>
      <point x="850.2627737226277" y="200.91240875912408"/>
      <point x="762.0875912408759" y="165.43065693430657"/>
      <point x="650.1751824817518" y="165.43065693430657" type="curve" smooth="yes"/>
      <point x="500.5109489051095" y="165.43065693430657"/>
      <point x="400.83211678832123" y="305.7226277372263"/>
      <point x="401.66423357664235" y="596.9270072992701" type="curve" smooth="yes"/>
      <point x="403.32846715328463" y="896.6277372262774"/>
      <point x="480.7956204379562" y="994.4890510948904"/>
      <point x="594.1094890510949" y="994.4890510948904" type="curve" smooth="yes"/>
      <point x="630.2919708029198" y="994.4890510948904"/>
      <point x="681.2554744525547" y="974.0948905109489"/>
      <point x="690.5985401459855" y="932.5547445255474" type="curve" smooth="yes"/>
      <point x="740.9197080291971" y="709.6131386861315" type="line"/>
      <point x="938.8905109489052" y="709.6131386861315" type="line"/>
      <point x="952.5547445255474" y="1061.7007299270074" type="line"/>
      <point x="887.2189781021899" y="1070.5328467153283"/>
      <point x="798.9051094890511" y="1123.5474452554745"/>
      <point x="612.5693430656935" y="1123.5474452554745" type="curve" smooth="yes"/>
      <point x="275.4452554744526" y="1123.5474452554745"/>
      <point x="48.47445255474453" y="894.07299270073"/>
    </contour>
  </outline>
</glyph>
<glyph name="e" format="2">
  <advance width="1081.6642335766423"/>
  <unicode hex="0065"/>
  <anchor x="539.7518248175184" y="0.0" name="bottom"/>
  <anchor x="549.6131386861315" y="20.0" name="ogonek"/>
  <anchor x="591.7372262773722" y="1110.0" name="top"/>
  <outline>
    <contour>
      <point x="583.2408759124088" y="-22.335766423357665" type="curve" smooth="yes"/>
      <point x="769.5547445255474" y="-22.335766423357665"/>
      <point x="949.8686131386862" y="73.32116788321169"/>
      <point x="1009.0291970802921" y="138.4817518248175" type="curve"/>
      <point x="958.0656934306569" y="248.56934306569343" type="line"/>
      <point x="898.7372262773722" y="209.72992700729927"/>
      <point x="780.7518248175184" y="168.42335766423358"/>
      <point x="680.6277372262773" y="168.42335766423358" type="curve" smooth="yes"/>
      <point x="503.8029197080292" y="168.42335766423358"/>
      <point x="408.4744525547445" y="285.3795620437956"/>
      <point x="395.1459854014599" y="519.9416058394161" type="curve"/>
      <point x="1009.051094890511" y="519.9416058394161" type="line"/>
      <point x="1019.8832116788321" y="567.0802919708029"/>
      <point x="1025.8832116788321" y="631.2481751824818"/>
      <point x="1025.8832116788321" y="724.094890510949" type="curve"/>
      <point x="1021.051094890511" y="976.2408759124088"/>
      <point x="873.043795620438" y="1123.5474452554745"/>
      <point x="594.2408759124089" y="1123.5474452554745" type="curve" smooth="yes"/>
      <point x="267.94160583941607" y="1123.5474452554745"/>
      <point x="52.45255474452555" y="909.5474452554746"/>
      <point x="52.45255474452555" y="544.0802919708029" type="curve" smooth="yes"/>
      <point x="52.45255474452555" y="209.44525547445258"/>
      <point x="205.7810218978102" y="-22.335766423357665"/>
    </contour>
    <contour>
      <point x="393.1459854014599" y="638.5036496350366" type="line"/>
      <point x="396.79562043795625" y="928.7518248175182"/>
      <point x="469.7956204379562" y="998.4817518248176"/>
      <point x="565.919708029197" y="998.4817518248176" type="curve" smooth="yes"/>
      <point x="672.5401459854014" y="998.4817518248176"/>
      <point x="705.3430656934307" y="898.8175182481752"/>
      <point x="705.3430656934307" y="734.7664233576643" type="curve" smooth="yes"/>
      <point x="705.3430656934307" y="706.7664233576643"/>
      <point x="703.3430656934307" y="670.1970802919709"/>
      <point x="702.5109489051096" y="642.029197080292" type="curve"/>
    </contour>
  </outline>
</glyph>
<glyph name="f" format="2">
  <advance width="793.2727272727273"/>
  <unicode hex="0066"/>
  <anchor x="425.1818181818182" y="1506.6363636363637" name="top"/>
  <outline>
    <contour>
      <point x="206.1818181818182" y="136.63636363636363" type="line"/>
      <point x="61.27272727272727" y="114.9090909090909" type="line"/>
      <point x="61.27272727272727" y="0.0" type="line"/>
      <point x="724.0909090909091" y="0.0" type="line"/>
      <point x="724.0909090909091" y="114.9090909090909" type="line"/>
      <point x="532.3636363636364" y="135.8181818181818" type="line"/>
      <point x="532.3636363636365" y="937.2727272727274" type="line"/>
      <point x="758.6363636363636" y="937.2727272727274" type="line"/>
      <point x="758.6363636363636" y="1091.7272727272727" type="line"/>
      <point x="532.3636363636365" y="1091.7272727272727" type="line"/>
      <point x="532.3636363636364" y="1295.7272727272727" type="line" smooth="yes"/>
      <point x="532.3636363636364" y="1405.181818181818"/>
      <point x="569.6363636363636" y="1445.4545454545455"/>
      <point x="668.1818181818181" y="1445.4545454545455" type="curve" smooth="yes"/>
      <point x="739.6363636363636" y="1445.4545454545455"/>
      <point x="820.4545454545455" y="1426.0"/>
      <point x="862.0909090909091" y="1394.0" type="curve"/>
      <point x="862.909090909091" y="1655.6363636363637" type="line"/>
      <point x="846.7272727272729" y="1661.7272727272727"/>
      <point x="805.8181818181818" y="1673.4545454545457"/>
      <point x="730.5454545454546" y="1673.4545454545457" type="curve" smooth="yes"/>
      <point x="455.0909090909091" y="1673.4545454545457"/>
      <point x="206.1818181818182" y="1452.727272727273"/>
      <point x="206.1818181818182" y="1170.5454545454545" type="curve" smooth="yes"/>
      <point x="206.1818181818182" y="1089.0909090909092" type="line"/>
      <point x="57.45454545454547" y="1044.8181818181818" type="line"/>
      <point x="57.45454545454547" y="937.2727272727274" type="line"/>
      <point x="206.1818181818182" y="937.2727272727274" type="line"/>
    </contour>
  </outline>
</glyph>
<glyph name="g" format="2">
  <advance width="1244.4545454545455"/>
  <unicode hex="0067"/>
  <anchor x="613.0" y="0.0" name="bottom"/>
  <anchor x="612.6363636363636" y="1110.818181818182" name="top"/>
  <outline>
    <contour>
      <point x="558.3636363636363" y="-529.090909090909" type="curve"/>
      <point x="885.9090909090909" y="-529.090909090909"/>
      <point x="1200.7272727272727" y="-367.90909090909093"/>
      <point x="1200.7272727272727" y="-97.36363636363636" type="curve" smooth="yes"/>
      <point x="1200.7272727272727" y="102.27272727272727"/>
      <point x="1057.3636363636363" y="201.36363636363635"/>
      <point x="787.0" y="201.36363636363635" type="curve" smooth="yes"/>
      <point x="579.5454545454545" y="201.36363636363635" type="line" smooth="yes"/>
      <point x="415.72727272727275" y="201.36363636363635"/>
      <point x="356.99999999999994" y="231.9090909090909"/>
      <point x="356.99999999999994" y="308.54545454545456" type="curve" smooth="yes"/>
      <point x="356.99999999999994" y="342.72727272727275"/>
      <point x="367.2727272727273" y="365.4545454545455"/>
      <point x="390.90909090909093" y="390.1818181818182" type="curve"/>
      <point x="436.3636363636364" y="381.54545454545456"/>
      <point x="495.0" y="376.90909090909093"/>
      <point x="554.2727272727273" y="376.90909090909093" type="curve" smooth="yes"/>
      <point x="869.1818181818182" y="376.90909090909093"/>
      <point x="1051.6363636363637" y="531.0909090909091"/>
      <point x="1050.818181818182" y="767.0909090909091" type="curve" smooth="yes"/>
      <point x="1050.818181818182" y="809.3636363636364"/>
      <point x="1042.5454545454547" y="857.7272727272727"/>
      <point x="1028.4545454545455" y="888.0" type="curve"/>
      <point x="1218.7272727272727" y="888.0" type="line"/>
      <point x="1218.7272727272727" y="1124.5454545454545" type="line"/>
      <point x="1150.9090909090908" y="1124.5454545454545" type="line" smooth="yes"/>
      <point x="1059.3636363636363" y="1124.5454545454545"/>
      <point x="979.9090909090909" y="1070.3636363636363"/>
      <point x="948.4545454545455" y="1024.1818181818182" type="curve"/>
      <point x="871.909090909091" y="1089.2727272727275"/>
      <point x="753.9090909090909" y="1119.6363636363637"/>
      <point x="583.5454545454546" y="1119.6363636363637" type="curve" smooth="yes"/>
      <point x="308.54545454545456" y="1119.6363636363637"/>
      <point x="80.45454545454547" y="982.6363636363636"/>
      <point x="80.45454545454547" y="749.909090909091" type="curve" smooth="yes"/>
      <point x="80.45454545454547" y="598.0909090909091"/>
      <point x="142.27272727272728" y="473.6363636363636"/>
      <point x="302.90909090909093" y="414.18181818181813" type="curve"/>
      <point x="201.90909090909093" y="369.45454545454544"/>
      <point x="139.27272727272725" y="284.09090909090907"/>
      <point x="139.27272727272728" y="195.36363636363635" type="curve" smooth="yes"/>
      <point x="139.27272727272728" y="120.45454545454545"/>
      <point x="167.72727272727272" y="59.18181818181818"/>
      <point x="236.27272727272725" y="18.000000000000004" type="curve"/>
      <point x="122.90909090909092" y="-13.272727272727273"/>
      <point x="40.72727272727273" y="-96.09090909090908"/>
      <point x="40.72727272727273" y="-217.0909090909091" type="curve" smooth="yes"/>
      <point x="40.72727272727273" y="-427.90909090909093"/>
      <point x="251.3636363636364" y="-529.090909090909"/>
    </contour>
    <contour>
      <point x="595.0" y="-394.45454545454544" type="curve"/>
      <point x="427.7272727272727" y="-394.27272727272725"/>
      <point x="335.00000000000006" y="-309.4545454545455"/>
      <point x="335.00000000000006" y="-167.45454545454547" type="curve" smooth="yes"/>
      <point x="335.00000000000006" y="-101.27272727272727"/>
      <point x="357.0" y="-55.45454545454545"/>
      <point x="379.8181818181818" y="-22.545454545454543" type="curve"/>
      <point x="407.27272727272725" y="-27.545454545454543"/>
      <point x="441.0" y="-31.545454545454547"/>
      <point x="477.18181818181813" y="-31.545454545454547" type="curve" smooth="yes"/>
      <point x="686.090909090909" y="-31.545454545454547" type="line" smooth="yes"/>
      <point x="824.6363636363637" y="-31.545454545454547"/>
      <point x="875.3636363636364" y="-74.0"/>
      <point x="875.3636363636364" y="-179.27272727272728" type="curve" smooth="yes"/>
      <point x="875.3636363636364" y="-327.8181818181818"/>
      <point x="738.5454545454545" y="-394.6363636363636"/>
    </contour>
    <contour>
      <point x="572.4545454545454" y="497.18181818181813" type="curve" smooth="yes"/>
      <point x="457.9090909090909" y="497.18181818181813"/>
      <point x="411.6363636363636" y="596.4545454545454"/>
      <point x="411.6363636363636" y="759.2727272727271" type="curve" smooth="yes"/>
      <point x="411.6363636363636" y="921.1818181818181"/>
      <point x="465.8181818181818" y="1004.2727272727273"/>
      <point x="574.1818181818181" y="1004.2727272727273" type="curve" smooth="yes"/>
      <point x="678.909090909091" y="1004.2727272727273"/>
      <point x="726.1818181818182" y="919.909090909091"/>
      <point x="726.1818181818182" y="751.2727272727273" type="curve" smooth="yes"/>
      <point x="726.1818181818182" y="591.0909090909091"/>
      <point x="684.2727272727273" y="497.18181818181813"/>
    </contour>
  </outline>
</glyph>
<glyph name="h" format="2">
  <advance width="1314.9781021897809"/>
  <unicode hex="0068"/>
  <anchor x="682.0583941605839" y="0.0" name="bottom"/>
  <anchor x="236.0" y="1278.9999999999998" name="center"/>
  <anchor x="301.41605839416053" y="1596.0" name="top"/>
  <outline>
    <contour>
      <point x="164.5912408759124" y="136.90510948905109" type="line"/>
      <point x="58.41605839416057" y="116.2189781021898" type="line"/>
      <point x="58.41605839416057" y="0.0" type="line"/>
      <point x="609.0948905109489" y="0.0" type="line"/>
      <point x="609.0948905109489" y="116.2189781021898" type="line"/>
      <point x="498.4306569343066" y="137.73722627737226" type="line"/>
      <point x="498.4306569343066" y="852.7737226277372" type="line"/>
      <point x="543.4160583941607" y="891.7518248175182"/>
      <point x="619.0656934306569" y="932.065693430657"/>
      <point x="699.5547445255474" y="932.065693430657" type="curve" smooth="yes"/>
      <point x="817.3357664233578" y="932.065693430657"/>
      <point x="844.007299270073" y="860.9051094890511"/>
      <point x="844.007299270073" y="690.2919708029198" type="curve" smooth="yes"/>
      <point x="844.007299270073" y="137.73722627737226" type="line"/>
      <point x="742.5401459854014" y="116.2189781021898" type="line"/>
      <point x="742.5401459854014" y="0.0" type="line"/>
      <point x="1292.8321167883212" y="0.0" type="line"/>
      <point x="1292.8321167883212" y="116.21897810218978" type="line"/>
      <point x="1173.85401459854" y="137.73722627737226" type="line"/>
      <point x="1173.85401459854" y="691.1240875912408" type="line" smooth="yes"/>
      <point x="1173.85401459854" y="986.7664233576643"/>
      <point x="1102.6569343065694" y="1118.8832116788321"/>
      <point x="857.7299270072992" y="1118.8832116788321" type="curve" smooth="yes"/>
      <point x="681.4306569343065" y="1118.8832116788321"/>
      <point x="545.963503649635" y="1028.7080291970804"/>
      <point x="478.4525547445255" y="962.8321167883212" type="curve"/>
      <point x="491.77372262773724" y="1134.956204379562" type="line"/>
      <point x="490.94160583941607" y="1595.8248175182482" type="line"/>
      <point x="431.43795620437953" y="1638.1605839416059" type="line"/>
      <point x="421.0656934306569" y="1638.1605839416059" type="line"/>
      <point x="26.963503649635037" y="1579.7445255474452" type="line"/>
      <point x="26.963503649635037" y="1472.5109489051094" type="line"/>
      <point x="164.5912408759124" y="1442.153284671533" type="line"/>
    </contour>
  </outline>
</glyph>
<glyph name="k" format="2">
  <advance width="1282.9090909090912"/>
  <unicode hex="006B"/>
  <anchor x="684.3636363636364" y="0.0" name="bottom"/>
  <anchor x="694.6363636363637" y="1561.090909090909" name="top"/>
  <outline>
    <contour>
      <point x="159.81818181818178" y="136.45454545454544" type="line"/>
      <point x="49.27272727272728" y="114.72727272727272" type="line"/>
      <point x="49.27272727272728" y="0.0" type="line"/>
      <point x="599.2727272727273" y="0.0" type="line"/>
      <point x="599.2727272727273" y="114.54545454545455" type="line"/>
      <point x="486.3636363636364" y="136.45454545454544" type="line"/>
      <point x="486.3636363636364" y="263.8181818181818" type="line"/>
      <point x="480.54545454545456" y="368.1818181818182" type="line"/>
      <point x="631.0" y="522.4545454545455" type="line"/>
      <point x="833.6363636363636" y="136.45454545454544" type="line"/>
      <point x="739.7272727272726" y="114.9090909090909" type="line"/>
      <point x="741.0" y="0.0" type="line"/>
      <point x="1302.5454545454545" y="0.0" type="line"/>
      <point x="1302.5454545454545" y="114.90909090909092" type="line"/>
      <point x="1199.8181818181818" y="135.63636363636363" type="line"/>
      <point x="858.4545454545455" y="734.0000000000001" type="line"/>
      <point x="1072.818181818182" y="953.8181818181819" type="line"/>
      <point x="1233.7272727272727" y="980.7272727272727" type="line"/>
      <point x="1233.7272727272727" y="1090.909090909091" type="line"/>
      <point x="710.8181818181819" y="1090.909090909091" type="line"/>
      <point x="710.8181818181819" y="980.7272727272727" type="line"/>
      <point x="862.0" y="956.9090909090909" type="line"/>
      <point x="482.18181818181813" y="540.0" type="line"/>
      <point x="487.18181818181824" y="660.0" type="line"/>
      <point x="487.18181818181824" y="1595.5454545454545" type="line"/>
      <point x="428.6363636363636" y="1638.090909090909" type="line"/>
      <point x="417.8181818181818" y="1638.090909090909" type="line"/>
      <point x="26.727272727272727" y="1578.7272727272725" type="line"/>
      <point x="26.727272727272727" y="1472.6363636363637" type="line"/>
      <point x="159.81818181818178" y="1442.0" type="line"/>
    </contour>
  </outline>
</glyph>
<glyph name="l" format="2">
  <advance width="650.2043795620439"/>
  <unicode hex="006C"/>
  <anchor x="334.94890510948903" y="0.0" name="bottom"/>
  <anchor x="317.6058394160584" y="1634.0" name="top"/>
  <anchor x="653.9489051094891" y="1111.0" name="topright"/>
  <outline>
    <contour>
      <point x="167.08759124087592" y="137.90510948905109" type="line"/>
      <point x="41.605839416058394" y="116.05109489051097" type="line"/>
      <point x="41.605839416058394" y="0.0" type="line"/>
      <point x="619.5766423357665" y="0.0" type="line"/>
      <point x="619.5766423357665" y="116.05109489051097" type="line"/>
      <point x="492.26277372262774" y="136.90510948905109" type="line"/>
      <point x="492.26277372262774" y="1595.8248175182482" type="line"/>
      <point x="433.93430656934305" y="1638.1605839416059" type="line"/>
      <point x="423.7299270072993" y="1638.1605839416059" type="line"/>
      <point x="31.124087591240873" y="1579.7445255474452" type="line"/>
      <point x="31.124087591240873" y="1472.5109489051094" type="line"/>
      <point x="167.08759124087592" y="1442.153284671533" type="line"/>
    </contour>
  </outline>
</glyph>
<glyph name="m" format="2">
  <advance width="1990.2408759124085"/>
  <unicode hex="006D"/>
  <anchor x="1015.8540145985402" y="0.0" name="bottom"/>
  <anchor x="1020.3503649635037" y="1111.0" name="top"/>
  <outline>
    <contour>
      <point x="75.24087591240875" y="0.0" type="line"/>
      <point x="624.4233576642335" y="0.0" type="line"/>
      <point x="624.4233576642335" y="116.21897810218978" type="line"/>
      <point x="516.2554744525547" y="137.73722627737226" type="line"/>
      <point x="516.2554744525547" y="852.7737226277372" type="line"/>
      <point x="560.2408759124087" y="889.2554744525546"/>
      <point x="634.8905109489051" y="932.0656934306569"/>
      <point x="715.5474452554745" y="932.0656934306569" type="curve" smooth="yes"/>
      <point x="828.1678832116789" y="932.0656934306569"/>
      <point x="857.5036496350366" y="866.7299270072992"/>
      <point x="857.5036496350366" y="690.2919708029198" type="curve" smooth="yes"/>
      <point x="857.5036496350366" y="137.73722627737226" type="line"/>
      <point x="762.6934306569344" y="116.21897810218978" type="line"/>
      <point x="762.6934306569344" y="0.0" type="line"/>
      <point x="1303.8321167883212" y="0.0" type="line"/>
      <point x="1303.8321167883212" y="116.21897810218978" type="line"/>
      <point x="1193.1751824817518" y="137.73722627737226" type="line"/>
      <point x="1193.1751824817518" y="697.0" type="line" smooth="yes"/>
      <point x="1193.1751824817518" y="756.4671532846716"/>
      <point x="1189.5036496350365" y="812.4598540145986"/>
      <point x="1180.5109489051094" y="858.2627737226278" type="curve"/>
      <point x="1224.4963503649635" y="893.2554744525547"/>
      <point x="1296.6569343065692" y="932.0656934306569"/>
      <point x="1369.824817518248" y="932.0656934306569" type="curve" smooth="yes"/>
      <point x="1483.277372262774" y="932.0656934306569"/>
      <point x="1516.7737226277372" y="865.0656934306569"/>
      <point x="1516.7737226277372" y="684.4671532846716" type="curve" smooth="yes"/>
      <point x="1516.7737226277372" y="137.56934306569343" type="line"/>
      <point x="1428.6204379562046" y="116.21897810218978" type="line"/>
      <point x="1428.6204379562046" y="0.0" type="line"/>
      <point x="1968.0948905109487" y="0.0" type="line"/>
      <point x="1968.0948905109487" y="116.21897810218978" type="line"/>
      <point x="1850.7810218978102" y="137.56934306569343" type="line"/>
      <point x="1850.7810218978102" y="691.9562043795621" type="line" smooth="yes"/>
      <point x="1850.7810218978102" y="995.087591240876"/>
      <point x="1757.1167883211679" y="1118.8832116788321"/>
      <point x="1528.0000000000002" y="1118.8832116788321" type="curve" smooth="yes"/>
      <point x="1380.817518248175" y="1118.8832116788321"/>
      <point x="1237.5255474452551" y="1048.3503649635038"/>
      <point x="1152.7080291970804" y="961.4963503649635" type="curve"/>
      <point x="1108.5547445255474" y="1067.1970802919707"/>
      <point x="1024.7299270072992" y="1118.8832116788321"/>
      <point x="877.8832116788321" y="1118.8832116788321" type="curve" smooth="yes"/>
      <point x="758.9927007299269" y="1118.8832116788321"/>
      <point x="576.1021897810219" y="1044.5182481751826"/>
      <point x="488.62043795620434" y="953.0145985401459" type="curve"/>
      <point x="489.4525547445255" y="1059.2335766423357" type="line"/>
      <point x="441.7810218978102" y="1120.7080291970801" type="line"/>
      <point x="425.91240875912405" y="1120.7080291970801" type="line"/>
      <point x="64.75912408759125" y="1065.6204379562043" type="line"/>
      <point x="64.75912408759125" y="928.4306569343065" type="line"/>
      <point x="181.5839416058394" y="889.7518248175182" type="line"/>
      <point x="181.5839416058394" y="137.73722627737226" type="line"/>
      <point x="75.24087591240875" y="116.21897810218978" type="line"/>
    </contour>
  </outline>
</glyph>
<glyph name="n" format="2">
  <advance width="1342.6363636363637"/>
  <unicode hex="006E"/>
  <anchor x="681.5454545454545" y="0.0" name="bottom"/>
  <anchor x="656.5454545454546" y="1111.0" name="top"/>
  <outline>
    <contour>
      <point x="180.63636363636363" y="136.63636363636363" type="line"/>
      <point x="70.09090909090908" y="114.9090909090909" type="line"/>
      <point x="70.09090909090908" y="0.0" type="line"/>
      <point x="625.0" y="0.0" type="line"/>
      <point x="625.0" y="114.9090909090909" type="line"/>
      <point x="515.3636363636363" y="136.63636363636363" type="line"/>
      <point x="515.3636363636363" y="851.2727272727273" type="line"/>
      <point x="558.3636363636364" y="884.2727272727273"/>
      <point x="629.1818181818182" y="930.9090909090909"/>
      <point x="716.6363636363636" y="930.9090909090909" type="curve" smooth="yes"/>
      <point x="828.7272727272727" y="930.9090909090909"/>
      <point x="874.4545454545454" y="865.5454545454546"/>
      <point x="874.4545454545454" y="689.818181818182" type="curve" smooth="yes"/>
      <point x="874.4545454545454" y="135.8181818181818" type="line"/>
      <point x="780.7272727272727" y="114.9090909090909" type="line"/>
      <point x="780.7272727272727" y="0.0" type="line"/>
      <point x="1320.7272727272727" y="0.0" type="line"/>
      <point x="1320.7272727272727" y="115.72727272727272" type="line"/>
      <point x="1210.1818181818182" y="135.8181818181818" type="line"/>
      <point x="1210.1818181818182" y="697.1818181818181" type="line" smooth="yes"/>
      <point x="1210.1818181818182" y="1004.8181818181819"/>
      <point x="1108.3636363636363" y="1117.5454545454545"/>
      <point x="879.8181818181818" y="1117.5454545454545" type="curve" smooth="yes"/>
      <point x="714.5454545454546" y="1117.5454545454545"/>
      <point x="570.4545454545455" y="1034.6363636363635"/>
      <point x="488.0909090909091" y="952.5454545454545" type="curve"/>
      <point x="490.45454545454544" y="1003.7272727272726" type="line"/>
      <point x="490.45454545454544" y="1076.9090909090908" type="line"/>
      <point x="437.090909090909" y="1119.2727272727273" type="line"/>
      <point x="424.90909090909093" y="1119.2727272727273" type="line"/>
      <point x="63.90909090909091" y="1063.181818181818" type="line"/>
      <point x="63.90909090909091" y="927.6363636363636" type="line"/>
      <point x="180.63636363636363" y="888.8181818181819" type="line"/>
    </contour>
  </outline>
</glyph>
<glyph name="o" format="2">
  <advance width="1190.5474452554747"/>
  <unicode hex="006F"/>
  <anchor x="595.7737226277374" y="0.0" name="bottom"/>
  <anchor x="595.7737226277374" y="549.4379562043796" name="center"/>
  <anchor x="603.0437956204379" y="39.12408759124088" name="ogonek"/>
  <anchor x="602.4306569343067" y="1110.8321167883212" name="top"/>
  <anchor x="802.5839416058394" y="1093.2043795620439" name="topright"/>
  <outline>
    <contour>
      <point x="48.474452554744516" y="539.5912408759124" type="curve" smooth="yes"/>
      <point x="48.474452554744516" y="179.10948905109487"/>
      <point x="254.13138686131387" y="-22.335766423357665"/>
      <point x="579.2627737226277" y="-22.335766423357665" type="curve" smooth="yes"/>
      <point x="878.2408759124088" y="-22.335766423357665"/>
      <point x="1142.0729927007299" y="154.31386861313868"/>
      <point x="1142.0729927007299" y="560.7810218978102" type="curve" smooth="yes"/>
      <point x="1142.0729927007299" y="920.7591240875912"/>
      <point x="939.0948905109487" y="1123.043795620438"/>
      <point x="610.4525547445255" y="1123.043795620438" type="curve" smooth="yes"/>
      <point x="312.47445255474446" y="1123.043795620438"/>
      <point x="48.474452554744516" y="937.2408759124087"/>
    </contour>
    <contour>
      <point x="599.6058394160584" y="102.72992700729927" type="curve" smooth="yes"/>
      <point x="460.13138686131384" y="102.72992700729927"/>
      <point x="407.1751824817518" y="265.29197080291965"/>
      <point x="407.1751824817518" y="565.2700729927006" type="curve" smooth="yes"/>
      <point x="407.1751824817518" y="867.4744525547444"/>
      <point x="471.46715328467155" y="997.978102189781"/>
      <point x="595.6131386861314" y="997.978102189781" type="curve" smooth="yes"/>
      <point x="734.7445255474453" y="997.978102189781"/>
      <point x="782.043795620438" y="834.7518248175184"/>
      <point x="782.043795620438" y="534.7664233576642" type="curve" smooth="yes"/>
      <point x="782.043795620438" y="233.73722627737223"/>
      <point x="722.4087591240875" y="102.72992700729927"/>
    </contour>
  </outline>
</glyph>
<glyph name="p" format="2">
  <advance width="1276.4890510948906"/>
  <unicode hex="0070"/>
  <anchor x="680.4525547445256" y="1112.0" name="top"/>
  <outline>
    <contour>
      <point x="1214.1824817518248" y="587.2992700729927" type="curve" smooth="yes"/>
      <point x="1214.1824817518248" y="963.1824817518248"/>
      <point x="1030.102189781022" y="1123.8832116788321"/>
      <point x="788.4087591240876" y="1123.8832116788321" type="curve" smooth="yes"/>
      <point x="648.2554744525547" y="1123.8832116788321"/>
      <point x="533.2481751824818" y="1041.3649635036497"/>
      <point x="485.1240875912409" y="972.051094890511" type="curve"/>
      <point x="485.963503649635" y="1078.3722627737227" type="line"/>
      <point x="431.7956204379562" y="1120.7080291970801" type="line"/>
      <point x="421.7518248175183" y="1120.7080291970801" type="line"/>
      <point x="64.75912408759123" y="1064.7883211678832" type="line"/>
      <point x="64.75912408759123" y="928.4306569343065" type="line"/>
      <point x="183.24817518248176" y="890.5839416058394" type="line"/>
      <point x="183.4160583941606" y="-344.0729927007299" type="line"/>
      <point x="64.42335766423358" y="-371.4160583941606" type="line"/>
      <point x="64.42335766423358" y="-480.978102189781" type="line"/>
      <point x="669.1897810218978" y="-480.978102189781" type="line"/>
      <point x="669.1897810218978" y="-371.4160583941606" type="line"/>
      <point x="506.75912408759115" y="-344.0729927007299" type="line"/>
      <point x="506.75912408759115" y="-164.0" type="line"/>
      <point x="501.7664233576643" y="-1.9999999999999996" type="line"/>
      <point x="527.7664233576642" y="-12.0"/>
      <point x="584.4525547445256" y="-22.0"/>
      <point x="634.4817518248176" y="-22.0" type="curve" smooth="yes"/>
      <point x="1006.138686131387" y="-22.0"/>
      <point x="1214.1824817518245" y="253.05839416058396"/>
    </contour>
    <contour>
      <point x="665.5401459854014" y="948.1094890510949" type="curve" smooth="yes"/>
      <point x="780.3357664233577" y="948.1094890510949"/>
      <point x="865.6642335766423" y="837.3138686131388"/>
      <point x="865.6642335766425" y="550.2773722627736" type="curve" smooth="yes"/>
      <point x="865.6642335766425" y="219.97080291970804"/>
      <point x="765.5839416058394" y="97.74452554744525"/>
      <point x="634.6058394160584" y="97.74452554744525" type="curve" smooth="yes"/>
      <point x="576.2846715328468" y="97.74452554744525"/>
      <point x="525.5985401459853" y="118.75182481751825"/>
      <point x="506.75912408759115" y="145.45255474452557" type="curve"/>
      <point x="506.75912408759115" y="876.1094890510948" type="line"/>
      <point x="532.4087591240875" y="908.919708029197"/>
      <point x="590.0291970802919" y="948.1094890510949"/>
    </contour>
  </outline>
</glyph>
<glyph name="q" format="2">
  <advance width="1219.372262773723"/>
  <unicode hex="0071"/>
  <outline>
    <contour>
      <point x="564.9854014598541" y="-480.978102189781" type="line"/>
      <point x="1222.0364963503648" y="-480.978102189781" type="line"/>
      <point x="1222.0364963503648" y="-372.08029197080293" type="line"/>
      <point x="1092.919708029197" y="-345.73722627737226" type="line"/>
      <point x="1092.919708029197" y="1080.2189781021898" type="line"/>
      <point x="1043.7518248175181" y="1114.8832116788321" type="line"/>
      <point x="1027.2189781021896" y="1114.8832116788321" type="line"/>
      <point x="877.5474452554745" y="1080.6934306569344" type="line"/>
      <point x="827.5474452554745" y="1095.6934306569342"/>
      <point x="733.2481751824818" y="1123.5474452554745"/>
      <point x="643.1897810218978" y="1123.5474452554745" type="curve" smooth="yes"/>
      <point x="265.8540145985401" y="1123.5474452554745"/>
      <point x="56.64233576642335" y="858.3649635036496"/>
      <point x="56.64233576642335" y="520.0729927007299" type="curve" smooth="yes"/>
      <point x="56.64233576642335" y="140.33576642335765"/>
      <point x="253.30656934306572" y="-22.16788321167883"/>
      <point x="483.2554744525548" y="-22.16788321167883" type="curve" smooth="yes"/>
      <point x="604.9562043795621" y="-22.16788321167883"/>
      <point x="713.1167883211679" y="34.20437956204379"/>
      <point x="775.7372262773722" y="103.7007299270073" type="curve"/>
      <point x="770.4087591240876" y="-46.0" type="line"/>
      <point x="770.4087591240876" y="-344.9051094890511" type="line"/>
      <point x="564.9854014598541" y="-372.08029197080293" type="line"/>
    </contour>
    <contour>
      <point x="612.2919708029198" y="148.94890510948903" type="curve" smooth="yes"/>
      <point x="495.66423357664235" y="148.94890510948903"/>
      <point x="408.007299270073" y="265.56934306569343"/>
      <point x="409.67153284671537" y="554.2554744525547" type="curve" smooth="yes"/>
      <point x="410.50364963503654" y="882.5693430656934"/>
      <point x="508.2554744525547" y="1000.6350364963504"/>
      <point x="640.4233576642337" y="1000.6350364963504" type="curve" smooth="yes"/>
      <point x="699.0802919708029" y="1000.6350364963504"/>
      <point x="752.7299270072992" y="978.6277372262774"/>
      <point x="770.2408759124088" y="952.7591240875913" type="curve"/>
      <point x="770.2408759124088" y="222.61313868613138" type="line"/>
      <point x="741.9197080291972" y="187.9416058394161"/>
      <point x="682.4452554744526" y="148.94890510948903"/>
    </contour>
  </outline>
</glyph>
<glyph name="r" format="2">
  <advance width="927.3636363636364"/>
  <unicode hex="0072"/>
  <anchor x="353.6363636363637" y="0.0" name="bottom"/>
  <anchor x="496.45454545454544" y="1110.8181818181818" name="top"/>
  <outline>
    <contour>
      <point x="59.45454545454546" y="0.0" type="line"/>
      <point x="715.7272727272729" y="0.0" type="line"/>
      <point x="715.7272727272729" y="114.0909090909091" type="line"/>
      <point x="508.8181818181818" y="136.0" type="line"/>
      <point x="508.63636363636357" y="750.5454545454545" type="line"/>
      <point x="547.0909090909091" y="779.5454545454545"/>
      <point x="621.9999999999999" y="812.1818181818182"/>
      <point x="723.0000000000001" y="812.1818181818182" type="curve" smooth="yes"/>
      <point x="805.6363636363635" y="812.1818181818182"/>
      <point x="851.8181818181819" y="796.2727272727273"/>
      <point x="881.0909090909091" y="773.7272727272727" type="curve"/>
      <point x="881.0909090909091" y="1101.0" type="line"/>
      <point x="865.8181818181818" y="1108.0"/>
      <point x="839.8181818181819" y="1114.6363636363635"/>
      <point x="804.2727272727273" y="1114.6363636363635" type="curve" smooth="yes"/>
      <point x="620.0" y="1114.6363636363635"/>
      <point x="487.45454545454544" y="929.2727272727273"/>
      <point x="466.1818181818182" y="852.7272727272727" type="curve"/>
      <point x="459.1818181818182" y="852.7272727272729" type="line"/>
      <point x="465.81818181818187" y="1029.2727272727273" type="line"/>
      <point x="465.8181818181818" y="1077.2727272727273" type="line"/>
      <point x="408.8181818181818" y="1119.2727272727273" type="line"/>
      <point x="396.6363636363637" y="1119.2727272727273" type="line"/>
      <point x="62.45454545454546" y="1063.181818181818" type="line"/>
      <point x="62.45454545454546" y="927.4545454545454" type="line"/>
      <point x="179.8181818181818" y="888.8181818181819" type="line"/>
      <point x="179.8181818181818" y="135.0" type="line"/>
      <point x="59.45454545454546" y="114.0909090909091" type="line"/>
    </contour>
  </outline>
</glyph>
<glyph name="s" format="2">
  <advance width="1031.5839416058395"/>
  <unicode hex="0073"/>
  <anchor x="509.8540145985401" y="-9.0" name="bottom"/>
  <anchor x="530.7153284671533" y="1111.0" name="top"/>
  <outline>
    <contour>
      <point x="267.04379562043795" y="321.3138686131387" type="line"/>
      <point x="87.27737226277372" y="321.3138686131387" type="line"/>
      <point x="85.76642335766424" y="55.14598540145985" type="line"/>
      <point x="157.9197080291971" y="40.83211678832117"/>
      <point x="304.75182481751824" y="-22.503649635036496"/>
      <point x="508.6861313868614" y="-22.503649635036496" type="curve" smooth="yes"/>
      <point x="829.4963503649635" y="-22.503649635036496"/>
      <point x="965.6277372262774" y="130.14598540145988"/>
      <point x="965.6277372262774" y="315.33576642335765" type="curve" smooth="yes"/>
      <point x="965.6277372262774" y="514.2700729927006"/>
      <point x="796.5036496350365" y="600.7737226277372"/>
      <point x="630.1897810218978" y="673.1094890510949" type="curve" smooth="yes"/>
      <point x="499.5255474452554" y="731.116788321168"/>
      <point x="377.68613138686135" y="771.7883211678833"/>
      <point x="377.68613138686135" y="881.1240875912408" type="curve" smooth="yes"/>
      <point x="377.68613138686135" y="955.7956204379561"/>
      <point x="441.1970802919708" y="1004.3065693430657"/>
      <point x="539.8467153284672" y="1004.3065693430657" type="curve" smooth="yes"/>
      <point x="614.2189781021898" y="1004.3065693430657"/>
      <point x="668.0656934306569" y="974.2700729927008"/>
      <point x="684.4160583941605" y="935.1605839416059" type="curve"/>
      <point x="731.8905109489051" y="790.3868613138686" type="line"/>
      <point x="899.8102189781023" y="790.3868613138686" type="line"/>
      <point x="901.6569343065694" y="1061.5474452554745" type="line"/>
      <point x="833.8321167883212" y="1068.5474452554745"/>
      <point x="729.6788321167883" y="1120.5474452554745"/>
      <point x="528.5547445255476" y="1120.5474452554745" type="curve" smooth="yes"/>
      <point x="245.89051094890507" y="1120.5474452554745"/>
      <point x="84.76642335766422" y="983.0583941605839"/>
      <point x="84.76642335766422" y="801.7372262773723" type="curve" smooth="yes"/>
      <point x="84.76642335766422" y="619.1970802919707"/>
      <point x="191.3430656934307" y="514.8759124087592"/>
      <point x="352.8175182481752" y="442.2189781021898" type="curve" smooth="yes"/>
      <point x="526.978102189781" y="361.72262773722633"/>
      <point x="658.9197080291971" y="322.3795620437956"/>
      <point x="658.9197080291971" y="221.4087591240876" type="curve" smooth="yes"/>
      <point x="658.9197080291971" y="152.0875912408759"/>
      <point x="607.5985401459855" y="95.9051094890511"/>
      <point x="491.4160583941606" y="95.9051094890511" type="curve" smooth="yes"/>
      <point x="414.86861313868616" y="95.9051094890511"/>
      <point x="335.5474452554745" y="130.1094890510949"/>
      <point x="315.18978102189783" y="171.7007299270073" type="curve"/>
    </contour>
  </outline>
</glyph>
<glyph name="t" format="2">
  <advance width="795.9854014598541"/>
  <unicode hex="0074"/>
  <anchor x="423.8832116788321" y="0.0" name="bottom"/>
  <anchor x="321.4525547445255" y="572.6423357664233" name="center"/>
  <anchor x="373.9635036496351" y="1373.3576642335768" name="top"/>
  <anchor x="656.2773722627737" y="1111.0" name="topright"/>
  <outline>
    <contour>
      <point x="405.42335766423355" y="-19.343065693430656" type="curve" smooth="yes"/>
      <point x="566.6131386861315" y="-19.343065693430656"/>
      <point x="712.5328467153284" y="38.82481751824818"/>
      <point x="782.5182481751825" y="94.82481751824817" type="curve"/>
      <point x="741.5328467153284" y="209.24817518248173" type="line"/>
      <point x="700.7080291970802" y="193.40875912408757"/>
      <point x="639.0729927007299" y="176.56934306569343"/>
      <point x="582.7664233576643" y="176.56934306569343" type="curve" smooth="yes"/>
      <point x="501.79562043795613" y="176.56934306569343"/>
      <point x="484.78832116788317" y="192.56934306569346"/>
      <point x="484.78832116788317" y="390.6569343065694" type="curve" smooth="yes"/>
      <point x="484.78832116788317" y="939.4671532846716" type="line"/>
      <point x="739.3284671532847" y="939.4671532846716" type="line"/>
      <point x="739.3284671532847" y="1094.036496350365" type="line"/>
      <point x="481.78832116788317" y="1094.036496350365" type="line"/>
      <point x="471.97080291970804" y="1398.905109489051" type="line"/>
      <point x="290.1897810218978" y="1398.905109489051" type="line"/>
      <point x="270.8467153284671" y="1335.087591240876"/>
      <point x="245.66423357664235" y="1260.7226277372263"/>
      <point x="224.1605839416058" y="1212.0729927007299" type="curve" smooth="yes"/>
      <point x="203.64963503649636" y="1164.7445255474452"/>
      <point x="187.79562043795622" y="1130.3576642335768"/>
      <point x="157.78102189781023" y="1104.029197080292" type="curve" smooth="yes"/>
      <point x="128.6058394160584" y="1079.036496350365"/>
      <point x="76.59854014598541" y="1069.3576642335768"/>
      <point x="27.43795620437956" y="1050.029197080292" type="curve"/>
      <point x="27.43795620437956" y="939.4671532846716" type="line"/>
      <point x="149.6058394160584" y="939.4671532846716" type="line"/>
      <point x="149.6058394160584" y="228.47445255474454" type="line" smooth="yes"/>
      <point x="149.6058394160584" y="59.47445255474452"/>
      <point x="229.42335766423358" y="-19.343065693430656"/>
    </contour>
  </outline>
</glyph>
<glyph name="u" format="2">
  <advance width="1267.8181818181818"/>
  <unicode hex="0075"/>
  <anchor x="630.7272727272727" y="0.0" name="bottom"/>
  <anchor x="925.0909090909091" y="20.0" name="ogonek"/>
  <anchor x="621.4545454545455" y="1112.0" name="top"/>
  <anchor x="1016.3636363636365" y="1092.5454545454545" name="topright"/>
  <outline>
    <contour>
      <point x="959.8181818181818" y="-19.81818181818182" type="curve" smooth="yes"/>
      <point x="1073.0909090909092" y="-19.81818181818182"/>
      <point x="1165.0909090909092" y="0.0"/>
      <point x="1215.0909090909092" y="10.0" type="curve"/>
      <point x="1215.090909090909" y="121.99999999999999" type="line"/>
      <point x="1114.909090909091" y="125.27272727272727" type="line"/>
      <point x="1114.909090909091" y="1086.909090909091" type="line"/>
      <point x="1064.909090909091" y="1117.6363636363637" type="line"/>
      <point x="1053.0909090909092" y="1117.6363636363637" type="line"/>
      <point x="666.7272727272727" y="1075.6363636363637" type="line"/>
      <point x="666.7272727272727" y="966.7272727272727" type="line"/>
      <point x="787.4545454545454" y="933.6363636363636" type="line"/>
      <point x="787.4545454545454" y="230.9090909090909" type="line"/>
      <point x="756.3636363636364" y="201.81818181818178"/>
      <point x="697.6363636363636" y="159.27272727272725"/>
      <point x="605.0909090909091" y="159.27272727272725" type="curve" smooth="yes"/>
      <point x="502.90909090909093" y="159.27272727272725"/>
      <point x="466.18181818181813" y="215.0909090909091"/>
      <point x="466.18181818181813" y="381.81818181818187" type="curve" smooth="yes"/>
      <point x="466.18181818181813" y="1086.909090909091" type="line"/>
      <point x="420.3636363636364" y="1117.6363636363637" type="line"/>
      <point x="412.3636363636364" y="1117.6363636363637" type="line"/>
      <point x="42.727272727272734" y="1075.6363636363637" type="line"/>
      <point x="42.727272727272734" y="963.4545454545454" type="line"/>
      <point x="136.72727272727275" y="933.6363636363636" type="line"/>
      <point x="136.72727272727272" y="389.81818181818187" type="line" smooth="yes"/>
      <point x="136.72727272727272" y="94.36363636363637"/>
      <point x="235.2727272727273" y="-21.636363636363637"/>
      <point x="485.0909090909091" y="-21.636363636363637" type="curve" smooth="yes"/>
      <point x="622.9090909090909" y="-21.636363636363637"/>
      <point x="759.090909090909" y="62.54545454545454"/>
      <point x="820.909090909091" y="151.63636363636365" type="curve"/>
      <point x="820.909090909091" y="96.36363636363636" type="line" smooth="yes"/>
      <point x="820.909090909091" y="17.454545454545457"/>
      <point x="862.7272727272729" y="-19.81818181818182"/>
    </contour>
  </outline>
</glyph>
<glyph name="v" format="2">
  <advance width="1163.5839416058395"/>
  <unicode hex="0076"/>
  <outline>
    <contour>
      <point x="-10.394160583941604" y="981.1459854014598" type="line"/>
      <point x="69.78832116788321" y="952.6204379562043" type="line"/>
      <point x="445.6788321167884" y="-13.313868613138686" type="line"/>
      <point x="723.2554744525548" y="-13.313868613138686" type="line"/>
      <point x="1078.4817518248174" y="952.6204379562043" type="line"/>
      <point x="1184.4890510948906" y="981.1459854014598" type="line"/>
      <point x="1184.4890510948906" y="1093.2043795620439" type="line"/>
      <point x="739.4525547445255" y="1093.2043795620439" type="line"/>
      <point x="739.4525547445255" y="980.9781021897809" type="line"/>
      <point x="863.1313868613139" y="952.6204379562043" type="line"/>
      <point x="698.5109489051093" y="412.2116788321167" type="line"/>
      <point x="652.6569343065693" y="228.17518248175182" type="line"/>
      <point x="599.978102189781" y="418.0656934306569" type="line"/>
      <point x="439.6569343065694" y="952.6204379562043" type="line"/>
      <point x="561.2992700729927" y="981.1459854014598" type="line"/>
      <point x="561.2992700729927" y="1093.2043795620439" type="line"/>
      <point x="-10.394160583941604" y="1093.2043795620439" type="line"/>
    </contour>
  </outline>
</glyph>
<glyph name="w" format="2">
  <advance width="1712.2727272727275"/>
  <unicode hex="0077"/>
  <anchor x="862.6363636363636" y="0.0" name="bottom"/>
  <anchor x="906.8181818181819" y="1111.0" name="top"/>
  <outline>
    <contour>
      <point x="-6.181818181818182" y="980.909090909091" type="line"/>
      <point x="84.81818181818183" y="955.3636363636364" type="line"/>
      <point x="384.4545454545455" y="-13.09090909090909" type="line"/>
      <point x="650.8181818181819" y="-13.09090909090909" type="line"/>
      <point x="822.4545454545455" y="599.2727272727273" type="line"/>
      <point x="868.3636363636364" y="816.4545454545455" type="line"/>
      <point x="904.8181818181818" y="599.4545454545455" type="line"/>
      <point x="1083.5454545454545" y="-13.09090909090909" type="line"/>
      <point x="1348.8181818181818" y="-13.09090909090909" type="line"/>
      <point x="1648.7272727272727" y="954.5454545454545" type="line"/>
      <point x="1752.0000000000002" y="980.909090909091" type="line"/>
      <point x="1752.0000000000002" y="1092.5454545454545" type="line"/>
      <point x="1326.0" y="1092.5454545454545" type="line"/>
      <point x="1326.0" y="981.0909090909091" type="line"/>
      <point x="1466.090909090909" y="952.0909090909091" type="line"/>
      <point x="1337.2727272727273" y="442.45454545454544" type="line"/>
      <point x="1294.4545454545455" y="243.9090909090909" type="line"/>
      <point x="1252.363636363636" y="443.27272727272725" type="line"/>
      <point x="1085.090909090909" y="1092.5454545454545" type="line"/>
      <point x="794.3636363636363" y="1092.5454545454545" type="line"/>
      <point x="619.3636363636364" y="443.09090909090907" type="line"/>
      <point x="582.1818181818182" y="243.9090909090909" type="line"/>
      <point x="539.8181818181819" y="442.45454545454544" type="line"/>
      <point x="413.3636363636364" y="953.7272727272727" type="line"/>
      <point x="547.6363636363635" y="981.0909090909091" type="line"/>
      <point x="547.6363636363635" y="1092.5454545454545" type="line"/>
      <point x="-6.181818181818182" y="1092.5454545454545" type="line"/>
    </contour>
  </outline>
</glyph>
<glyph name="x" format="2">
  <advance width="1226.090909090909"/>
  <unicode hex="0078"/>
  <outline>
    <contour>
      <point x="129.0909090909091" y="136.45454545454547" type="line"/>
      <point x="8.636363636363637" y="113.27272727272727" type="line"/>
      <point x="8.636363636363637" y="0.0" type="line"/>
      <point x="479.09090909090907" y="0.0" type="line"/>
      <point x="479.09090909090907" y="113.27272727272727" type="line"/>
      <point x="331.18181818181813" y="136.45454545454547" type="line"/>
      <point x="477.0" y="354.9090909090909" type="line"/>
      <point x="525.2727272727273" y="441.90909090909093" type="line"/>
      <point x="584.6363636363635" y="350.6363636363637" type="line"/>
      <point x="724.0" y="136.45454545454547" type="line"/>
      <point x="615.3636363636363" y="113.27272727272727" type="line"/>
      <point x="615.3636363636363" y="0.0" type="line"/>
      <point x="1217.4545454545455" y="0.0" type="line"/>
      <point x="1217.4545454545455" y="113.27272727272727" type="line"/>
      <point x="1118.818181818182" y="135.63636363636363" type="line"/>
      <point x="788.3636363636364" y="580.7272727272727" type="line"/>
      <point x="1086.4545454545455" y="956.2727272727273" type="line"/>
      <point x="1196.9090909090908" y="980.7272727272727" type="line"/>
      <point x="1196.9090909090908" y="1091.7272727272727" type="line"/>
      <point x="771.0909090909091" y="1091.7272727272727" type="line"/>
      <point x="771.0909090909091" y="980.7272727272727" type="line"/>
      <point x="900.6363636363637" y="956.0909090909091" type="line"/>
      <point x="757.2727272727273" y="750.0000000000001" type="line"/>
      <point x="706.0909090909091" y="664.2727272727273" type="line"/>
      <point x="653.7272727272727" y="752.090909090909" type="line"/>
      <point x="515.1818181818181" y="956.2727272727273" type="line"/>
      <point x="635.2727272727274" y="980.7272727272727" type="line"/>
      <point x="635.2727272727274" y="1091.7272727272727" type="line"/>
      <point x="25.18181818181818" y="1091.7272727272727" type="line"/>
      <point x="25.18181818181818" y="980.7272727272727" type="line"/>
      <point x="124.27272727272727" y="956.2727272727273" type="line"/>
      <point x="440.6363636363636" y="525.2727272727273" type="line"/>
    </contour>
  </outline>
</glyph>
<glyph name="y" format="2">
  <advance width="1164.4160583941605"/>
  <unicode hex="0079"/>
  <anchor x="969.7007299270073" y="0.0" name="bottom"/>
  <anchor x="614.4014598540145" y="1111.0" name="top"/>
  <outline>
    <contour>
      <point x="300.58394160583947" y="-506.82481751824815" type="curve" smooth="yes"/>
      <point x="529.5401459854015" y="-506.82481751824815"/>
      <point x="640.029197080292" y="-334.0"/>
      <point x="754.029197080292" y="-25.0" type="curve"/>
      <point x="770.0291970802919" y="12.0"/>
      <point x="963.6496350364963" y="576.2846715328467"/>
      <point x="1087.6496350364964" y="954.2846715328468" type="curve"/>
      <point x="1185.3357664233579" y="981.1459854014599" type="line"/>
      <point x="1185.3357664233579" y="1093.2043795620439" type="line"/>
      <point x="749.4525547445256" y="1093.2043795620439" type="line"/>
      <point x="749.4525547445256" y="980.9781021897811" type="line"/>
      <point x="872.2992700729928" y="954.2846715328468" type="line"/>
      <point x="720.1459854014599" y="411.3795620437956" type="line"/>
      <point x="670.1313868613138" y="208.2043795620438" type="line"/>
      <point x="609.963503649635" y="413.9051094890511" type="line"/>
      <point x="445.4671532846715" y="953.4525547445256" type="line"/>
      <point x="577.9270072992701" y="981.1459854014599" type="line"/>
      <point x="577.9270072992701" y="1093.2043795620439" type="line"/>
      <point x="-11.401459854014597" y="1093.3722627737227" type="line"/>
      <point x="-11.401459854014597" y="981.3138686131388" type="line"/>
      <point x="77.1021897810219" y="952.7883211678832" type="line"/>
      <point x="440.51824817518246" y="0.0" type="line"/>
      <point x="578.3430656934307" y="0.0" type="line"/>
      <point x="515.3430656934306" y="-170.99999999999997"/>
      <point x="437.94160583941607" y="-262.3211678832117"/>
      <point x="295.7664233576642" y="-262.3211678832117" type="curve" smooth="yes"/>
      <point x="249.44525547445255" y="-262.3211678832117"/>
      <point x="203.2919708029197" y="-250.32846715328466"/>
      <point x="183.1167883211679" y="-236.50364963503648" type="curve"/>
      <point x="183.1167883211679" y="-486.49635036496346" type="line"/>
      <point x="209.27007299270073" y="-499.992700729927"/>
      <point x="250.2627737226277" y="-506.82481751824815"/>
    </contour>
  </outline>
</glyph>
<glyph name="z" format="2">
  <advance width="1087.909090909091"/>
  <unicode hex="007A"/>
  <anchor x="552.909090909091" y="0.0" name="bottom"/>
  <anchor x="578.6363636363636" y="1111.0" name="top"/>
  <outline>
    <contour>
      <point x="687.1818181818182" y="968.6363636363636" type="line"/>
      <point x="550.1818181818182" y="821.8181818181819" type="line"/>
      <point x="33.81818181818182" y="109.63636363636364" type="line"/>
      <point x="88.0" y="0.0" type="line"/>
      <point x="1010.1818181818181" y="0.0" type="line"/>
      <point x="1052.8181818181818" y="375.0" type="line"/>
      <point x="902.5454545454544" y="394.6363636363636" type="line"/>
      <point x="779.0909090909091" y="144.1818181818182" type="line"/>
      <point x="417.6363636363636" y="121.09090909090908" type="line"/>
      <point x="552.3636363636363" y="268.1818181818182" type="line"/>
      <point x="1051.090909090909" y="987.2727272727271" type="line"/>
      <point x="1000.5454545454545" y="1091.7272727272727" type="line"/>
      <point x="107.18181818181817" y="1091.1818181818182" type="line"/>
      <point x="104.0909090909091" y="740.1818181818182" type="line"/>
      <point x="263.6363636363636" y="740.7272727272727" type="line"/>
      <point x="329.7272727272727" y="952.5454545454545" type="line"/>
    </contour>
  </outline>
</glyph>
<glyph name="braceleft" format="2">
  <advance width="1071.4545454545455"/>
  <unicode hex="007B"/>
  <outline>
    <contour>
      <point x="634.0" y="-282.0" type="curve" smooth="yes"/>
      <point x="741.9999999999999" y="-282.0"/>
      <point x="831.7272727272726" y="-258.54545454545456"/>
      <point x="920.909090909091" y="-238.0" type="curve"/>
      <point x="920.909090909091" y="-127.27272727272727" type="line"/>
      <point x="879.9090909090909" y="-128.27272727272728"/>
      <point x="822.0909090909091" y="-129.27272727272728"/>
      <point x="780.6363636363636" y="-129.27272727272728" type="curve" smooth="yes"/>
      <point x="684.6363636363636" y="-129.27272727272728"/>
      <point x="599.0000000000001" y="-100.9090909090909"/>
      <point x="599.0000000000001" y="26.09090909090909" type="curve" smooth="yes"/>
      <point x="599.0000000000001" y="137.0909090909091"/>
      <point x="679.8181818181819" y="298.54545454545456"/>
      <point x="679.8181818181819" y="431.5454545454545" type="curve" smooth="yes"/>
      <point x="679.8181818181819" y="582.6363636363636"/>
      <point x="532.8181818181819" y="650.0"/>
      <point x="367.18181818181813" y="672.0" type="curve"/>
      <point x="532.8181818181819" y="695.0"/>
      <point x="679.8181818181819" y="753.3636363636364"/>
      <point x="679.8181818181819" y="904.4545454545454" type="curve" smooth="yes"/>
      <point x="679.8181818181819" y="1039.4545454545455"/>
      <point x="599.0000000000001" y="1205.909090909091"/>
      <point x="599.0000000000001" y="1315.909090909091" type="curve" smooth="yes"/>
      <point x="599.0000000000001" y="1440.9090909090908"/>
      <point x="683.3636363636364" y="1471.2727272727273"/>
      <point x="779.3636363636364" y="1471.2727272727273" type="curve" smooth="yes"/>
      <point x="820.3636363636364" y="1471.2727272727273"/>
      <point x="879.9090909090909" y="1471.090909090909"/>
      <point x="920.909090909091" y="1470.090909090909" type="curve"/>
      <point x="920.909090909091" y="1576.0" type="line"/>
      <point x="829.9090909090909" y="1597.090909090909"/>
      <point x="742.7272727272729" y="1620.0"/>
      <point x="634.7272727272726" y="1620.0" type="curve" smooth="yes"/>
      <point x="378.54545454545456" y="1620.0"/>
      <point x="278.0909090909091" y="1519.0"/>
      <point x="278.0909090909091" y="1351.0" type="curve" smooth="yes"/>
      <point x="278.0909090909091" y="1168.0"/>
      <point x="405.54545454545456" y="1048.3636363636363"/>
      <point x="405.54545454545456" y="884.6363636363636" type="curve" smooth="yes"/>
      <point x="405.54545454545456" y="798.6363636363636"/>
      <point x="385.4545454545455" y="750.6363636363636"/>
      <point x="154.27272727272725" y="750.6363636363636" type="curve"/>
      <point x="154.27272727272725" y="605.3636363636364" type="line"/>
      <point x="385.4545454545455" y="605.3636363636364"/>
      <point x="405.54545454545456" y="535.2727272727274"/>
      <point x="405.54545454545456" y="448.09090909090907" type="curve" smooth="yes"/>
      <point x="405.54545454545456" y="284.54545454545456"/>
      <point x="278.0909090909091" y="168.0"/>
      <point x="278.0909090909091" y="-14.0" type="curve" smooth="yes"/>
      <point x="278.0909090909091" y="-181.0"/>
      <point x="377.81818181818187" y="-282.0"/>
    </contour>
  </outline>
</glyph>
<glyph name="bar" format="2">
  <advance width="819.992700729927"/>
  <unicode hex="007C"/>
  <outline>
    <contour>
      <point x="510.00729927007296" y="1738.0" type="line"/>
      <point x="309.985401459854" y="1738.0" type="line"/>
      <point x="309.985401459854" y="-182.0" type="line"/>
      <point x="510.00729927007296" y="-182.0" type="line"/>
    </contour>
  </outline>
</glyph>
<glyph name="braceright" format="2">
  <advance width="1072.1094890510947"/>
  <unicode hex="007D"/>
  <outline>
    <contour>
      <point x="436.67153284671537" y="-282.0" type="curve" smooth="yes"/>
      <point x="692.992700729927" y="-282.0"/>
      <point x="793.1824817518248" y="-181.0"/>
      <point x="793.1824817518248" y="-13.832116788321168" type="curve" smooth="yes"/>
      <point x="793.1824817518248" y="168.33576642335765"/>
      <point x="665.6861313868612" y="283.9051094890511"/>
      <point x="665.6861313868612" y="448.0364963503649" type="curve" smooth="yes"/>
      <point x="665.6861313868612" y="534.7153284671532"/>
      <point x="685.2335766423358" y="601.5474452554745"/>
      <point x="917.1678832116788" y="601.5474452554745" type="curve"/>
      <point x="917.1678832116788" y="748.4087591240875" type="line"/>
      <point x="685.2335766423358" y="748.4087591240875"/>
      <point x="665.6861313868612" y="799.1240875912409"/>
      <point x="665.6861313868612" y="885.3065693430657" type="curve" smooth="yes"/>
      <point x="665.6861313868612" y="1049.2700729927008"/>
      <point x="793.1824817518248" y="1168.3357664233577"/>
      <point x="793.1824817518248" y="1351.1678832116788" type="curve" smooth="yes"/>
      <point x="793.1824817518248" y="1519.0"/>
      <point x="693.6642335766422" y="1620.0"/>
      <point x="437.3430656934307" y="1620.0" type="curve" smooth="yes"/>
      <point x="329.3430656934307" y="1620.0"/>
      <point x="239.67153284671534" y="1596.5036496350365"/>
      <point x="150.35036496350364" y="1576.0" type="curve"/>
      <point x="150.35036496350364" y="1468.2627737226278" type="line"/>
      <point x="191.35036496350364" y="1469.2627737226278"/>
      <point x="250.47445255474452" y="1469.4306569343066"/>
      <point x="291.13868613138686" y="1469.4306569343066" type="curve" smooth="yes"/>
      <point x="387.13868613138686" y="1469.4306569343066"/>
      <point x="472.9562043795621" y="1439.7372262773724"/>
      <point x="472.9562043795621" y="1314.4014598540145" type="curve" smooth="yes"/>
      <point x="472.9562043795621" y="1204.2335766423357"/>
      <point x="391.8175182481752" y="1039.036496350365"/>
      <point x="391.8175182481752" y="904.3722627737226" type="curve" smooth="yes"/>
      <point x="391.8175182481752" y="753.978102189781"/>
      <point x="538.2043795620438" y="693.8248175182482"/>
      <point x="703.5620437956204" y="670.992700729927" type="curve"/>
      <point x="538.2043795620438" y="648.8248175182481"/>
      <point x="391.8175182481752" y="582.6934306569343"/>
      <point x="391.8175182481752" y="432.2992700729927" type="curve" smooth="yes"/>
      <point x="391.8175182481752" y="298.9635036496351"/>
      <point x="472.9562043795621" y="137.08759124087592"/>
      <point x="472.9562043795621" y="26.255474452554743" type="curve" smooth="yes"/>
      <point x="472.9562043795621" y="-100.4087591240876"/>
      <point x="388.3138686131387" y="-128.77372262773724"/>
      <point x="292.31386861313865" y="-128.77372262773724" type="curve" smooth="yes"/>
      <point x="250.4817518248175" y="-128.77372262773724"/>
      <point x="191.35036496350364" y="-127.77372262773721"/>
      <point x="150.35036496350364" y="-126.77372262773721" type="curve"/>
      <point x="150.35036496350364" y="-238.0" type="line"/>
      <point x="241.35036496350364" y="-259.00729927007296"/>
      <point x="328.6715328467153" y="-282.0"/>
    </contour>
  </outline>
</glyph>
<glyph name="asciitilde" format="2">
  <advance width="1323.8181818181818"/>
  <unicode hex="007E"/>
  <outline>
    <contour>
      <point x="175.27272727272725" y="550.0909090909091" type="curve"/>
      <point x="260.3636363636364" y="447.27272727272725" type="line"/>
      <point x="309.5454545454545" y="504.3636363636363"/>
      <point x="378.8181818181818" y="556.8181818181819"/>
      <point x="468.6363636363637" y="556.8181818181819" type="curve" smooth="yes"/>
      <point x="601.1818181818182" y="556.8181818181819"/>
      <point x="658.5454545454545" y="379.3636363636363"/>
      <point x="839.1818181818181" y="379.3636363636363" type="curve" smooth="yes"/>
      <point x="980.6363636363636" y="379.3636363636363"/>
      <point x="1099.6363636363637" y="481.72727272727275"/>
      <point x="1148.5454545454547" y="583.4545454545455" type="curve"/>
      <point x="1061.3636363636363" y="688.3636363636364" type="line"/>
      <point x="1015.4545454545455" y="627.1818181818182"/>
      <point x="957.3636363636364" y="575.0909090909091"/>
      <point x="860.6363636363636" y="575.0909090909091" type="curve" smooth="yes"/>
      <point x="742.909090909091" y="575.0909090909091"/>
      <point x="669.3636363636364" y="750.0909090909091"/>
      <point x="482.9090909090909" y="750.0909090909091" type="curve" smooth="yes"/>
      <point x="341.1818181818182" y="750.0909090909091"/>
      <point x="216.09090909090907" y="640.4545454545455"/>
    </contour>
  </outline>
</glyph>
<glyph name="exclamdown" format="2">
  <advance width="584.3636363636364"/>
  <unicode hex="00A1"/>
  <outline>
    <contour>
      <point x="112.36363636363637" y="-457.0" type="line"/>
      <point x="483.45454545454544" y="-457.0" type="line"/>
      <point x="383.72727272727275" y="813.7272727272727" type="line"/>
      <point x="211.0909090909091" y="813.7272727272727" type="line"/>
    </contour>
    <contour>
      <point x="307.3636363636364" y="1334.8181818181818" type="curve" smooth="yes"/>
      <point x="188.36363636363635" y="1334.8181818181818"/>
      <point x="104.54545454545456" y="1270.7272727272727"/>
      <point x="104.54545454545456" y="1157.5454545454545" type="curve" smooth="yes"/>
      <point x="104.54545454545456" y="1073.8181818181818"/>
      <point x="167.72727272727275" y="994.0909090909092"/>
      <point x="277.72727272727275" y="994.0909090909092" type="curve" smooth="yes"/>
      <point x="385.9090909090909" y="994.0909090909092"/>
      <point x="473.909090909091" y="1065.9999999999998"/>
      <point x="473.909090909091" y="1172.1818181818182" type="curve" smooth="yes"/>
      <point x="473.909090909091" y="1268.5454545454545"/>
      <point x="392.27272727272725" y="1334.8181818181818"/>
    </contour>
  </outline>
</glyph>
<glyph name="cent" format="2">
  <advance width="1124.9090909090908"/>
  <unicode hex="00A2"/>
  <outline>
    <contour>
      <point x="117.27272727272728" y="537.0909090909091" type="curve" smooth="yes"/>
      <point x="118.9090909090909" y="250.90909090909093"/>
      <point x="237.0" y="33.090909090909086"/>
      <point x="511.18181818181813" y="-13.09090909090909" type="curve"/>
      <point x="490.2727272727273" y="-252.0" type="line"/>
      <point x="650.5454545454546" y="-252.0" type="line"/>
      <point x="670.4545454545454" y="-20.999999999999996" type="line"/>
      <point x="843.4545454545455" y="-7.2727272727272725"/>
      <point x="981.909090909091" y="80.63636363636364"/>
      <point x="1027.6363636363637" y="132.0909090909091" type="curve"/>
      <point x="978.9090909090909" y="238.8181818181818" type="line"/>
      <point x="918.5454545454545" y="199.9090909090909"/>
      <point x="829.4545454545454" y="164.63636363636365"/>
      <point x="719.3636363636364" y="164.63636363636365" type="curve" smooth="yes"/>
      <point x="569.7272727272726" y="164.63636363636365"/>
      <point x="469.9090909090909" y="304.4545454545455"/>
      <point x="471.54545454545456" y="596.0909090909091" type="curve" smooth="yes"/>
      <point x="472.3636363636364" y="896.1818181818182"/>
      <point x="551.0909090909091" y="992.5454545454545"/>
      <point x="661.7272727272727" y="992.5454545454545" type="curve" smooth="yes"/>
      <point x="707.090909090909" y="992.5454545454545"/>
      <point x="749.4545454545454" y="973.2727272727273"/>
      <point x="759.7272727272727" y="931.2727272727273" type="curve" smooth="yes"/>
      <point x="809.9090909090909" y="709.0" type="line"/>
      <point x="1006.7272727272727" y="709.0" type="line"/>
      <point x="1021.9999999999999" y="1060.181818181818" type="line"/>
      <point x="965.0909090909091" y="1066.3636363636365"/>
      <point x="892.1818181818181" y="1108.0909090909092"/>
      <point x="755.1818181818182" y="1119.5454545454543" type="curve"/>
      <point x="774.6363636363636" y="1358.0" type="line"/>
      <point x="619.0" y="1358.0" type="line"/>
      <point x="598.5454545454546" y="1117.0909090909092" type="line"/>
      <point x="306.6363636363636" y="1083.0909090909088"/>
      <point x="118.0909090909091" y="862.6363636363636"/>
    </contour>
  </outline>
</glyph>
<glyph name="sterling" format="2">
  <advance width="1550.5839416058393"/>
  <unicode hex="00A3"/>
  <outline>
    <contour>
      <point x="975.5985401459853" y="-14.0" type="curve" smooth="yes"/>
      <point x="1259.058394160584" y="-14.0"/>
      <point x="1470.094890510949" y="151.63503649635038"/>
      <point x="1470.094890510949" y="366.00000000000006" type="curve" smooth="yes"/>
      <point x="1470.094890510949" y="445.0"/>
      <point x="1441.9270072992701" y="510.3211678832117"/>
      <point x="1418.2481751824819" y="533.0" type="curve"/>
      <point x="1086.4160583941607" y="533.0" type="line"/>
      <point x="1119.7591240875913" y="501.64233576642334"/>
      <point x="1147.9270072992701" y="424.4671532846715"/>
      <point x="1147.9270072992701" y="348.81021897810217" type="curve" smooth="yes"/>
      <point x="1147.9270072992701" y="212.0729927007299"/>
      <point x="1094.5766423357666" y="139.6934306569343"/>
      <point x="926.1313868613138" y="139.6934306569343" type="curve" smooth="yes"/>
      <point x="790.92700729927" y="139.6934306569343"/>
      <point x="683.4890510948904" y="188.24087591240877"/>
      <point x="571.07299270073" y="209.3065693430657" type="curve"/>
      <point x="646.7737226277374" y="272.6861313868613"/>
      <point x="697.5985401459855" y="358.40145985401455"/>
      <point x="697.5985401459853" y="534.6569343065694" type="curve" smooth="yes"/>
      <point x="697.5985401459853" y="746.8686131386862" type="line"/>
      <point x="975.4452554744527" y="746.8686131386862" type="line"/>
      <point x="975.4452554744527" y="882.2846715328467" type="line"/>
      <point x="697.5985401459853" y="882.2846715328467" type="line"/>
      <point x="697.5985401459853" y="1086.109489051095" type="line" smooth="yes"/>
      <point x="697.5985401459853" y="1318.7226277372263"/>
      <point x="785.2116788321167" y="1363.7883211678832"/>
      <point x="870.9270072992701" y="1363.7883211678832" type="curve" smooth="yes"/>
      <point x="1005.3868613138687" y="1363.7883211678832"/>
      <point x="1135.051094890511" y="1238.4598540145987"/>
      <point x="1164.0948905109487" y="1179.0" type="curve"/>
      <point x="1304.094890510949" y="1379.0" type="line"/>
      <point x="1223.5620437956204" y="1443.189781021898"/>
      <point x="1078.8905109489049" y="1505.0"/>
      <point x="897.9270072992703" y="1505.0" type="curve" smooth="yes"/>
      <point x="596.0948905109489" y="1505.0"/>
      <point x="352.9270072992701" y="1304.0"/>
      <point x="352.9270072992701" y="999.0" type="curve" smooth="yes"/>
      <point x="352.9270072992701" y="882.2846715328467" type="line"/>
      <point x="175.08759124087592" y="882.2846715328467" type="line"/>
      <point x="175.08759124087592" y="746.8686131386862" type="line"/>
      <point x="352.9270072992701" y="746.8686131386862" type="line"/>
      <point x="352.9270072992701" y="448.014598540146" type="line" smooth="yes"/>
      <point x="352.9270072992701" y="350.89051094890516"/>
      <point x="338.6058394160584" y="278.7956204379562"/>
      <point x="320.6131386861314" y="253.63503649635038" type="curve"/>
      <point x="214.97810218978103" y="252.7883211678832"/>
      <point x="76.81751824817518" y="194.13138686131384"/>
      <point x="76.81751824817518" y="100.97810218978101" type="curve" smooth="yes"/>
      <point x="76.81751824817518" y="32.33576642335767"/>
      <point x="136.2919708029197" y="0.0"/>
      <point x="208.78832116788323" y="0.0" type="curve" smooth="yes"/>
      <point x="290.45985401459853" y="0.0"/>
      <point x="360.1021897810218" y="42.467153284671525"/>
      <point x="423.13138686131384" y="102.99270072992701" type="curve"/>
      <point x="566.9051094890511" y="99.66423357664233"/>
      <point x="708.4306569343065" y="-14.0"/>
    </contour>
  </outline>
</glyph>
<glyph name="currency" format="2">
  <advance width="1513.5328467153286"/>
  <unicode hex="00A4"/>
  <outline>
    <contour>
      <point x="396.3138686131387" y="484.7883211678832" type="curve"/>
      <point x="177.31386861313868" y="266.7883211678832" type="line"/>
      <point x="290.5620437956204" y="151.54014598540147" type="line"/>
      <point x="513.5620437956204" y="376.54014598540147" type="line"/>
      <point x="582.7372262773723" y="331.6788321167883"/>
      <point x="665.4233576642335" y="307.0"/>
      <point x="754.1021897810219" y="307.0" type="curve" smooth="yes"/>
      <point x="839.7737226277372" y="307.0"/>
      <point x="922.2846715328466" y="334.1678832116788"/>
      <point x="991.956204379562" y="379.8540145985401" type="curve"/>
      <point x="1216.956204379562" y="152.85401459854015" type="line"/>
      <point x="1334.5693430656936" y="272.46715328467155" type="line"/>
      <point x="1111.5693430656936" y="492.46715328467155" type="line"/>
      <point x="1168.094890510949" y="570.6496350364963"/>
      <point x="1202.1021897810217" y="664.6642335766423"/>
      <point x="1202.1021897810217" y="765.0" type="curve" smooth="yes"/>
      <point x="1202.1021897810217" y="862.1751824817518"/>
      <point x="1169.9270072992701" y="950.8613138686131"/>
      <point x="1116.2262773722628" y="1024.8759124087592" type="curve"/>
      <point x="1337.2262773722628" y="1242.8759124087592" type="line"/>
      <point x="1223.4744525547444" y="1356.6277372262773" type="line"/>
      <point x="996.4744525547445" y="1133.6277372262773" type="line"/>
      <point x="925.2919708029196" y="1178.4890510948906"/>
      <point x="842.1094890510949" y="1203.0"/>
      <point x="754.1021897810219" y="1203.0" type="curve" smooth="yes"/>
      <point x="666.4306569343065" y="1203.0"/>
      <point x="585.2554744525546" y="1177.4963503649635"/>
      <point x="518.2481751824818" y="1132.14598540146" type="curve"/>
      <point x="291.24817518248176" y="1359.14598540146" type="line"/>
      <point x="175.63503649635035" y="1239.5328467153286" type="line"/>
      <point x="398.6350364963504" y="1016.5328467153284" type="line"/>
      <point x="343.27737226277367" y="939.8540145985402"/>
      <point x="312.1021897810219" y="844.1751824817518"/>
      <point x="312.1021897810219" y="745.0" type="curve" smooth="yes"/>
      <point x="312.1021897810219" y="647.3284671532847"/>
      <point x="341.7810218978102" y="557.6423357664233"/>
    </contour>
    <contour>
      <point x="754.5985401459855" y="534.0" type="curve" smooth="yes"/>
      <point x="644.5985401459855" y="534.0"/>
      <point x="549.5985401459855" y="631.0"/>
      <point x="549.5985401459855" y="749.0" type="curve" smooth="yes"/>
      <point x="549.5985401459855" y="868.0"/>
      <point x="620.5985401459855" y="976.0"/>
      <point x="750.5985401459855" y="976.0" type="curve" smooth="yes"/>
      <point x="858.5985401459855" y="976.0"/>
      <point x="959.5985401459855" y="885.0"/>
      <point x="959.5985401459855" y="751.0" type="curve" smooth="yes"/>
      <point x="959.5985401459855" y="633.0"/>
      <point x="892.5985401459853" y="534.0"/>
    </contour>
  </outline>
</glyph>
<glyph name="yen" format="2">
  <advance width="1614.9489051094893"/>
  <unicode hex="00A5"/>
  <outline>
    <contour>
      <point x="573.3430656934306" y="789.6277372262773" type="line"/>
      <point x="224.96350364963504" y="789.6277372262773" type="line"/>
      <point x="224.96350364963504" y="668.7153284671533" type="line"/>
      <point x="650.2846715328466" y="668.7153284671533" type="line"/>
      <point x="650.2846715328466" y="458.992700729927" type="line"/>
      <point x="224.96350364963504" y="458.992700729927" type="line"/>
      <point x="224.96350364963504" y="338.08029197080293" type="line"/>
      <point x="650.2846715328466" y="338.08029197080293" type="line"/>
      <point x="650.2846715328466" y="136.4014598540146" type="line"/>
      <point x="453.963503649635" y="111.05839416058394" type="line"/>
      <point x="453.963503649635" y="0.0" type="line"/>
      <point x="1211.9635036496352" y="0.0" type="line"/>
      <point x="1211.9635036496352" y="111.05839416058394" type="line"/>
      <point x="998.6423357664233" y="136.4014598540146" type="line"/>
      <point x="998.6423357664233" y="338.08029197080293" type="line"/>
      <point x="1428.963503649635" y="338.08029197080293" type="line"/>
      <point x="1428.963503649635" y="458.992700729927" type="line"/>
      <point x="998.6423357664233" y="458.992700729927" type="line"/>
      <point x="998.6423357664233" y="668.7153284671533" type="line"/>
      <point x="1428.963503649635" y="668.7153284671533" type="line"/>
      <point x="1428.963503649635" y="789.6277372262773" type="line"/>
      <point x="1052.3941605839418" y="789.6277372262773" type="line"/>
      <point x="1360.1094890510951" y="1338.6058394160584" type="line"/>
      <point x="1515.1532846715327" y="1369.4525547445255" type="line"/>
      <point x="1515.1532846715327" y="1486.0" type="line"/>
      <point x="994.4963503649634" y="1486.0" type="line"/>
      <point x="994.4963503649634" y="1369.4525547445255" type="line"/>
      <point x="1166.7518248175184" y="1340.4306569343066" type="line"/>
      <point x="951.0291970802921" y="909.6277372262774" type="line"/>
      <point x="895.6861313868612" y="789.6277372262774" type="line"/>
      <point x="842.007299270073" y="909.6277372262774" type="line"/>
      <point x="627.4671532846717" y="1341.102189781022" type="line"/>
      <point x="772.3284671532847" y="1369.4525547445255" type="line"/>
      <point x="772.3284671532847" y="1486.0" type="line"/>
      <point x="105.32846715328468" y="1486.0" type="line"/>
      <point x="105.32846715328468" y="1369.4525547445255" type="line"/>
      <point x="232.27737226277372" y="1338.6058394160584" type="line"/>
    </contour>
  </outline>
</glyph>
<glyph name="brokenbar" format="2">
  <advance width="803.2043795620439"/>
  <unicode hex="00A6"/>
  <outline>
    <contour>
      <point x="501.6131386861314" y="1738.0" type="line"/>
      <point x="301.5912408759124" y="1738.0" type="line"/>
      <point x="301.5912408759124" y="928.0" type="line"/>
      <point x="501.6131386861314" y="928.0" type="line"/>
    </contour>
    <contour>
      <point x="501.6131386861314" y="626.0" type="line"/>
      <point x="301.5912408759124" y="626.0" type="line"/>
      <point x="301.5912408759124" y="-182.0" type="line"/>
      <point x="501.6131386861314" y="-182.0" type="line"/>
    </contour>
  </outline>
</glyph>
